<svg width="1170" height="676" viewBox="0 0 1170 676" fill="none" xmlns="http://www.w3.org/2000/svg">
<g clip-path="url(#clip0_117_2139)">
<path d="M606.554 810.472C868.133 810.472 1080.19 598.437 1080.19 336.879C1080.19 75.3201 868.133 -136.715 606.554 -136.715C344.974 -136.715 132.922 75.3201 132.922 336.879C132.922 598.437 344.974 810.472 606.554 810.472Z" stroke="#4997BF" stroke-opacity="0.2" stroke-width="0.61" stroke-miterlimit="10"/>
<path d="M606.554 744.407C831.645 744.407 1014.12 561.95 1014.12 336.876C1014.12 111.803 831.645 -70.6543 606.554 -70.6543C381.463 -70.6543 198.99 111.803 198.99 336.876C198.99 561.95 381.463 744.407 606.554 744.407Z" stroke="#4997BF" stroke-opacity="0.2" stroke-width="2.21" stroke-miterlimit="10"/>
<path d="M606.556 678.349C795.159 678.349 948.052 525.468 948.052 336.88C948.052 148.293 795.159 -4.58789 606.556 -4.58789C417.953 -4.58789 265.061 148.293 265.061 336.88C265.061 525.468 417.953 678.349 606.556 678.349Z" stroke="#4997BF" stroke-opacity="0.2" stroke-width="3.81" stroke-miterlimit="10"/>
<path d="M606.555 612.286C758.67 612.286 881.983 488.982 881.983 336.88C881.983 184.778 758.67 61.4746 606.555 61.4746C454.44 61.4746 331.127 184.778 331.127 336.88C331.127 488.982 454.44 612.286 606.555 612.286Z" stroke="#4997BF" stroke-opacity="0.2" stroke-width="5.4" stroke-miterlimit="10"/>
<path d="M606.553 546.227C722.179 546.227 815.913 452.501 815.913 336.884C815.913 221.267 722.179 127.541 606.553 127.541C490.927 127.541 397.193 221.267 397.193 336.884C397.193 452.501 490.927 546.227 606.553 546.227Z" stroke="#4997BF" stroke-opacity="0.2" stroke-width="7" stroke-miterlimit="10"/>
<path d="M606.554 480.16C685.692 480.16 749.845 416.011 749.845 336.88C749.845 257.748 685.692 193.6 606.554 193.6C527.416 193.6 463.262 257.748 463.262 336.88C463.262 416.011 527.416 480.16 606.554 480.16Z" stroke="#4997BF" stroke-opacity="0.2" stroke-width="8.59" stroke-miterlimit="10"/>
</g>
<defs>
<clipPath id="clip0_117_2139">
<rect width="1170" height="676" fill="white"/>
</clipPath>
</defs>
</svg>
