<svg width="662" height="554" viewBox="0 0 662 554" fill="none" xmlns="http://www.w3.org/2000/svg">
<g clip-path="url(#clip0_172_68)">
<rect x="-110.109" y="-0.138916" width="1445.15" height="675.522" transform="rotate(16.3523 -110.109 -0.138916)" fill="url(#paint0_linear_172_68)"/>
<path d="M64.912 415.16C64.3467 415.16 63.8133 415.08 63.312 414.92C62.8107 414.76 62.352 414.52 61.936 414.2C61.52 413.88 61.152 413.485 60.832 413.016L61.696 412.056C62.1973 412.771 62.7093 413.272 63.232 413.56C63.7653 413.848 64.3627 413.992 65.024 413.992C65.504 413.992 65.9413 413.912 66.336 413.752C66.7307 413.592 67.04 413.368 67.264 413.08C67.488 412.792 67.6 412.461 67.6 412.088C67.6 411.843 67.5573 411.624 67.472 411.432C67.3973 411.24 67.28 411.069 67.12 410.92C66.96 410.771 66.7627 410.637 66.528 410.52C66.2933 410.403 66.0213 410.296 65.712 410.2C65.4133 410.104 65.0773 410.008 64.704 409.912C64.16 409.784 63.68 409.635 63.264 409.464C62.8587 409.283 62.512 409.064 62.224 408.808C61.9467 408.552 61.7333 408.259 61.584 407.928C61.4453 407.587 61.376 407.187 61.376 406.728C61.376 406.291 61.4667 405.885 61.648 405.512C61.84 405.139 62.1013 404.819 62.432 404.552C62.7627 404.275 63.152 404.061 63.6 403.912C64.048 403.763 64.528 403.688 65.04 403.688C65.616 403.688 66.128 403.768 66.576 403.928C67.0347 404.077 67.44 404.301 67.792 404.6C68.144 404.899 68.448 405.256 68.704 405.672L67.824 406.536C67.6 406.184 67.344 405.88 67.056 405.624C66.7787 405.368 66.4693 405.176 66.128 405.048C65.7973 404.909 65.4293 404.84 65.024 404.84C64.5547 404.84 64.1387 404.92 63.776 405.08C63.424 405.24 63.1467 405.464 62.944 405.752C62.7413 406.029 62.64 406.349 62.64 406.712C62.64 406.979 62.688 407.219 62.784 407.432C62.88 407.635 63.0293 407.816 63.232 407.976C63.4453 408.125 63.7173 408.264 64.048 408.392C64.3893 408.509 64.7947 408.621 65.264 408.728C65.8187 408.856 66.3147 409.011 66.752 409.192C67.2 409.373 67.5787 409.592 67.888 409.848C68.208 410.093 68.448 410.381 68.608 410.712C68.7787 411.043 68.864 411.421 68.864 411.848C68.864 412.509 68.6987 413.091 68.368 413.592C68.0373 414.083 67.5733 414.467 66.976 414.744C66.3893 415.021 65.7013 415.16 64.912 415.16ZM71.6544 412.312L71.6064 410.92L75.9744 406.648H77.5904L71.6544 412.312ZM70.5824 415V403.16H71.7824V415H70.5824ZM76.3104 415L72.7904 410.92L73.6384 410.088L77.8784 415H76.3104ZM78.8256 415V403.16H80.0256V415H78.8256ZM85.5911 415.16C84.7591 415.16 84.0178 414.979 83.3671 414.616C82.7271 414.253 82.2258 413.747 81.8631 413.096C81.5005 412.445 81.3191 411.699 81.3191 410.856C81.3191 410.205 81.4205 409.619 81.6231 409.096C81.8258 408.563 82.1085 408.099 82.4711 407.704C82.8445 407.309 83.2871 407.005 83.7991 406.792C84.3111 406.568 84.8658 406.456 85.4631 406.456C86.0285 406.456 86.5405 406.557 86.9991 406.76C87.4685 406.963 87.8685 407.245 88.1991 407.608C88.5405 407.96 88.7965 408.381 88.9671 408.872C89.1378 409.363 89.2125 409.901 89.1911 410.488L89.1751 411.048H82.2151L82.0391 410.04H88.2631L87.9751 410.312V409.928C87.9538 409.544 87.8418 409.176 87.6391 408.824C87.4365 408.461 87.1485 408.168 86.7751 407.944C86.4125 407.72 85.9751 407.608 85.4631 407.608C84.8658 407.608 84.3485 407.731 83.9111 407.976C83.4738 408.211 83.1378 408.563 82.9031 409.032C82.6685 409.501 82.5511 410.083 82.5511 410.776C82.5511 411.437 82.6791 412.013 82.9351 412.504C83.1911 412.984 83.5538 413.357 84.0231 413.624C84.5031 413.891 85.0791 414.024 85.7511 414.024C86.1458 414.024 86.5351 413.96 86.9191 413.832C87.3138 413.693 87.7458 413.427 88.2151 413.032L88.8391 413.896C88.5938 414.141 88.3005 414.36 87.9591 414.552C87.6178 414.733 87.2445 414.883 86.8391 415C86.4338 415.107 86.0178 415.16 85.5911 415.16ZM90.5755 418.52V406.648H91.7755L91.8075 408.68L91.5835 408.712C91.6795 408.307 91.8875 407.939 92.2075 407.608C92.5275 407.267 92.9168 406.995 93.3755 406.792C93.8342 406.589 94.3195 406.488 94.8315 406.488C95.5782 406.488 96.2448 406.675 96.8315 407.048C97.4288 407.421 97.9035 407.933 98.2555 408.584C98.6075 409.235 98.7835 409.981 98.7835 410.824C98.7835 411.656 98.6128 412.397 98.2715 413.048C97.9302 413.699 97.4608 414.216 96.8635 414.6C96.2662 414.973 95.5942 415.16 94.8475 415.16C94.3248 415.16 93.8288 415.053 93.3595 414.84C92.8902 414.627 92.4902 414.349 92.1595 414.008C91.8288 413.656 91.6102 413.277 91.5035 412.872H91.7915V418.52H90.5755ZM94.6555 414.008C95.2208 414.008 95.7222 413.869 96.1595 413.592C96.5968 413.315 96.9435 412.936 97.1995 412.456C97.4555 411.976 97.5835 411.432 97.5835 410.824C97.5835 410.205 97.4555 409.656 97.1995 409.176C96.9435 408.696 96.5968 408.317 96.1595 408.04C95.7222 407.763 95.2208 407.624 94.6555 407.624C94.0902 407.624 93.5835 407.763 93.1355 408.04C92.6982 408.307 92.3515 408.68 92.0955 409.16C91.8395 409.64 91.7115 410.189 91.7115 410.808C91.7115 411.427 91.8395 411.976 92.0955 412.456C92.3515 412.936 92.6982 413.315 93.1355 413.592C93.5835 413.869 94.0902 414.008 94.6555 414.008ZM104.693 415V406.648H105.893V415H104.693ZM105.285 404.84C104.986 404.84 104.757 404.765 104.597 404.616C104.448 404.456 104.373 404.243 104.373 403.976C104.373 403.709 104.453 403.496 104.613 403.336C104.773 403.176 104.997 403.096 105.285 403.096C105.573 403.096 105.797 403.176 105.957 403.336C106.117 403.485 106.197 403.699 106.197 403.976C106.197 404.232 106.117 404.44 105.957 404.6C105.797 404.76 105.573 404.84 105.285 404.84ZM108.194 415V406.648H109.378L109.426 408.392L109.234 408.472C109.34 408.109 109.548 407.779 109.858 407.48C110.167 407.181 110.535 406.941 110.962 406.76C111.399 406.568 111.847 406.472 112.306 406.472C112.924 406.472 113.442 406.595 113.858 406.84C114.274 407.085 114.588 407.464 114.802 407.976C115.015 408.488 115.122 409.139 115.122 409.928V415H113.906V409.992C113.906 409.437 113.831 408.984 113.682 408.632C113.543 408.269 113.324 408.003 113.026 407.832C112.727 407.661 112.359 407.581 111.922 407.592C111.559 407.592 111.223 407.656 110.914 407.784C110.604 407.901 110.338 408.067 110.114 408.28C109.89 408.493 109.714 408.739 109.586 409.016C109.458 409.293 109.394 409.592 109.394 409.912V415H108.802C108.727 415 108.642 415 108.546 415C108.45 415 108.332 415 108.194 415ZM118.244 415V404.456H119.444V415H118.244ZM116.356 407.8V406.648H121.556V407.8H116.356ZM126.312 415.16C125.48 415.16 124.738 414.979 124.088 414.616C123.448 414.253 122.946 413.747 122.584 413.096C122.221 412.445 122.04 411.699 122.04 410.856C122.04 410.205 122.141 409.619 122.344 409.096C122.546 408.563 122.829 408.099 123.192 407.704C123.565 407.309 124.008 407.005 124.52 406.792C125.032 406.568 125.586 406.456 126.184 406.456C126.749 406.456 127.261 406.557 127.72 406.76C128.189 406.963 128.589 407.245 128.92 407.608C129.261 407.96 129.517 408.381 129.688 408.872C129.858 409.363 129.933 409.901 129.912 410.488L129.896 411.048H122.936L122.76 410.04H128.984L128.696 410.312V409.928C128.674 409.544 128.562 409.176 128.36 408.824C128.157 408.461 127.869 408.168 127.496 407.944C127.133 407.72 126.696 407.608 126.184 407.608C125.586 407.608 125.069 407.731 124.632 407.976C124.194 408.211 123.858 408.563 123.624 409.032C123.389 409.501 123.272 410.083 123.272 410.776C123.272 411.437 123.4 412.013 123.656 412.504C123.912 412.984 124.274 413.357 124.744 413.624C125.224 413.891 125.8 414.024 126.472 414.024C126.866 414.024 127.256 413.96 127.64 413.832C128.034 413.693 128.466 413.427 128.936 413.032L129.56 413.896C129.314 414.141 129.021 414.36 128.68 414.552C128.338 414.733 127.965 414.883 127.56 415C127.154 415.107 126.738 415.16 126.312 415.16ZM131.296 415V406.648H132.496L132.528 408.872L132.4 408.568C132.517 408.195 132.704 407.848 132.96 407.528C133.227 407.208 133.541 406.952 133.904 406.76C134.267 406.568 134.667 406.472 135.104 406.472C135.285 406.472 135.456 406.488 135.616 406.52C135.776 406.541 135.909 406.573 136.016 406.616L135.68 407.96C135.541 407.896 135.397 407.853 135.248 407.832C135.109 407.8 134.976 407.784 134.848 407.784C134.485 407.784 134.16 407.848 133.872 407.976C133.584 408.104 133.339 408.285 133.136 408.52C132.933 408.744 132.779 409.005 132.672 409.304C132.565 409.603 132.512 409.923 132.512 410.264V415H131.296ZM136.945 415V406.648H138.129L138.177 408.392L137.985 408.472C138.092 408.109 138.3 407.779 138.609 407.48C138.918 407.181 139.286 406.941 139.713 406.76C140.15 406.568 140.598 406.472 141.057 406.472C141.676 406.472 142.193 406.595 142.609 406.84C143.025 407.085 143.34 407.464 143.553 407.976C143.766 408.488 143.873 409.139 143.873 409.928V415H142.657V409.992C142.657 409.437 142.582 408.984 142.433 408.632C142.294 408.269 142.076 408.003 141.777 407.832C141.478 407.661 141.11 407.581 140.673 407.592C140.31 407.592 139.974 407.656 139.665 407.784C139.356 407.901 139.089 408.067 138.865 408.28C138.641 408.493 138.465 408.739 138.337 409.016C138.209 409.293 138.145 409.592 138.145 409.912V415H137.553C137.478 415 137.393 415 137.297 415C137.201 415 137.084 415 136.945 415ZM149.524 415.16C148.692 415.16 147.95 414.979 147.3 414.616C146.66 414.253 146.158 413.747 145.796 413.096C145.433 412.445 145.252 411.699 145.252 410.856C145.252 410.205 145.353 409.619 145.556 409.096C145.758 408.563 146.041 408.099 146.404 407.704C146.777 407.309 147.22 407.005 147.732 406.792C148.244 406.568 148.798 406.456 149.396 406.456C149.961 406.456 150.473 406.557 150.932 406.76C151.401 406.963 151.801 407.245 152.132 407.608C152.473 407.96 152.729 408.381 152.9 408.872C153.07 409.363 153.145 409.901 153.124 410.488L153.108 411.048H146.148L145.972 410.04H152.196L151.908 410.312V409.928C151.886 409.544 151.774 409.176 151.572 408.824C151.369 408.461 151.081 408.168 150.708 407.944C150.345 407.72 149.908 407.608 149.396 407.608C148.798 407.608 148.281 407.731 147.844 407.976C147.406 408.211 147.07 408.563 146.836 409.032C146.601 409.501 146.484 410.083 146.484 410.776C146.484 411.437 146.612 412.013 146.868 412.504C147.124 412.984 147.486 413.357 147.956 413.624C148.436 413.891 149.012 414.024 149.684 414.024C150.078 414.024 150.468 413.96 150.852 413.832C151.246 413.693 151.678 413.427 152.148 413.032L152.772 413.896C152.526 414.141 152.233 414.36 151.892 414.552C151.55 414.733 151.177 414.883 150.772 415C150.366 415.107 149.95 415.16 149.524 415.16ZM155.66 415V404.456H156.86V415H155.66ZM153.772 407.8V406.648H158.972V407.8H153.772ZM163.743 415.16C162.911 415.16 162.17 414.973 161.519 414.6C160.879 414.227 160.373 413.709 159.999 413.048C159.637 412.387 159.455 411.635 159.455 410.792C159.455 409.96 159.637 409.219 159.999 408.568C160.373 407.917 160.879 407.405 161.519 407.032C162.17 406.659 162.911 406.472 163.743 406.472C164.565 406.472 165.295 406.659 165.935 407.032C166.586 407.405 167.093 407.917 167.455 408.568C167.829 409.219 168.015 409.96 168.015 410.792C168.015 411.635 167.829 412.387 167.455 413.048C167.093 413.709 166.586 414.227 165.935 414.6C165.295 414.973 164.565 415.16 163.743 415.16ZM163.743 414.024C164.33 414.024 164.853 413.885 165.311 413.608C165.77 413.32 166.127 412.936 166.383 412.456C166.639 411.965 166.767 411.411 166.767 410.792C166.767 410.173 166.639 409.624 166.383 409.144C166.127 408.664 165.77 408.291 165.311 408.024C164.853 407.747 164.33 407.608 163.743 407.608C163.157 407.608 162.629 407.747 162.159 408.024C161.701 408.291 161.338 408.669 161.071 409.16C160.815 409.64 160.693 410.184 160.703 410.792C160.693 411.411 160.815 411.965 161.071 412.456C161.338 412.936 161.701 413.32 162.159 413.608C162.629 413.885 163.157 414.024 163.743 414.024ZM171.102 415L168.206 406.648L169.486 406.632L171.742 413.432L171.342 413.4L173.79 407.928H174.51L176.974 413.4L176.494 413.432L178.798 406.648H180.062L177.166 415H176.462L173.87 409.048L174.35 409.08L171.838 415H171.102ZM182.565 418.68L184.181 414.744L184.293 415.88L180.101 406.648H181.461L184.325 413.048C184.411 413.219 184.496 413.421 184.581 413.656C184.667 413.88 184.747 414.104 184.821 414.328L184.373 414.28C184.448 414.099 184.517 413.912 184.581 413.72C184.656 413.528 184.725 413.341 184.789 413.16L187.301 406.648H188.677L185.301 415L183.861 418.68H182.565ZM189.779 417.64L189.331 417.064C189.672 416.861 189.939 416.643 190.131 416.408C190.323 416.173 190.419 415.949 190.419 415.736C190.419 415.619 190.397 415.507 190.355 415.4C190.312 415.293 190.205 415.16 190.035 415C189.885 414.861 189.773 414.728 189.699 414.6C189.635 414.472 189.603 414.339 189.603 414.2C189.603 413.987 189.677 413.816 189.827 413.688C189.976 413.549 190.173 413.48 190.419 413.48C190.664 413.48 190.877 413.544 191.059 413.672C191.24 413.8 191.379 413.981 191.475 414.216C191.581 414.44 191.635 414.707 191.635 415.016C191.635 415.304 191.592 415.571 191.507 415.816C191.421 416.072 191.299 416.312 191.139 416.536C190.979 416.76 190.787 416.963 190.563 417.144C190.339 417.325 190.077 417.491 189.779 417.64ZM201.047 418.68C200.429 418.68 199.842 418.584 199.287 418.392C198.733 418.2 198.274 417.96 197.911 417.672L198.391 416.664C198.605 416.835 198.85 416.984 199.127 417.112C199.415 417.251 199.725 417.357 200.055 417.432C200.386 417.517 200.722 417.56 201.063 417.56C201.682 417.56 202.205 417.443 202.631 417.208C203.069 416.984 203.399 416.648 203.623 416.2C203.858 415.752 203.975 415.197 203.975 414.536V412.936L204.167 412.888C204.071 413.293 203.863 413.672 203.543 414.024C203.223 414.365 202.834 414.643 202.375 414.856C201.917 415.059 201.431 415.16 200.919 415.16C200.141 415.16 199.442 414.973 198.823 414.6C198.215 414.227 197.735 413.715 197.383 413.064C197.031 412.403 196.855 411.656 196.855 410.824C196.855 409.981 197.031 409.235 197.383 408.584C197.746 407.923 198.231 407.405 198.839 407.032C199.447 406.659 200.13 406.472 200.887 406.472C201.218 406.472 201.538 406.515 201.847 406.6C202.157 406.675 202.439 406.787 202.695 406.936C202.962 407.085 203.202 407.256 203.415 407.448C203.629 407.64 203.805 407.848 203.943 408.072C204.093 408.296 204.199 408.525 204.263 408.76L203.927 408.712L203.975 406.648H205.175V414.488C205.175 415.16 205.079 415.752 204.887 416.264C204.695 416.787 204.413 417.224 204.039 417.576C203.677 417.939 203.239 418.211 202.727 418.392C202.226 418.584 201.666 418.68 201.047 418.68ZM201.063 414.008C201.629 414.008 202.13 413.875 202.567 413.608C203.015 413.331 203.367 412.952 203.623 412.472C203.879 411.992 204.007 411.437 204.007 410.808C204.007 410.189 203.879 409.64 203.623 409.16C203.378 408.68 203.031 408.301 202.583 408.024C202.135 407.747 201.629 407.608 201.063 407.608C200.487 407.608 199.975 407.747 199.527 408.024C199.09 408.301 198.743 408.68 198.487 409.16C198.231 409.64 198.103 410.189 198.103 410.808C198.103 411.416 198.226 411.965 198.471 412.456C198.727 412.936 199.074 413.315 199.511 413.592C199.959 413.869 200.477 414.008 201.063 414.008ZM210.582 415.16C209.825 415.16 209.142 414.973 208.534 414.6C207.937 414.227 207.462 413.715 207.11 413.064C206.769 412.403 206.598 411.656 206.598 410.824C206.598 409.981 206.774 409.235 207.126 408.584C207.478 407.923 207.953 407.405 208.55 407.032C209.147 406.659 209.819 406.472 210.566 406.472C210.982 406.472 211.382 406.536 211.766 406.664C212.161 406.792 212.513 406.973 212.822 407.208C213.131 407.432 213.387 407.693 213.59 407.992C213.793 408.28 213.915 408.584 213.958 408.904L213.59 408.776V403.16H214.79V415H213.606L213.574 412.92L213.878 412.808C213.835 413.107 213.713 413.4 213.51 413.688C213.318 413.965 213.073 414.216 212.774 414.44C212.475 414.664 212.134 414.84 211.75 414.968C211.377 415.096 210.987 415.16 210.582 415.16ZM210.758 414.056C211.313 414.056 211.809 413.917 212.246 413.64C212.683 413.363 213.025 412.979 213.27 412.488C213.526 411.997 213.654 411.437 213.654 410.808C213.654 410.179 213.526 409.624 213.27 409.144C213.025 408.653 212.683 408.269 212.246 407.992C211.809 407.704 211.313 407.56 210.758 407.56C210.182 407.56 209.675 407.704 209.238 407.992C208.811 408.269 208.47 408.653 208.214 409.144C207.969 409.624 207.846 410.179 207.846 410.808C207.846 411.427 207.969 411.981 208.214 412.472C208.459 412.963 208.801 413.352 209.238 413.64C209.675 413.917 210.182 414.056 210.758 414.056ZM216.343 415V413.96L220.951 407.464L221.095 407.72H216.343V406.648H222.215V407.672L217.623 414.152L217.463 413.912H222.391V415H216.343ZM224.229 415V406.648H225.429V415H224.229ZM224.821 404.84C224.523 404.84 224.293 404.765 224.133 404.616C223.984 404.456 223.909 404.243 223.909 403.976C223.909 403.709 223.989 403.496 224.149 403.336C224.309 403.176 224.533 403.096 224.821 403.096C225.109 403.096 225.333 403.176 225.493 403.336C225.653 403.485 225.733 403.699 225.733 403.976C225.733 404.232 225.653 404.44 225.493 404.6C225.333 404.76 225.109 404.84 224.821 404.84ZM231.41 415.16C230.578 415.16 229.837 414.979 229.186 414.616C228.546 414.253 228.045 413.747 227.682 413.096C227.319 412.445 227.138 411.699 227.138 410.856C227.138 410.205 227.239 409.619 227.442 409.096C227.645 408.563 227.927 408.099 228.29 407.704C228.663 407.309 229.106 407.005 229.618 406.792C230.13 406.568 230.685 406.456 231.282 406.456C231.847 406.456 232.359 406.557 232.818 406.76C233.287 406.963 233.687 407.245 234.018 407.608C234.359 407.96 234.615 408.381 234.786 408.872C234.957 409.363 235.031 409.901 235.01 410.488L234.994 411.048H228.034L227.858 410.04H234.082L233.794 410.312V409.928C233.773 409.544 233.661 409.176 233.458 408.824C233.255 408.461 232.967 408.168 232.594 407.944C232.231 407.72 231.794 407.608 231.282 407.608C230.685 407.608 230.167 407.731 229.73 407.976C229.293 408.211 228.957 408.563 228.722 409.032C228.487 409.501 228.37 410.083 228.37 410.776C228.37 411.437 228.498 412.013 228.754 412.504C229.01 412.984 229.373 413.357 229.842 413.624C230.322 413.891 230.898 414.024 231.57 414.024C231.965 414.024 232.354 413.96 232.738 413.832C233.133 413.693 233.565 413.427 234.034 413.032L234.658 413.896C234.413 414.141 234.119 414.36 233.778 414.552C233.437 414.733 233.063 414.883 232.658 415C232.253 415.107 231.837 415.16 231.41 415.16ZM240.559 415V406.648H241.759L241.791 408.872L241.663 408.568C241.78 408.195 241.967 407.848 242.223 407.528C242.489 407.208 242.804 406.952 243.167 406.76C243.529 406.568 243.929 406.472 244.367 406.472C244.548 406.472 244.719 406.488 244.879 406.52C245.039 406.541 245.172 406.573 245.279 406.616L244.943 407.96C244.804 407.896 244.66 407.853 244.511 407.832C244.372 407.8 244.239 407.784 244.111 407.784C243.748 407.784 243.423 407.848 243.135 407.976C242.847 408.104 242.601 408.285 242.399 408.52C242.196 408.744 242.041 409.005 241.935 409.304C241.828 409.603 241.775 409.923 241.775 410.264V415H240.559ZM245.743 415V413.96L250.351 407.464L250.495 407.72H245.743V406.648H251.615V407.672L247.023 414.152L246.863 413.912H251.791V415H245.743ZM256.833 415.16C256.001 415.16 255.26 414.979 254.609 414.616C253.969 414.253 253.468 413.747 253.105 413.096C252.742 412.445 252.561 411.699 252.561 410.856C252.561 410.205 252.662 409.619 252.865 409.096C253.068 408.563 253.35 408.099 253.713 407.704C254.086 407.309 254.529 407.005 255.041 406.792C255.553 406.568 256.108 406.456 256.705 406.456C257.27 406.456 257.782 406.557 258.241 406.76C258.71 406.963 259.11 407.245 259.441 407.608C259.782 407.96 260.038 408.381 260.209 408.872C260.38 409.363 260.454 409.901 260.433 410.488L260.417 411.048H253.457L253.281 410.04H259.505L259.217 410.312V409.928C259.196 409.544 259.084 409.176 258.881 408.824C258.678 408.461 258.39 408.168 258.017 407.944C257.654 407.72 257.217 407.608 256.705 407.608C256.108 407.608 255.59 407.731 255.153 407.976C254.716 408.211 254.38 408.563 254.145 409.032C253.91 409.501 253.793 410.083 253.793 410.776C253.793 411.437 253.921 412.013 254.177 412.504C254.433 412.984 254.796 413.357 255.265 413.624C255.745 413.891 256.321 414.024 256.993 414.024C257.388 414.024 257.777 413.96 258.161 413.832C258.556 413.693 258.988 413.427 259.457 413.032L260.081 413.896C259.836 414.141 259.542 414.36 259.201 414.552C258.86 414.733 258.486 414.883 258.081 415C257.676 415.107 257.26 415.16 256.833 415.16ZM265.337 415.16C264.548 415.16 263.844 414.973 263.225 414.6C262.607 414.216 262.116 413.699 261.753 413.048C261.401 412.387 261.225 411.64 261.225 410.808C261.225 409.976 261.401 409.235 261.753 408.584C262.116 407.923 262.607 407.405 263.225 407.032C263.844 406.659 264.553 406.472 265.353 406.472C266.068 406.472 266.719 406.616 267.305 406.904C267.892 407.181 268.361 407.571 268.713 408.072L268.009 408.936C267.807 408.669 267.561 408.435 267.273 408.232C266.996 408.029 266.692 407.875 266.361 407.768C266.041 407.651 265.721 407.592 265.401 407.592C264.836 407.592 264.329 407.736 263.881 408.024C263.433 408.301 263.076 408.68 262.809 409.16C262.553 409.64 262.425 410.189 262.425 410.808C262.425 411.427 262.553 411.981 262.809 412.472C263.076 412.952 263.433 413.331 263.881 413.608C264.329 413.885 264.831 414.024 265.385 414.024C265.705 414.024 266.02 413.976 266.329 413.88C266.639 413.773 266.932 413.624 267.209 413.432C267.487 413.24 267.743 413 267.977 412.712L268.681 413.576C268.319 414.056 267.833 414.44 267.225 414.728C266.617 415.016 265.988 415.16 265.337 415.16ZM269.455 415V413.96L274.063 407.464L274.207 407.72H269.455V406.648H275.327V407.672L270.735 414.152L270.575 413.912H275.503V415H269.455ZM278.429 418.68L280.045 414.744L280.157 415.88L275.965 406.648H277.325L280.189 413.048C280.274 413.219 280.36 413.421 280.445 413.656C280.53 413.88 280.61 414.104 280.685 414.328L280.237 414.28C280.312 414.099 280.381 413.912 280.445 413.72C280.52 413.528 280.589 413.341 280.653 413.16L283.165 406.648H284.541L281.165 415L279.725 418.68H278.429ZM289.647 418.52V406.648H290.847L290.879 408.68L290.655 408.712C290.751 408.307 290.959 407.939 291.279 407.608C291.599 407.267 291.988 406.995 292.447 406.792C292.905 406.589 293.391 406.488 293.903 406.488C294.649 406.488 295.316 406.675 295.903 407.048C296.5 407.421 296.975 407.933 297.327 408.584C297.679 409.235 297.855 409.981 297.855 410.824C297.855 411.656 297.684 412.397 297.343 413.048C297.001 413.699 296.532 414.216 295.935 414.6C295.337 414.973 294.665 415.16 293.919 415.16C293.396 415.16 292.9 415.053 292.431 414.84C291.961 414.627 291.561 414.349 291.231 414.008C290.9 413.656 290.681 413.277 290.575 412.872H290.863V418.52H289.647ZM293.727 414.008C294.292 414.008 294.793 413.869 295.231 413.592C295.668 413.315 296.015 412.936 296.271 412.456C296.527 411.976 296.655 411.432 296.655 410.824C296.655 410.205 296.527 409.656 296.271 409.176C296.015 408.696 295.668 408.317 295.231 408.04C294.793 407.763 294.292 407.624 293.727 407.624C293.161 407.624 292.655 407.763 292.207 408.04C291.769 408.307 291.423 408.68 291.167 409.16C290.911 409.64 290.783 410.189 290.783 410.808C290.783 411.427 290.911 411.976 291.167 412.456C291.423 412.936 291.769 413.315 292.207 413.592C292.655 413.869 293.161 414.008 293.727 414.008ZM302.976 415.16C302.144 415.16 301.403 414.973 300.752 414.6C300.112 414.227 299.605 413.709 299.232 413.048C298.869 412.387 298.688 411.635 298.688 410.792C298.688 409.96 298.869 409.219 299.232 408.568C299.605 407.917 300.112 407.405 300.752 407.032C301.403 406.659 302.144 406.472 302.976 406.472C303.797 406.472 304.528 406.659 305.168 407.032C305.819 407.405 306.325 407.917 306.688 408.568C307.061 409.219 307.248 409.96 307.248 410.792C307.248 411.635 307.061 412.387 306.688 413.048C306.325 413.709 305.819 414.227 305.168 414.6C304.528 414.973 303.797 415.16 302.976 415.16ZM302.976 414.024C303.563 414.024 304.085 413.885 304.544 413.608C305.003 413.32 305.36 412.936 305.616 412.456C305.872 411.965 306 411.411 306 410.792C306 410.173 305.872 409.624 305.616 409.144C305.36 408.664 305.003 408.291 304.544 408.024C304.085 407.747 303.563 407.608 302.976 407.608C302.389 407.608 301.861 407.747 301.392 408.024C300.933 408.291 300.571 408.669 300.304 409.16C300.048 409.64 299.925 410.184 299.936 410.792C299.925 411.411 300.048 411.965 300.304 412.456C300.571 412.936 300.933 413.32 301.392 413.608C301.861 413.885 302.389 414.024 302.976 414.024ZM310.334 415L307.438 406.648L308.718 406.632L310.974 413.432L310.574 413.4L313.022 407.928H313.742L316.206 413.4L315.726 413.432L318.03 406.648H319.294L316.398 415H315.694L313.102 409.048L313.582 409.08L311.07 415H310.334ZM323.048 415.16C322.333 415.16 321.693 415.027 321.128 414.76C320.562 414.493 320.114 414.141 319.784 413.704L320.632 412.968C320.941 413.341 321.304 413.624 321.72 413.816C322.146 414.008 322.621 414.104 323.144 414.104C323.41 414.104 323.65 414.077 323.864 414.024C324.077 413.96 324.264 413.869 324.424 413.752C324.584 413.635 324.706 413.496 324.792 413.336C324.877 413.176 324.92 413 324.92 412.808C324.92 412.456 324.765 412.163 324.456 411.928C324.317 411.832 324.12 411.736 323.864 411.64C323.608 411.533 323.298 411.432 322.936 411.336C322.338 411.165 321.842 410.995 321.448 410.824C321.053 410.643 320.744 410.435 320.52 410.2C320.36 410.008 320.237 409.8 320.152 409.576C320.077 409.352 320.04 409.107 320.04 408.84C320.04 408.499 320.109 408.184 320.248 407.896C320.397 407.608 320.6 407.357 320.856 407.144C321.122 406.92 321.432 406.755 321.784 406.648C322.146 406.531 322.536 406.472 322.952 406.472C323.346 406.472 323.736 406.525 324.12 406.632C324.504 406.739 324.861 406.893 325.192 407.096C325.522 407.299 325.805 407.539 326.04 407.816L325.304 408.616C325.101 408.403 324.877 408.211 324.632 408.04C324.386 407.869 324.125 407.736 323.848 407.64C323.581 407.544 323.304 407.496 323.016 407.496C322.76 407.496 322.52 407.528 322.296 407.592C322.082 407.656 321.896 407.747 321.736 407.864C321.586 407.971 321.469 408.104 321.384 408.264C321.309 408.424 321.272 408.6 321.272 408.792C321.272 408.952 321.304 409.096 321.368 409.224C321.432 409.352 321.522 409.464 321.64 409.56C321.789 409.677 321.997 409.789 322.264 409.896C322.541 409.992 322.882 410.093 323.288 410.2C323.757 410.328 324.152 410.461 324.472 410.6C324.802 410.728 325.074 410.883 325.288 411.064C325.576 411.277 325.778 411.523 325.896 411.8C326.024 412.077 326.088 412.392 326.088 412.744C326.088 413.213 325.954 413.629 325.688 413.992C325.432 414.355 325.074 414.643 324.616 414.856C324.157 415.059 323.634 415.16 323.048 415.16ZM328.8 415V404.456H330V415H328.8ZM326.912 407.8V406.648H332.112V407.8H326.912ZM336.451 415.16C335.726 415.16 335.07 414.973 334.483 414.6C333.897 414.216 333.433 413.699 333.091 413.048C332.75 412.387 332.579 411.64 332.579 410.808C332.579 409.965 332.755 409.219 333.107 408.568C333.459 407.917 333.929 407.405 334.515 407.032C335.113 406.659 335.779 406.472 336.515 406.472C336.953 406.472 337.358 406.536 337.731 406.664C338.105 406.792 338.435 406.973 338.723 407.208C339.022 407.432 339.267 407.699 339.459 408.008C339.662 408.307 339.801 408.632 339.875 408.984L339.523 408.808L339.571 406.648H340.771V415H339.555V412.952L339.875 412.744C339.801 413.064 339.657 413.373 339.443 413.672C339.23 413.96 338.969 414.216 338.659 414.44C338.361 414.664 338.019 414.84 337.635 414.968C337.262 415.096 336.867 415.16 336.451 415.16ZM336.723 414.008C337.278 414.008 337.774 413.875 338.211 413.608C338.649 413.331 338.99 412.952 339.235 412.472C339.491 411.981 339.619 411.427 339.619 410.808C339.619 410.189 339.491 409.64 339.235 409.16C338.99 408.68 338.649 408.301 338.211 408.024C337.774 407.747 337.278 407.608 336.723 407.608C336.158 407.608 335.657 407.747 335.219 408.024C334.793 408.301 334.451 408.68 334.195 409.16C333.95 409.64 333.827 410.189 333.827 410.808C333.827 411.416 333.95 411.965 334.195 412.456C334.441 412.936 334.782 413.315 335.219 413.592C335.657 413.869 336.158 414.008 336.723 414.008ZM341.621 418.136L341.141 417.176C341.579 417.176 341.931 417.101 342.197 416.952C342.475 416.813 342.672 416.595 342.789 416.296C342.917 416.008 342.981 415.651 342.981 415.224V406.648H344.197V415.576C344.197 416.088 344.091 416.536 343.877 416.92C343.664 417.304 343.365 417.603 342.981 417.816C342.597 418.029 342.144 418.136 341.621 418.136ZM343.605 404.84C343.317 404.84 343.093 404.765 342.933 404.616C342.773 404.456 342.693 404.243 342.693 403.976C342.693 403.709 342.773 403.496 342.933 403.336C343.093 403.176 343.317 403.096 343.605 403.096C343.893 403.096 344.117 403.176 344.277 403.336C344.437 403.485 344.517 403.699 344.517 403.976C344.517 404.232 344.437 404.44 344.277 404.6C344.117 404.76 343.893 404.84 343.605 404.84ZM349.514 415.16C348.789 415.16 348.133 414.973 347.546 414.6C346.96 414.216 346.496 413.699 346.154 413.048C345.813 412.387 345.642 411.64 345.642 410.808C345.642 409.965 345.818 409.219 346.17 408.568C346.522 407.917 346.992 407.405 347.578 407.032C348.176 406.659 348.842 406.472 349.578 406.472C350.016 406.472 350.421 406.536 350.794 406.664C351.168 406.792 351.498 406.973 351.786 407.208C352.085 407.432 352.33 407.699 352.522 408.008C352.725 408.307 352.864 408.632 352.938 408.984L352.586 408.808L352.634 406.648H353.834V415H352.618V412.952L352.938 412.744C352.864 413.064 352.72 413.373 352.506 413.672C352.293 413.96 352.032 414.216 351.722 414.44C351.424 414.664 351.082 414.84 350.698 414.968C350.325 415.096 349.93 415.16 349.514 415.16ZM349.786 414.008C350.341 414.008 350.837 413.875 351.274 413.608C351.712 413.331 352.053 412.952 352.298 412.472C352.554 411.981 352.682 411.427 352.682 410.808C352.682 410.189 352.554 409.64 352.298 409.16C352.053 408.68 351.712 408.301 351.274 408.024C350.837 407.747 350.341 407.608 349.786 407.608C349.221 407.608 348.72 407.747 348.282 408.024C347.856 408.301 347.514 408.68 347.258 409.16C347.013 409.64 346.89 410.189 346.89 410.808C346.89 411.416 347.013 411.965 347.258 412.456C347.504 412.936 347.845 413.315 348.282 413.592C348.72 413.869 349.221 414.008 349.786 414.008ZM352.506 418.376C352.218 418.376 351.952 418.307 351.706 418.168C351.461 418.04 351.264 417.859 351.114 417.624C350.976 417.4 350.906 417.144 350.906 416.856C350.906 416.589 350.96 416.339 351.066 416.104C351.184 415.88 351.344 415.667 351.546 415.464C351.76 415.272 352.016 415.096 352.314 414.936C352.624 414.765 352.976 414.611 353.37 414.472L353.834 415C353.482 415.128 353.162 415.283 352.874 415.464C352.597 415.645 352.378 415.843 352.218 416.056C352.069 416.269 351.994 416.493 351.994 416.728C351.994 416.931 352.058 417.096 352.186 417.224C352.314 417.363 352.48 417.432 352.682 417.432C352.832 417.432 352.97 417.389 353.098 417.304C353.237 417.229 353.37 417.107 353.498 416.936L354.202 417.448C354.106 417.629 353.978 417.789 353.818 417.928C353.658 418.067 353.472 418.173 353.258 418.248C353.045 418.333 352.794 418.376 352.506 418.376ZM360.017 415V406.648H361.201L361.249 408.392L361.057 408.472C361.163 408.109 361.371 407.779 361.681 407.48C361.99 407.181 362.358 406.941 362.785 406.76C363.222 406.568 363.67 406.472 364.129 406.472C364.747 406.472 365.265 406.595 365.681 406.84C366.097 407.085 366.411 407.464 366.625 407.976C366.838 408.488 366.945 409.139 366.945 409.928V415H365.729V409.992C365.729 409.437 365.654 408.984 365.505 408.632C365.366 408.269 365.147 408.003 364.849 407.832C364.55 407.661 364.182 407.581 363.745 407.592C363.382 407.592 363.046 407.656 362.737 407.784C362.427 407.901 362.161 408.067 361.937 408.28C361.713 408.493 361.537 408.739 361.409 409.016C361.281 409.293 361.217 409.592 361.217 409.912V415H360.625C360.55 415 360.465 415 360.369 415C360.273 415 360.155 415 360.017 415ZM372.179 415.16C371.454 415.16 370.798 414.973 370.211 414.6C369.625 414.216 369.161 413.699 368.819 413.048C368.478 412.387 368.307 411.64 368.307 410.808C368.307 409.965 368.483 409.219 368.835 408.568C369.187 407.917 369.657 407.405 370.243 407.032C370.841 406.659 371.507 406.472 372.243 406.472C372.681 406.472 373.086 406.536 373.459 406.664C373.833 406.792 374.163 406.973 374.451 407.208C374.75 407.432 374.995 407.699 375.187 408.008C375.39 408.307 375.529 408.632 375.603 408.984L375.251 408.808L375.299 406.648H376.499V415H375.283V412.952L375.603 412.744C375.529 413.064 375.385 413.373 375.171 413.672C374.958 413.96 374.697 414.216 374.387 414.44C374.089 414.664 373.747 414.84 373.363 414.968C372.99 415.096 372.595 415.16 372.179 415.16ZM372.451 414.008C373.006 414.008 373.502 413.875 373.939 413.608C374.377 413.331 374.718 412.952 374.963 412.472C375.219 411.981 375.347 411.427 375.347 410.808C375.347 410.189 375.219 409.64 374.963 409.16C374.718 408.68 374.377 408.301 373.939 408.024C373.502 407.747 373.006 407.608 372.451 407.608C371.886 407.608 371.385 407.747 370.947 408.024C370.521 408.301 370.179 408.68 369.923 409.16C369.678 409.64 369.555 410.189 369.555 410.808C369.555 411.416 369.678 411.965 369.923 412.456C370.169 412.936 370.51 413.315 370.947 413.592C371.385 413.869 371.886 414.008 372.451 414.008ZM382.757 415.16C382.363 415.16 381.979 415.101 381.605 414.984C381.232 414.856 380.891 414.685 380.581 414.472C380.283 414.259 380.027 414.013 379.813 413.736C379.611 413.459 379.472 413.171 379.397 412.872L379.749 412.888L379.701 414.984H378.517V403.16H379.717V408.648L379.477 408.712C379.552 408.413 379.685 408.131 379.877 407.864C380.08 407.587 380.331 407.347 380.629 407.144C380.928 406.931 381.253 406.765 381.605 406.648C381.968 406.531 382.341 406.472 382.725 406.472C383.472 406.472 384.139 406.659 384.725 407.032C385.323 407.405 385.797 407.917 386.149 408.568C386.501 409.219 386.677 409.965 386.677 410.808C386.677 411.651 386.507 412.403 386.165 413.064C385.824 413.715 385.355 414.227 384.757 414.6C384.171 414.973 383.504 415.16 382.757 415.16ZM382.565 414.024C383.131 414.024 383.632 413.885 384.069 413.608C384.507 413.32 384.848 412.936 385.093 412.456C385.349 411.965 385.477 411.416 385.477 410.808C385.477 410.189 385.349 409.64 385.093 409.16C384.848 408.68 384.507 408.301 384.069 408.024C383.632 407.747 383.131 407.608 382.565 407.608C382 407.608 381.499 407.747 381.061 408.024C380.624 408.301 380.277 408.68 380.021 409.16C379.776 409.64 379.653 410.189 379.653 410.808C379.653 411.427 379.776 411.981 380.021 412.472C380.277 412.952 380.624 413.331 381.061 413.608C381.499 413.885 382 414.024 382.565 414.024ZM391.368 415.16C390.642 415.16 389.986 414.973 389.4 414.6C388.813 414.216 388.349 413.699 388.008 413.048C387.666 412.387 387.496 411.64 387.496 410.808C387.496 409.965 387.672 409.219 388.024 408.568C388.376 407.917 388.845 407.405 389.432 407.032C390.029 406.659 390.696 406.472 391.432 406.472C391.869 406.472 392.274 406.536 392.648 406.664C393.021 406.792 393.352 406.973 393.64 407.208C393.938 407.432 394.184 407.699 394.376 408.008C394.578 408.307 394.717 408.632 394.792 408.984L394.44 408.808L394.488 406.648H395.688V415H394.472V412.952L394.792 412.744C394.717 413.064 394.573 413.373 394.36 413.672C394.146 413.96 393.885 414.216 393.576 414.44C393.277 414.664 392.936 414.84 392.552 414.968C392.178 415.096 391.784 415.16 391.368 415.16ZM391.64 414.008C392.194 414.008 392.69 413.875 393.128 413.608C393.565 413.331 393.906 412.952 394.152 412.472C394.408 411.981 394.536 411.427 394.536 410.808C394.536 410.189 394.408 409.64 394.152 409.16C393.906 408.68 393.565 408.301 393.128 408.024C392.69 407.747 392.194 407.608 391.64 407.608C391.074 407.608 390.573 407.747 390.136 408.024C389.709 408.301 389.368 408.68 389.112 409.16C388.866 409.64 388.744 410.189 388.744 410.808C388.744 411.416 388.866 411.965 389.112 412.456C389.357 412.936 389.698 413.315 390.136 413.592C390.573 413.869 391.074 414.008 391.64 414.008ZM397.242 415V413.96L401.85 407.464L401.994 407.72H397.242V406.648H403.114V407.672L398.522 414.152L398.362 413.912H403.29V415H397.242ZM405.127 415V406.648H406.327V415H405.127ZM405.719 404.84C405.421 404.84 405.191 404.765 405.031 404.616C404.882 404.456 404.807 404.243 404.807 403.976C404.807 403.709 404.887 403.496 405.047 403.336C405.207 403.176 405.431 403.096 405.719 403.096C406.007 403.096 406.231 403.176 406.391 403.336C406.551 403.485 406.631 403.699 406.631 403.976C406.631 404.232 406.551 404.44 406.391 404.6C406.231 404.76 406.007 404.84 405.719 404.84ZM412.308 415.16C411.476 415.16 410.735 414.979 410.084 414.616C409.444 414.253 408.943 413.747 408.58 413.096C408.217 412.445 408.036 411.699 408.036 410.856C408.036 410.205 408.137 409.619 408.34 409.096C408.543 408.563 408.825 408.099 409.188 407.704C409.561 407.309 410.004 407.005 410.516 406.792C411.028 406.568 411.583 406.456 412.18 406.456C412.745 406.456 413.257 406.557 413.716 406.76C414.185 406.963 414.585 407.245 414.916 407.608C415.257 407.96 415.513 408.381 415.684 408.872C415.855 409.363 415.929 409.901 415.908 410.488L415.892 411.048H408.932L408.756 410.04H414.98L414.692 410.312V409.928C414.671 409.544 414.559 409.176 414.356 408.824C414.153 408.461 413.865 408.168 413.492 407.944C413.129 407.72 412.692 407.608 412.18 407.608C411.583 407.608 411.065 407.731 410.628 407.976C410.191 408.211 409.855 408.563 409.62 409.032C409.385 409.501 409.268 410.083 409.268 410.776C409.268 411.437 409.396 412.013 409.652 412.504C409.908 412.984 410.271 413.357 410.74 413.624C411.22 413.891 411.796 414.024 412.468 414.024C412.863 414.024 413.252 413.96 413.636 413.832C414.031 413.693 414.463 413.427 414.932 413.032L415.556 413.896C415.311 414.141 415.017 414.36 414.676 414.552C414.335 414.733 413.961 414.883 413.556 415C413.151 415.107 412.735 415.16 412.308 415.16ZM425.153 415.16C424.321 415.16 423.579 414.973 422.929 414.6C422.289 414.227 421.782 413.709 421.409 413.048C421.046 412.387 420.865 411.635 420.865 410.792C420.865 409.96 421.046 409.219 421.409 408.568C421.782 407.917 422.289 407.405 422.929 407.032C423.579 406.659 424.321 406.472 425.153 406.472C425.974 406.472 426.705 406.659 427.345 407.032C427.995 407.405 428.502 407.917 428.865 408.568C429.238 409.219 429.425 409.96 429.425 410.792C429.425 411.635 429.238 412.387 428.865 413.048C428.502 413.709 427.995 414.227 427.345 414.6C426.705 414.973 425.974 415.16 425.153 415.16ZM425.153 414.024C425.739 414.024 426.262 413.885 426.721 413.608C427.179 413.32 427.537 412.936 427.793 412.456C428.049 411.965 428.177 411.411 428.177 410.792C428.177 410.173 428.049 409.624 427.793 409.144C427.537 408.664 427.179 408.291 426.721 408.024C426.262 407.747 425.739 407.608 425.153 407.608C424.566 407.608 424.038 407.747 423.569 408.024C423.11 408.291 422.747 408.669 422.481 409.16C422.225 409.64 422.102 410.184 422.113 410.792C422.102 411.411 422.225 411.965 422.481 412.456C422.747 412.936 423.11 413.32 423.569 413.608C424.038 413.885 424.566 414.024 425.153 414.024ZM434.248 415.16C433.49 415.16 432.808 414.973 432.2 414.6C431.602 414.227 431.128 413.715 430.776 413.064C430.434 412.403 430.264 411.656 430.264 410.824C430.264 409.981 430.44 409.235 430.792 408.584C431.144 407.923 431.618 407.405 432.216 407.032C432.813 406.659 433.485 406.472 434.232 406.472C434.648 406.472 435.048 406.536 435.432 406.664C435.826 406.792 436.178 406.973 436.488 407.208C436.797 407.432 437.053 407.693 437.256 407.992C437.458 408.28 437.581 408.584 437.624 408.904L437.256 408.776V403.16H438.456V415H437.272L437.24 412.92L437.544 412.808C437.501 413.107 437.378 413.4 437.176 413.688C436.984 413.965 436.738 414.216 436.44 414.44C436.141 414.664 435.8 414.84 435.416 414.968C435.042 415.096 434.653 415.16 434.248 415.16ZM434.424 414.056C434.978 414.056 435.474 413.917 435.912 413.64C436.349 413.363 436.69 412.979 436.936 412.488C437.192 411.997 437.32 411.437 437.32 410.808C437.32 410.179 437.192 409.624 436.936 409.144C436.69 408.653 436.349 408.269 435.912 407.992C435.474 407.704 434.978 407.56 434.424 407.56C433.848 407.56 433.341 407.704 432.904 407.992C432.477 408.269 432.136 408.653 431.88 409.144C431.634 409.624 431.512 410.179 431.512 410.808C431.512 411.427 431.634 411.981 431.88 412.472C432.125 412.963 432.466 413.352 432.904 413.64C433.341 413.917 433.848 414.056 434.424 414.056ZM440.473 415V406.648H441.673L441.705 408.872L441.577 408.568C441.694 408.195 441.881 407.848 442.137 407.528C442.404 407.208 442.718 406.952 443.081 406.76C443.444 406.568 443.844 406.472 444.281 406.472C444.462 406.472 444.633 406.488 444.793 406.52C444.953 406.541 445.086 406.573 445.193 406.616L444.857 407.96C444.718 407.896 444.574 407.853 444.425 407.832C444.286 407.8 444.153 407.784 444.025 407.784C443.662 407.784 443.337 407.848 443.049 407.976C442.761 408.104 442.516 408.285 442.313 408.52C442.11 408.744 441.956 409.005 441.849 409.304C441.742 409.603 441.689 409.923 441.689 410.264V415H440.473ZM450.674 418.376C450.173 418.376 449.768 418.232 449.458 417.944C449.16 417.656 449.01 417.288 449.01 416.84C449.01 416.424 449.122 416.045 449.346 415.704C449.581 415.373 449.896 415.064 450.29 414.776C450.696 414.477 451.16 414.189 451.682 413.912L452.05 414.392C451.421 414.755 450.936 415.117 450.594 415.48C450.264 415.853 450.098 416.237 450.098 416.632C450.098 416.877 450.168 417.069 450.306 417.208C450.445 417.357 450.626 417.432 450.85 417.432C451 417.432 451.138 417.389 451.266 417.304C451.394 417.229 451.528 417.107 451.666 416.936L452.37 417.448C452.253 417.629 452.109 417.789 451.938 417.928C451.778 418.067 451.592 418.173 451.378 418.248C451.165 418.333 450.93 418.376 450.674 418.376ZM449.442 415.16C448.61 415.16 447.869 414.979 447.218 414.616C446.578 414.253 446.077 413.747 445.714 413.096C445.352 412.445 445.17 411.699 445.17 410.856C445.17 410.205 445.272 409.619 445.474 409.096C445.677 408.563 445.96 408.099 446.322 407.704C446.696 407.309 447.138 407.005 447.65 406.792C448.162 406.568 448.717 406.456 449.314 406.456C449.88 406.456 450.392 406.557 450.85 406.76C451.32 406.963 451.72 407.245 452.05 407.608C452.392 407.96 452.648 408.381 452.818 408.872C452.989 409.363 453.064 409.901 453.042 410.488L453.026 411.048H446.066L445.89 410.04H452.114L451.826 410.312V409.928C451.805 409.544 451.693 409.176 451.49 408.824C451.288 408.461 451 408.168 450.626 407.944C450.264 407.72 449.826 407.608 449.314 407.608C448.717 407.608 448.2 407.731 447.762 407.976C447.325 408.211 446.989 408.563 446.754 409.032C446.52 409.501 446.402 410.083 446.402 410.776C446.402 411.437 446.53 412.013 446.786 412.504C447.042 412.984 447.405 413.357 447.874 413.624C448.354 413.891 448.93 414.024 449.602 414.024C449.997 414.024 450.386 413.96 450.77 413.832C451.165 413.693 451.597 413.427 452.066 413.032L452.69 413.896C452.445 414.141 452.152 414.36 451.81 414.552C451.469 414.733 451.096 414.883 450.69 415C450.285 415.107 449.869 415.16 449.442 415.16ZM457.947 415.16C457.157 415.16 456.453 414.973 455.835 414.6C455.216 414.216 454.725 413.699 454.363 413.048C454.011 412.387 453.835 411.64 453.835 410.808C453.835 409.976 454.011 409.235 454.363 408.584C454.725 407.923 455.216 407.405 455.835 407.032C456.453 406.659 457.163 406.472 457.963 406.472C458.677 406.472 459.328 406.616 459.915 406.904C460.501 407.181 460.971 407.571 461.323 408.072L460.619 408.936C460.416 408.669 460.171 408.435 459.883 408.232C459.605 408.029 459.301 407.875 458.971 407.768C458.651 407.651 458.331 407.592 458.011 407.592C457.445 407.592 456.939 407.736 456.491 408.024C456.043 408.301 455.685 408.68 455.419 409.16C455.163 409.64 455.035 410.189 455.035 410.808C455.035 411.427 455.163 411.981 455.419 412.472C455.685 412.952 456.043 413.331 456.491 413.608C456.939 413.885 457.44 414.024 457.995 414.024C458.315 414.024 458.629 413.976 458.939 413.88C459.248 413.773 459.541 413.624 459.819 413.432C460.096 413.24 460.352 413 460.587 412.712L461.291 413.576C460.928 414.056 460.443 414.44 459.835 414.728C459.227 415.016 458.597 415.16 457.947 415.16ZM462.065 415V413.96L466.673 407.464L466.817 407.72H462.065V406.648H467.937V407.672L463.345 414.152L463.185 413.912H468.113V415H462.065ZM469.63 415V406.648H470.814L470.862 408.392L470.67 408.472C470.777 408.109 470.985 407.779 471.294 407.48C471.604 407.181 471.972 406.941 472.398 406.76C472.836 406.568 473.284 406.472 473.742 406.472C474.361 406.472 474.878 406.595 475.294 406.84C475.71 407.085 476.025 407.464 476.238 407.976C476.452 408.488 476.558 409.139 476.558 409.928V415H475.342V409.992C475.342 409.437 475.268 408.984 475.118 408.632C474.98 408.269 474.761 408.003 474.462 407.832C474.164 407.661 473.796 407.581 473.358 407.592C472.996 407.592 472.66 407.656 472.35 407.784C472.041 407.901 471.774 408.067 471.55 408.28C471.326 408.493 471.15 408.739 471.022 409.016C470.894 409.293 470.83 409.592 470.83 409.912V415H470.238C470.164 415 470.078 415 469.982 415C469.886 415 469.769 415 469.63 415ZM479.859 418.68L481.475 414.744L481.587 415.88L477.395 406.648H478.755L481.619 413.048C481.704 413.219 481.79 413.421 481.875 413.656C481.96 413.88 482.04 414.104 482.115 414.328L481.667 414.28C481.742 414.099 481.811 413.912 481.875 413.72C481.95 413.528 482.019 413.341 482.083 413.16L484.595 406.648H485.971L482.595 415L481.155 418.68H479.859ZM490.276 415.16C489.487 415.16 488.783 414.973 488.164 414.6C487.545 414.216 487.055 413.699 486.692 413.048C486.34 412.387 486.164 411.64 486.164 410.808C486.164 409.976 486.34 409.235 486.692 408.584C487.055 407.923 487.545 407.405 488.164 407.032C488.783 406.659 489.492 406.472 490.292 406.472C491.007 406.472 491.657 406.616 492.244 406.904C492.831 407.181 493.3 407.571 493.652 408.072L492.948 408.936C492.745 408.669 492.5 408.435 492.212 408.232C491.935 408.029 491.631 407.875 491.3 407.768C490.98 407.651 490.66 407.592 490.34 407.592C489.775 407.592 489.268 407.736 488.82 408.024C488.372 408.301 488.015 408.68 487.748 409.16C487.492 409.64 487.364 410.189 487.364 410.808C487.364 411.427 487.492 411.981 487.748 412.472C488.015 412.952 488.372 413.331 488.82 413.608C489.268 413.885 489.769 414.024 490.324 414.024C490.644 414.024 490.959 413.976 491.268 413.88C491.577 413.773 491.871 413.624 492.148 413.432C492.425 413.24 492.681 413 492.916 412.712L493.62 413.576C493.257 414.056 492.772 414.44 492.164 414.728C491.556 415.016 490.927 415.16 490.276 415.16ZM494.858 415V403.16H496.058V408.472L495.818 408.712C495.935 408.275 496.154 407.891 496.474 407.56C496.794 407.219 497.167 406.952 497.594 406.76C498.031 406.568 498.474 406.472 498.922 406.472C499.562 406.472 500.095 406.595 500.522 406.84C500.949 407.085 501.263 407.464 501.466 407.976C501.679 408.488 501.786 409.139 501.786 409.928V415H500.57V409.992C500.57 409.437 500.495 408.984 500.346 408.632C500.207 408.269 499.989 408.003 499.69 407.832C499.391 407.661 499.018 407.581 498.57 407.592C498.218 407.592 497.887 407.656 497.578 407.784C497.269 407.901 497.002 408.067 496.778 408.28C496.554 408.493 496.378 408.739 496.25 409.016C496.122 409.293 496.058 409.592 496.058 409.912V415H495.466C495.391 415 495.306 415 495.21 415C495.114 415 494.997 415 494.858 415ZM507.921 415V406.648H509.121L509.153 408.872L509.025 408.568C509.142 408.195 509.329 407.848 509.585 407.528C509.852 407.208 510.166 406.952 510.529 406.76C510.892 406.568 511.292 406.472 511.729 406.472C511.91 406.472 512.081 406.488 512.241 406.52C512.401 406.541 512.534 406.573 512.641 406.616L512.305 407.96C512.166 407.896 512.022 407.853 511.873 407.832C511.734 407.8 511.601 407.784 511.473 407.784C511.11 407.784 510.785 407.848 510.497 407.976C510.209 408.104 509.964 408.285 509.761 408.52C509.558 408.744 509.404 409.005 509.297 409.304C509.19 409.603 509.137 409.923 509.137 410.264V415H507.921ZM514.978 418.68L516.594 414.744L516.706 415.88L512.514 406.648H513.874L516.738 413.048C516.823 413.219 516.909 413.421 516.994 413.656C517.079 413.88 517.159 414.104 517.234 414.328L516.786 414.28C516.861 414.099 516.93 413.912 516.994 413.72C517.069 413.528 517.138 413.341 517.202 413.16L519.714 406.648H521.09L517.714 415L516.274 418.68H514.978ZM524.611 415.16C523.896 415.16 523.256 415.027 522.691 414.76C522.126 414.493 521.678 414.141 521.347 413.704L522.195 412.968C522.504 413.341 522.867 413.624 523.283 413.816C523.71 414.008 524.184 414.104 524.707 414.104C524.974 414.104 525.214 414.077 525.427 414.024C525.64 413.96 525.827 413.869 525.987 413.752C526.147 413.635 526.27 413.496 526.355 413.336C526.44 413.176 526.483 413 526.483 412.808C526.483 412.456 526.328 412.163 526.019 411.928C525.88 411.832 525.683 411.736 525.427 411.64C525.171 411.533 524.862 411.432 524.499 411.336C523.902 411.165 523.406 410.995 523.011 410.824C522.616 410.643 522.307 410.435 522.083 410.2C521.923 410.008 521.8 409.8 521.715 409.576C521.64 409.352 521.603 409.107 521.603 408.84C521.603 408.499 521.672 408.184 521.811 407.896C521.96 407.608 522.163 407.357 522.419 407.144C522.686 406.92 522.995 406.755 523.347 406.648C523.71 406.531 524.099 406.472 524.515 406.472C524.91 406.472 525.299 406.525 525.683 406.632C526.067 406.739 526.424 406.893 526.755 407.096C527.086 407.299 527.368 407.539 527.603 407.816L526.867 408.616C526.664 408.403 526.44 408.211 526.195 408.04C525.95 407.869 525.688 407.736 525.411 407.64C525.144 407.544 524.867 407.496 524.579 407.496C524.323 407.496 524.083 407.528 523.859 407.592C523.646 407.656 523.459 407.747 523.299 407.864C523.15 407.971 523.032 408.104 522.947 408.264C522.872 408.424 522.835 408.6 522.835 408.792C522.835 408.952 522.867 409.096 522.931 409.224C522.995 409.352 523.086 409.464 523.203 409.56C523.352 409.677 523.56 409.789 523.827 409.896C524.104 409.992 524.446 410.093 524.851 410.2C525.32 410.328 525.715 410.461 526.035 410.6C526.366 410.728 526.638 410.883 526.851 411.064C527.139 411.277 527.342 411.523 527.459 411.8C527.587 412.077 527.651 412.392 527.651 412.744C527.651 413.213 527.518 413.629 527.251 413.992C526.995 414.355 526.638 414.643 526.179 414.856C525.72 415.059 525.198 415.16 524.611 415.16ZM532.171 415.16C531.531 415.16 530.987 415.032 530.539 414.776C530.102 414.509 529.766 414.125 529.531 413.624C529.307 413.123 529.195 412.499 529.195 411.752V406.648H530.411V411.512C530.411 412.077 530.486 412.552 530.635 412.936C530.795 413.309 531.03 413.592 531.339 413.784C531.659 413.976 532.048 414.072 532.507 414.072C532.859 414.072 533.184 414.013 533.483 413.896C533.782 413.768 534.043 413.597 534.267 413.384C534.491 413.171 534.667 412.92 534.795 412.632C534.923 412.344 534.987 412.04 534.987 411.72V406.648H536.187V415H535.003L534.955 413.24L535.147 413.144C535.019 413.517 534.806 413.859 534.507 414.168C534.208 414.467 533.851 414.707 533.435 414.888C533.03 415.069 532.608 415.16 532.171 415.16ZM538.204 415V406.648H539.388L539.436 408.392L539.244 408.472C539.35 408.109 539.558 407.779 539.868 407.48C540.177 407.181 540.545 406.941 540.972 406.76C541.409 406.568 541.857 406.472 542.316 406.472C542.934 406.472 543.452 406.595 543.868 406.84C544.284 407.085 544.598 407.464 544.812 407.976C545.025 408.488 545.132 409.139 545.132 409.928V415H543.916V409.992C543.916 409.437 543.841 408.984 543.692 408.632C543.553 408.269 543.334 408.003 543.036 407.832C542.737 407.661 542.369 407.581 541.932 407.592C541.569 407.592 541.233 407.656 540.924 407.784C540.614 407.901 540.348 408.067 540.124 408.28C539.9 408.493 539.724 408.739 539.596 409.016C539.468 409.293 539.404 409.592 539.404 409.912V415H538.812C538.737 415 538.652 415 538.556 415C538.46 415 538.342 415 538.204 415ZM548.174 412.312L548.126 410.92L552.494 406.648H554.11L548.174 412.312ZM547.102 415V403.16H548.302V415H547.102ZM552.83 415L549.31 410.92L550.158 410.088L554.398 415H552.83ZM558.728 415.16C557.896 415.16 557.155 414.973 556.504 414.6C555.864 414.227 555.358 413.709 554.984 413.048C554.622 412.387 554.44 411.635 554.44 410.792C554.44 409.96 554.622 409.219 554.984 408.568C555.358 407.917 555.864 407.405 556.504 407.032C557.155 406.659 557.896 406.472 558.728 406.472C559.55 406.472 560.28 406.659 560.92 407.032C561.571 407.405 562.078 407.917 562.44 408.568C562.814 409.219 563 409.96 563 410.792C563 411.635 562.814 412.387 562.44 413.048C562.078 413.709 561.571 414.227 560.92 414.6C560.28 414.973 559.55 415.16 558.728 415.16ZM558.728 414.024C559.315 414.024 559.838 413.885 560.296 413.608C560.755 413.32 561.112 412.936 561.368 412.456C561.624 411.965 561.752 411.411 561.752 410.792C561.752 410.173 561.624 409.624 561.368 409.144C561.112 408.664 560.755 408.291 560.296 408.024C559.838 407.747 559.315 407.608 558.728 407.608C558.142 407.608 557.614 407.747 557.144 408.024C556.686 408.291 556.323 408.669 556.056 409.16C555.8 409.64 555.678 410.184 555.688 410.792C555.678 411.411 555.8 411.965 556.056 412.456C556.323 412.936 556.686 413.32 557.144 413.608C557.614 413.885 558.142 414.024 558.728 414.024ZM557.72 405.416L557.288 404.76L559.56 402.856L560.344 403.864L557.72 405.416ZM566.087 415L563.191 406.648L564.471 406.632L566.727 413.432L566.327 413.4L568.775 407.928H569.495L571.959 413.4L571.479 413.432L573.783 406.648H575.047L572.151 415H571.447L568.855 409.048L569.335 409.08L566.823 415H566.087Z" fill="white"/>
<path d="M67.74 384.3C67.02 384.3 66.34 384.21 65.7 384.03C65.06 383.85 64.47 383.6 63.93 383.28C63.39 382.94 62.91 382.54 62.49 382.08C62.07 381.6 61.7 381.07 61.38 380.49L63.75 378.06C64.11 378.58 64.45 379.01 64.77 379.35C65.09 379.69 65.39 379.95 65.67 380.13C65.97 380.31 66.27 380.44 66.57 380.52C66.89 380.6 67.21 380.64 67.53 380.64C68.17 380.64 68.73 380.5 69.21 380.22C69.69 379.92 70.06 379.51 70.32 378.99C70.6 378.47 70.74 377.88 70.74 377.22V366.51H66.87V363H77.82V366.51H74.58V377.61C74.58 378.59 74.41 379.49 74.07 380.31C73.73 381.11 73.25 381.81 72.63 382.41C72.03 383.01 71.31 383.48 70.47 383.82C69.65 384.14 68.74 384.3 67.74 384.3ZM85.5476 384.3C84.2476 384.3 83.0676 383.94 82.0076 383.22C80.9476 382.5 80.0976 381.52 79.4576 380.28C78.8176 379.04 78.4976 377.63 78.4976 376.05C78.4976 374.47 78.8176 373.06 79.4576 371.82C80.0976 370.58 80.9676 369.61 82.0676 368.91C83.1676 368.21 84.4076 367.86 85.7876 367.86C86.5876 367.86 87.3176 367.98 87.9776 368.22C88.6376 368.44 89.2176 368.76 89.7176 369.18C90.2176 369.6 90.6276 370.08 90.9476 370.62C91.2876 371.16 91.5176 371.74 91.6376 372.36L90.8276 372.15V368.19H94.5476V384H90.7976V380.22L91.6676 380.07C91.5276 380.61 91.2676 381.14 90.8876 381.66C90.5276 382.16 90.0676 382.61 89.5076 383.01C88.9676 383.39 88.3576 383.7 87.6776 383.94C87.0176 384.18 86.3076 384.3 85.5476 384.3ZM86.5676 381.03C87.4276 381.03 88.1876 380.82 88.8476 380.4C89.5076 379.98 90.0176 379.4 90.3776 378.66C90.7576 377.9 90.9476 377.03 90.9476 376.05C90.9476 375.09 90.7576 374.24 90.3776 373.5C90.0176 372.76 89.5076 372.18 88.8476 371.76C88.1876 371.34 87.4276 371.13 86.5676 371.13C85.7076 371.13 84.9476 371.34 84.2876 371.76C83.6476 372.18 83.1476 372.76 82.7876 373.5C82.4276 374.24 82.2476 375.09 82.2476 376.05C82.2476 377.03 82.4276 377.9 82.7876 378.66C83.1476 379.4 83.6476 379.98 84.2876 380.4C84.9476 380.82 85.7076 381.03 86.5676 381.03ZM98.2256 390.6V368.19H101.856L101.916 371.79L101.286 371.52C101.406 370.9 101.746 370.32 102.306 369.78C102.866 369.22 103.546 368.77 104.346 368.43C105.166 368.09 106.016 367.92 106.896 367.92C108.296 367.92 109.536 368.27 110.616 368.97C111.716 369.67 112.576 370.63 113.196 371.85C113.836 373.07 114.156 374.48 114.156 376.08C114.156 377.66 113.836 379.07 113.196 380.31C112.576 381.53 111.716 382.5 110.616 383.22C109.536 383.92 108.316 384.27 106.956 384.27C106.036 384.27 105.146 384.09 104.286 383.73C103.446 383.37 102.726 382.9 102.126 382.32C101.546 381.74 101.186 381.13 101.046 380.49L101.946 380.07V390.6H98.2256ZM106.206 381C107.046 381 107.796 380.79 108.456 380.37C109.116 379.95 109.626 379.37 109.986 378.63C110.366 377.89 110.556 377.04 110.556 376.08C110.556 375.12 110.376 374.28 110.016 373.56C109.656 372.82 109.146 372.24 108.486 371.82C107.826 371.4 107.066 371.19 106.206 371.19C105.326 371.19 104.556 371.4 103.896 371.82C103.256 372.22 102.746 372.79 102.366 373.53C101.986 374.27 101.796 375.12 101.796 376.08C101.796 377.04 101.986 377.89 102.366 378.63C102.746 379.37 103.256 379.95 103.896 380.37C104.556 380.79 105.326 381 106.206 381ZM117.264 384V368.19H120.954V384H117.264ZM119.064 364.83C118.324 364.83 117.744 364.65 117.324 364.29C116.924 363.91 116.724 363.38 116.724 362.7C116.724 362.06 116.934 361.54 117.354 361.14C117.774 360.74 118.344 360.54 119.064 360.54C119.824 360.54 120.404 360.73 120.804 361.11C121.224 361.47 121.434 362 121.434 362.7C121.434 363.32 121.224 363.83 120.804 364.23C120.384 364.63 119.804 364.83 119.064 364.83ZM132.443 384.3C130.783 384.3 129.313 383.95 128.033 383.25C126.773 382.55 125.783 381.6 125.063 380.4C124.363 379.18 124.013 377.79 124.013 376.23C124.013 374.99 124.213 373.86 124.613 372.84C125.013 371.82 125.563 370.94 126.263 370.2C126.983 369.44 127.833 368.86 128.813 368.46C129.813 368.04 130.903 367.83 132.083 367.83C133.123 367.83 134.093 368.03 134.993 368.43C135.893 368.83 136.673 369.38 137.333 370.08C137.993 370.76 138.493 371.58 138.833 372.54C139.193 373.48 139.363 374.51 139.343 375.63L139.313 376.92H126.503L125.813 374.4H136.223L135.743 374.91V374.25C135.683 373.63 135.483 373.09 135.143 372.63C134.803 372.15 134.363 371.78 133.823 371.52C133.303 371.24 132.723 371.1 132.083 371.1C131.103 371.1 130.273 371.29 129.593 371.67C128.933 372.05 128.433 372.6 128.093 373.32C127.753 374.02 127.583 374.9 127.583 375.96C127.583 376.98 127.793 377.87 128.213 378.63C128.653 379.39 129.263 379.98 130.043 380.4C130.843 380.8 131.773 381 132.833 381C133.573 381 134.253 380.88 134.873 380.64C135.493 380.4 136.163 379.97 136.883 379.35L138.713 381.9C138.173 382.4 137.553 382.83 136.853 383.19C136.173 383.53 135.453 383.8 134.693 384C133.933 384.2 133.183 384.3 132.443 384.3ZM142.012 384V368.19H145.642L145.702 373.23L145.192 372.09C145.412 371.29 145.792 370.57 146.332 369.93C146.872 369.29 147.492 368.79 148.192 368.43C148.912 368.05 149.662 367.86 150.442 367.86C150.782 367.86 151.102 367.89 151.402 367.95C151.722 368.01 151.982 368.08 152.182 368.16L151.192 372.21C150.972 372.09 150.702 371.99 150.382 371.91C150.062 371.83 149.742 371.79 149.422 371.79C148.922 371.79 148.442 371.89 147.982 372.09C147.542 372.27 147.152 372.53 146.812 372.87C146.472 373.21 146.202 373.61 146.002 374.07C145.822 374.51 145.732 375.01 145.732 375.57V384H142.012ZM162.917 384V363H171.647C172.847 363 173.927 363.29 174.887 363.87C175.867 364.45 176.647 365.24 177.227 366.24C177.807 367.24 178.097 368.36 178.097 369.6C178.097 370.86 177.807 372 177.227 373.02C176.647 374.02 175.867 374.82 174.887 375.42C173.927 376.02 172.847 376.32 171.647 376.32H166.817V384H162.917ZM166.817 372.72H171.377C171.877 372.72 172.327 372.58 172.727 372.3C173.147 372.02 173.477 371.65 173.717 371.19C173.977 370.73 174.107 370.21 174.107 369.63C174.107 369.05 173.977 368.54 173.717 368.1C173.477 367.64 173.147 367.28 172.727 367.02C172.327 366.74 171.877 366.6 171.377 366.6H166.817V372.72ZM186.641 384.3C185.341 384.3 184.161 383.94 183.101 383.22C182.041 382.5 181.191 381.52 180.551 380.28C179.911 379.04 179.591 377.63 179.591 376.05C179.591 374.47 179.911 373.06 180.551 371.82C181.191 370.58 182.061 369.61 183.161 368.91C184.261 368.21 185.501 367.86 186.881 367.86C187.681 367.86 188.411 367.98 189.071 368.22C189.731 368.44 190.311 368.76 190.811 369.18C191.311 369.6 191.721 370.08 192.041 370.62C192.381 371.16 192.611 371.74 192.731 372.36L191.921 372.15V368.19H195.641V384H191.891V380.22L192.761 380.07C192.621 380.61 192.361 381.14 191.981 381.66C191.621 382.16 191.161 382.61 190.601 383.01C190.061 383.39 189.451 383.7 188.771 383.94C188.111 384.18 187.401 384.3 186.641 384.3ZM187.661 381.03C188.521 381.03 189.281 380.82 189.941 380.4C190.601 379.98 191.111 379.4 191.471 378.66C191.851 377.9 192.041 377.03 192.041 376.05C192.041 375.09 191.851 374.24 191.471 373.5C191.111 372.76 190.601 372.18 189.941 371.76C189.281 371.34 188.521 371.13 187.661 371.13C186.801 371.13 186.041 371.34 185.381 371.76C184.741 372.18 184.241 372.76 183.881 373.5C183.521 374.24 183.341 375.09 183.341 376.05C183.341 377.03 183.521 377.9 183.881 378.66C184.241 379.4 184.741 379.98 185.381 380.4C186.041 380.82 186.801 381.03 187.661 381.03ZM199.319 390.6V368.19H202.949L203.009 371.79L202.379 371.52C202.499 370.9 202.839 370.32 203.399 369.78C203.959 369.22 204.639 368.77 205.439 368.43C206.259 368.09 207.109 367.92 207.989 367.92C209.389 367.92 210.629 368.27 211.709 368.97C212.809 369.67 213.669 370.63 214.289 371.85C214.929 373.07 215.249 374.48 215.249 376.08C215.249 377.66 214.929 379.07 214.289 380.31C213.669 381.53 212.809 382.5 211.709 383.22C210.629 383.92 209.409 384.27 208.049 384.27C207.129 384.27 206.239 384.09 205.379 383.73C204.539 383.37 203.819 382.9 203.219 382.32C202.639 381.74 202.279 381.13 202.139 380.49L203.039 380.07V390.6H199.319ZM207.299 381C208.139 381 208.889 380.79 209.549 380.37C210.209 379.95 210.719 379.37 211.079 378.63C211.459 377.89 211.649 377.04 211.649 376.08C211.649 375.12 211.469 374.28 211.109 373.56C210.749 372.82 210.239 372.24 209.579 371.82C208.919 371.4 208.159 371.19 207.299 371.19C206.419 371.19 205.649 371.4 204.989 371.82C204.349 372.22 203.839 372.79 203.459 373.53C203.079 374.27 202.889 375.12 202.889 376.08C202.889 377.04 203.079 377.89 203.459 378.63C203.839 379.37 204.349 379.95 204.989 380.37C205.649 380.79 206.419 381 207.299 381ZM218.357 384V368.19H222.047V384H218.357ZM220.157 364.83C219.417 364.83 218.837 364.65 218.417 364.29C218.017 363.91 217.817 363.38 217.817 362.7C217.817 362.06 218.027 361.54 218.447 361.14C218.867 360.74 219.437 360.54 220.157 360.54C220.917 360.54 221.497 360.73 221.897 361.11C222.317 361.47 222.527 362 222.527 362.7C222.527 363.32 222.317 363.83 221.897 364.23C221.477 364.63 220.897 364.83 220.157 364.83ZM233.536 384.3C231.876 384.3 230.406 383.95 229.126 383.25C227.866 382.55 226.876 381.6 226.156 380.4C225.456 379.18 225.106 377.79 225.106 376.23C225.106 374.99 225.306 373.86 225.706 372.84C226.106 371.82 226.656 370.94 227.356 370.2C228.076 369.44 228.926 368.86 229.906 368.46C230.906 368.04 231.996 367.83 233.176 367.83C234.216 367.83 235.186 368.03 236.086 368.43C236.986 368.83 237.766 369.38 238.426 370.08C239.086 370.76 239.586 371.58 239.926 372.54C240.286 373.48 240.456 374.51 240.436 375.63L240.406 376.92H227.596L226.906 374.4H237.316L236.836 374.91V374.25C236.776 373.63 236.576 373.09 236.236 372.63C235.896 372.15 235.456 371.78 234.916 371.52C234.396 371.24 233.816 371.1 233.176 371.1C232.196 371.1 231.366 371.29 230.686 371.67C230.026 372.05 229.526 372.6 229.186 373.32C228.846 374.02 228.676 374.9 228.676 375.96C228.676 376.98 228.886 377.87 229.306 378.63C229.746 379.39 230.356 379.98 231.136 380.4C231.936 380.8 232.866 381 233.926 381C234.666 381 235.346 380.88 235.966 380.64C236.586 380.4 237.256 379.97 237.976 379.35L239.806 381.9C239.266 382.4 238.646 382.83 237.946 383.19C237.266 383.53 236.546 383.8 235.786 384C235.026 384.2 234.276 384.3 233.536 384.3ZM243.105 384V368.19H246.735L246.795 373.23L246.285 372.09C246.505 371.29 246.885 370.57 247.425 369.93C247.965 369.29 248.585 368.79 249.285 368.43C250.005 368.05 250.755 367.86 251.535 367.86C251.875 367.86 252.195 367.89 252.495 367.95C252.815 368.01 253.075 368.08 253.275 368.16L252.285 372.21C252.065 372.09 251.795 371.99 251.475 371.91C251.155 371.83 250.835 371.79 250.515 371.79C250.015 371.79 249.535 371.89 249.075 372.09C248.635 372.27 248.245 372.53 247.905 372.87C247.565 373.21 247.295 373.61 247.095 374.07C246.915 374.51 246.825 375.01 246.825 375.57V384H243.105Z" fill="white"/>
<rect x="60.5" y="445.5" width="212" height="60" rx="30" fill="#FCCC51"/>
<rect x="60.5" y="445.5" width="212" height="60" rx="30" stroke="#FCCC51"/>
<path d="M101.9 481V479.815L107.885 471.805L108.11 472.06H102.29V470.5H109.895V471.67L103.94 479.695L103.7 479.44H110.06V481H101.9ZM115.134 481.15C114.364 481.15 113.674 480.975 113.064 480.625C112.464 480.265 111.989 479.78 111.639 479.17C111.289 478.55 111.114 477.845 111.114 477.055C111.114 476.265 111.289 475.565 111.639 474.955C111.989 474.335 112.464 473.85 113.064 473.5C113.674 473.14 114.364 472.96 115.134 472.96C115.894 472.96 116.574 473.14 117.174 473.5C117.784 473.85 118.264 474.335 118.614 474.955C118.964 475.565 119.139 476.265 119.139 477.055C119.139 477.845 118.964 478.55 118.614 479.17C118.264 479.78 117.784 480.265 117.174 480.625C116.574 480.975 115.894 481.15 115.134 481.15ZM115.134 479.74C115.604 479.74 116.024 479.625 116.394 479.395C116.764 479.155 117.054 478.835 117.264 478.435C117.474 478.025 117.574 477.565 117.564 477.055C117.574 476.535 117.474 476.075 117.264 475.675C117.054 475.265 116.764 474.945 116.394 474.715C116.024 474.485 115.604 474.37 115.134 474.37C114.664 474.37 114.239 474.49 113.859 474.73C113.489 474.96 113.199 475.28 112.989 475.69C112.779 476.09 112.679 476.545 112.689 477.055C112.679 477.565 112.779 478.025 112.989 478.435C113.199 478.835 113.489 479.155 113.859 479.395C114.239 479.625 114.664 479.74 115.134 479.74ZM124.663 481.15C124.323 481.15 123.983 481.095 123.643 480.985C123.313 480.875 123.008 480.73 122.728 480.55C122.458 480.36 122.228 480.155 122.038 479.935C121.858 479.705 121.738 479.475 121.678 479.245L122.068 479.035V480.955H120.523V469.9H122.068V474.925L121.828 474.79C121.878 474.56 121.988 474.34 122.158 474.13C122.328 473.91 122.543 473.715 122.803 473.545C123.073 473.365 123.363 473.225 123.673 473.125C123.983 473.015 124.298 472.96 124.618 472.96C125.328 472.96 125.958 473.135 126.508 473.485C127.058 473.835 127.493 474.32 127.813 474.94C128.133 475.55 128.293 476.25 128.293 477.04C128.293 477.83 128.133 478.535 127.813 479.155C127.503 479.775 127.073 480.265 126.523 480.625C125.973 480.975 125.353 481.15 124.663 481.15ZM124.408 479.74C124.868 479.74 125.278 479.625 125.638 479.395C125.998 479.155 126.283 478.835 126.493 478.435C126.703 478.025 126.808 477.56 126.808 477.04C126.808 476.53 126.703 476.075 126.493 475.675C126.293 475.265 126.013 474.945 125.653 474.715C125.293 474.485 124.878 474.37 124.408 474.37C123.938 474.37 123.523 474.485 123.163 474.715C122.803 474.945 122.518 475.265 122.308 475.675C122.098 476.075 121.993 476.53 121.993 477.04C121.993 477.56 122.098 478.025 122.308 478.435C122.518 478.835 122.803 479.155 123.163 479.395C123.523 479.625 123.938 479.74 124.408 479.74ZM132.701 481.15C132.051 481.15 131.456 480.97 130.916 480.61C130.386 480.25 129.961 479.76 129.641 479.14C129.321 478.52 129.161 477.82 129.161 477.04C129.161 476.25 129.321 475.55 129.641 474.94C129.971 474.32 130.411 473.835 130.961 473.485C131.521 473.135 132.146 472.96 132.836 472.96C133.246 472.96 133.621 473.02 133.961 473.14C134.301 473.26 134.596 473.43 134.846 473.65C135.106 473.86 135.316 474.105 135.476 474.385C135.646 474.665 135.751 474.965 135.791 475.285L135.446 475.165V473.125H137.006V481H135.446V479.125L135.806 479.02C135.746 479.29 135.621 479.555 135.431 479.815C135.251 480.065 135.016 480.29 134.726 480.49C134.446 480.69 134.131 480.85 133.781 480.97C133.441 481.09 133.081 481.15 132.701 481.15ZM133.106 479.725C133.576 479.725 133.991 479.61 134.351 479.38C134.711 479.15 134.991 478.835 135.191 478.435C135.401 478.025 135.506 477.56 135.506 477.04C135.506 476.53 135.401 476.075 135.191 475.675C134.991 475.275 134.711 474.96 134.351 474.73C133.991 474.5 133.576 474.385 133.106 474.385C132.646 474.385 132.236 474.5 131.876 474.73C131.526 474.96 131.246 475.275 131.036 475.675C130.836 476.075 130.736 476.53 130.736 477.04C130.736 477.56 130.836 478.025 131.036 478.435C131.246 478.835 131.526 479.15 131.876 479.38C132.236 479.61 132.646 479.725 133.106 479.725ZM142.208 481.15C141.478 481.15 140.823 480.97 140.243 480.61C139.673 480.25 139.218 479.76 138.878 479.14C138.548 478.52 138.383 477.825 138.383 477.055C138.383 476.285 138.548 475.59 138.878 474.97C139.218 474.35 139.673 473.86 140.243 473.5C140.823 473.14 141.478 472.96 142.208 472.96C142.908 472.96 143.543 473.105 144.113 473.395C144.693 473.675 145.133 474.06 145.433 474.55L144.578 475.6C144.418 475.37 144.213 475.16 143.963 474.97C143.713 474.78 143.448 474.63 143.168 474.52C142.888 474.41 142.618 474.355 142.358 474.355C141.878 474.355 141.448 474.475 141.068 474.715C140.698 474.945 140.403 475.265 140.183 475.675C139.963 476.085 139.853 476.545 139.853 477.055C139.853 477.565 139.968 478.025 140.198 478.435C140.428 478.835 140.733 479.155 141.113 479.395C141.493 479.635 141.913 479.755 142.373 479.755C142.643 479.755 142.903 479.71 143.153 479.62C143.413 479.53 143.663 479.395 143.903 479.215C144.143 479.035 144.368 478.815 144.578 478.555L145.433 479.605C145.113 480.055 144.653 480.425 144.053 480.715C143.463 481.005 142.848 481.15 142.208 481.15ZM146.261 481V479.71L150.326 474.28V474.46H146.261V473.125H152.006V474.385L148.001 479.74L147.941 479.665H152.096V481H146.261ZM160.805 481.15C160.075 481.15 159.42 480.97 158.84 480.61C158.27 480.25 157.815 479.76 157.475 479.14C157.145 478.52 156.98 477.825 156.98 477.055C156.98 476.285 157.145 475.59 157.475 474.97C157.815 474.35 158.27 473.86 158.84 473.5C159.42 473.14 160.075 472.96 160.805 472.96C161.505 472.96 162.14 473.105 162.71 473.395C163.29 473.675 163.73 474.06 164.03 474.55L163.175 475.6C163.015 475.37 162.81 475.16 162.56 474.97C162.31 474.78 162.045 474.63 161.765 474.52C161.485 474.41 161.215 474.355 160.955 474.355C160.475 474.355 160.045 474.475 159.665 474.715C159.295 474.945 159 475.265 158.78 475.675C158.56 476.085 158.45 476.545 158.45 477.055C158.45 477.565 158.565 478.025 158.795 478.435C159.025 478.835 159.33 479.155 159.71 479.395C160.09 479.635 160.51 479.755 160.97 479.755C161.24 479.755 161.5 479.71 161.75 479.62C162.01 479.53 162.26 479.395 162.5 479.215C162.74 479.035 162.965 478.815 163.175 478.555L164.03 479.605C163.71 480.055 163.25 480.425 162.65 480.715C162.06 481.005 161.445 481.15 160.805 481.15ZM168.218 481.15C167.568 481.15 166.973 480.97 166.433 480.61C165.903 480.25 165.478 479.76 165.158 479.14C164.838 478.52 164.678 477.82 164.678 477.04C164.678 476.25 164.838 475.55 165.158 474.94C165.488 474.32 165.928 473.835 166.478 473.485C167.038 473.135 167.663 472.96 168.353 472.96C168.763 472.96 169.138 473.02 169.478 473.14C169.818 473.26 170.113 473.43 170.363 473.65C170.623 473.86 170.833 474.105 170.993 474.385C171.163 474.665 171.268 474.965 171.308 475.285L170.963 475.165V473.125H172.523V481H170.963V479.125L171.323 479.02C171.263 479.29 171.138 479.555 170.948 479.815C170.768 480.065 170.533 480.29 170.243 480.49C169.963 480.69 169.648 480.85 169.298 480.97C168.958 481.09 168.598 481.15 168.218 481.15ZM168.623 479.725C169.093 479.725 169.508 479.61 169.868 479.38C170.228 479.15 170.508 478.835 170.708 478.435C170.918 478.025 171.023 477.56 171.023 477.04C171.023 476.53 170.918 476.075 170.708 475.675C170.508 475.275 170.228 474.96 169.868 474.73C169.508 474.5 169.093 474.385 168.623 474.385C168.163 474.385 167.753 474.5 167.393 474.73C167.043 474.96 166.763 475.275 166.553 475.675C166.353 476.075 166.253 476.53 166.253 477.04C166.253 477.56 166.353 478.025 166.553 478.435C166.763 478.835 167.043 479.15 167.393 479.38C167.753 479.61 168.163 479.725 168.623 479.725ZM177.005 481.15C176.345 481.15 175.75 481.035 175.22 480.805C174.69 480.575 174.25 480.235 173.9 479.785L174.95 478.885C175.25 479.235 175.575 479.49 175.925 479.65C176.285 479.8 176.69 479.875 177.14 479.875C177.32 479.875 177.485 479.855 177.635 479.815C177.795 479.765 177.93 479.695 178.04 479.605C178.16 479.515 178.25 479.41 178.31 479.29C178.37 479.16 178.4 479.02 178.4 478.87C178.4 478.61 178.305 478.4 178.115 478.24C178.015 478.17 177.855 478.095 177.635 478.015C177.425 477.925 177.15 477.835 176.81 477.745C176.23 477.595 175.755 477.425 175.385 477.235C175.015 477.045 174.73 476.83 174.53 476.59C174.38 476.4 174.27 476.195 174.2 475.975C174.13 475.745 174.095 475.495 174.095 475.225C174.095 474.895 174.165 474.595 174.305 474.325C174.455 474.045 174.655 473.805 174.905 473.605C175.165 473.395 175.465 473.235 175.805 473.125C176.155 473.015 176.525 472.96 176.915 472.96C177.285 472.96 177.65 473.01 178.01 473.11C178.38 473.21 178.72 473.355 179.03 473.545C179.34 473.735 179.6 473.96 179.81 474.22L178.925 475.195C178.735 475.005 178.525 474.84 178.295 474.7C178.075 474.55 177.85 474.435 177.62 474.355C177.39 474.275 177.18 474.235 176.99 474.235C176.78 474.235 176.59 474.255 176.42 474.295C176.25 474.335 176.105 474.395 175.985 474.475C175.875 474.555 175.79 474.655 175.73 474.775C175.67 474.895 175.64 475.03 175.64 475.18C175.65 475.31 175.68 475.435 175.73 475.555C175.79 475.665 175.87 475.76 175.97 475.84C176.08 475.92 176.245 476.005 176.465 476.095C176.685 476.185 176.965 476.27 177.305 476.35C177.805 476.48 178.215 476.625 178.535 476.785C178.865 476.935 179.125 477.11 179.315 477.31C179.515 477.5 179.655 477.72 179.735 477.97C179.815 478.22 179.855 478.5 179.855 478.81C179.855 479.26 179.725 479.665 179.465 480.025C179.215 480.375 178.875 480.65 178.445 480.85C178.015 481.05 177.535 481.15 177.005 481.15ZM184.933 481.15C184.123 481.15 183.403 480.98 182.773 480.64C182.153 480.29 181.663 479.815 181.303 479.215C180.953 478.615 180.778 477.925 180.778 477.145C180.778 476.525 180.878 475.96 181.078 475.45C181.278 474.94 181.553 474.5 181.903 474.13C182.263 473.75 182.688 473.46 183.178 473.26C183.678 473.05 184.218 472.945 184.798 472.945C185.308 472.945 185.783 473.045 186.223 473.245C186.663 473.435 187.043 473.7 187.363 474.04C187.693 474.38 187.943 474.785 188.113 475.255C188.293 475.715 188.378 476.22 188.368 476.77L188.353 477.43H181.918L181.573 476.2H187.018L186.793 476.455V476.095C186.763 475.765 186.653 475.47 186.463 475.21C186.273 474.95 186.033 474.745 185.743 474.595C185.453 474.445 185.138 474.37 184.798 474.37C184.258 474.37 183.803 474.475 183.433 474.685C183.063 474.885 182.783 475.185 182.593 475.585C182.403 475.975 182.308 476.46 182.308 477.04C182.308 477.59 182.423 478.07 182.653 478.48C182.883 478.88 183.208 479.19 183.628 479.41C184.048 479.63 184.533 479.74 185.083 479.74C185.473 479.74 185.833 479.675 186.163 479.545C186.503 479.415 186.868 479.18 187.258 478.84L188.038 479.935C187.798 480.175 187.503 480.385 187.153 480.565C186.813 480.745 186.448 480.89 186.058 481C185.678 481.1 185.303 481.15 184.933 481.15ZM196.276 481.15C195.616 481.15 195.021 481.035 194.491 480.805C193.961 480.575 193.521 480.235 193.171 479.785L194.221 478.885C194.521 479.235 194.846 479.49 195.196 479.65C195.556 479.8 195.961 479.875 196.411 479.875C196.591 479.875 196.756 479.855 196.906 479.815C197.066 479.765 197.201 479.695 197.311 479.605C197.431 479.515 197.521 479.41 197.581 479.29C197.641 479.16 197.671 479.02 197.671 478.87C197.671 478.61 197.576 478.4 197.386 478.24C197.286 478.17 197.126 478.095 196.906 478.015C196.696 477.925 196.421 477.835 196.081 477.745C195.501 477.595 195.026 477.425 194.656 477.235C194.286 477.045 194.001 476.83 193.801 476.59C193.651 476.4 193.541 476.195 193.471 475.975C193.401 475.745 193.366 475.495 193.366 475.225C193.366 474.895 193.436 474.595 193.576 474.325C193.726 474.045 193.926 473.805 194.176 473.605C194.436 473.395 194.736 473.235 195.076 473.125C195.426 473.015 195.796 472.96 196.186 472.96C196.556 472.96 196.921 473.01 197.281 473.11C197.651 473.21 197.991 473.355 198.301 473.545C198.611 473.735 198.871 473.96 199.081 474.22L198.196 475.195C198.006 475.005 197.796 474.84 197.566 474.7C197.346 474.55 197.121 474.435 196.891 474.355C196.661 474.275 196.451 474.235 196.261 474.235C196.051 474.235 195.861 474.255 195.691 474.295C195.521 474.335 195.376 474.395 195.256 474.475C195.146 474.555 195.061 474.655 195.001 474.775C194.941 474.895 194.911 475.03 194.911 475.18C194.921 475.31 194.951 475.435 195.001 475.555C195.061 475.665 195.141 475.76 195.241 475.84C195.351 475.92 195.516 476.005 195.736 476.095C195.956 476.185 196.236 476.27 196.576 476.35C197.076 476.48 197.486 476.625 197.806 476.785C198.136 476.935 198.396 477.11 198.586 477.31C198.786 477.5 198.926 477.72 199.006 477.97C199.086 478.22 199.126 478.5 199.126 478.81C199.126 479.26 198.996 479.665 198.736 480.025C198.486 480.375 198.146 480.65 197.716 480.85C197.286 481.05 196.806 481.15 196.276 481.15ZM201.504 481V471.115H203.049V481H201.504ZM199.869 474.625V473.125H204.879V474.625H199.869ZM208.745 481.15C208.185 481.15 207.695 481.02 207.275 480.76C206.865 480.5 206.545 480.135 206.315 479.665C206.095 479.195 205.985 478.635 205.985 477.985V473.125H207.53V477.565C207.53 478.025 207.6 478.425 207.74 478.765C207.89 479.095 208.1 479.35 208.37 479.53C208.65 479.71 208.985 479.8 209.375 479.8C209.665 479.8 209.93 479.755 210.17 479.665C210.41 479.565 210.615 479.43 210.785 479.26C210.965 479.09 211.105 478.885 211.205 478.645C211.305 478.405 211.355 478.145 211.355 477.865V473.125H212.9V481H211.355V479.35L211.625 479.17C211.505 479.54 211.3 479.875 211.01 480.175C210.73 480.475 210.395 480.715 210.005 480.895C209.615 481.065 209.195 481.15 208.745 481.15ZM218.053 481.15C217.333 481.15 216.688 480.975 216.118 480.625C215.558 480.265 215.113 479.78 214.783 479.17C214.453 478.55 214.288 477.845 214.288 477.055C214.288 476.265 214.448 475.565 214.768 474.955C215.098 474.335 215.543 473.85 216.103 473.5C216.663 473.14 217.298 472.96 218.008 472.96C218.398 472.96 218.773 473.025 219.133 473.155C219.503 473.275 219.833 473.445 220.123 473.665C220.413 473.875 220.638 474.11 220.798 474.37C220.968 474.62 221.053 474.875 221.053 475.135L220.603 475.165V469.9H222.148V481H220.603V479.125H220.903C220.903 479.365 220.823 479.605 220.663 479.845C220.503 480.075 220.288 480.29 220.018 480.49C219.758 480.69 219.453 480.85 219.103 480.97C218.763 481.09 218.413 481.15 218.053 481.15ZM218.263 479.815C218.733 479.815 219.148 479.695 219.508 479.455C219.868 479.215 220.148 478.89 220.348 478.48C220.558 478.06 220.663 477.585 220.663 477.055C220.663 476.525 220.558 476.055 220.348 475.645C220.148 475.225 219.868 474.895 219.508 474.655C219.148 474.415 218.733 474.295 218.263 474.295C217.793 474.295 217.378 474.415 217.018 474.655C216.658 474.895 216.373 475.225 216.163 475.645C215.963 476.055 215.863 476.525 215.863 477.055C215.863 477.585 215.963 478.06 216.163 478.48C216.373 478.89 216.658 479.215 217.018 479.455C217.378 479.695 217.793 479.815 218.263 479.815ZM225.294 484.45L226.884 480.775L226.899 482.005L222.969 473.125H224.769L227.229 478.915C227.279 479.015 227.339 479.17 227.409 479.38C227.479 479.58 227.539 479.78 227.589 479.98L227.199 480.07C227.279 479.86 227.354 479.65 227.424 479.44C227.504 479.23 227.579 479.02 227.649 478.81L229.704 473.125H231.534L228.294 481L226.959 484.45H225.294Z" fill="#172E3A"/>
</g>
<defs>
<linearGradient id="paint0_linear_172_68" x1="612.466" y1="-0.138916" x2="612.466" y2="675.383" gradientUnits="userSpaceOnUse">
<stop stop-color="#0B1B24" stop-opacity="0"/>
<stop offset="1" stop-color="#0B1B24"/>
</linearGradient>
<clipPath id="clip0_172_68">
<rect width="662" height="554" rx="12" fill="white"/>
</clipPath>
</defs>
</svg>
