<svg width="36" height="35" viewBox="0 0 36 35" fill="none" xmlns="http://www.w3.org/2000/svg">
<g clip-path="url(#clip0_117_2218)">
<path d="M18 34.9733C27.9411 34.9733 36 27.1696 36 17.5433C36 7.91696 27.9411 0.113281 18 0.113281C8.05887 0.113281 0 7.91696 0 17.5433C0 27.1696 8.05887 34.9733 18 34.9733Z" fill="#1A171B"/>
<path d="M25.8337 6.55177C24.0076 6.61346 22.4137 7.58804 21.2273 8.93614C19.9135 10.4143 19.0396 12.1675 18.4098 13.9571C17.2834 13.0631 16.4144 11.9058 14.6072 11.4011C13.2104 11.0128 11.7432 11.1732 10.3941 12.1465C9.75494 12.6088 9.31464 13.3077 9.10525 13.9646C8.56314 15.6717 9.6752 17.191 10.1803 17.7365L11.2847 18.8825C11.5123 19.1072 12.0606 19.6934 11.7926 20.5339C11.5029 21.4476 10.3653 22.0393 9.19834 21.6907C8.67719 21.5368 7.9285 21.1608 8.09613 20.6314C8.16545 20.4149 8.32548 20.2528 8.41127 20.0656C8.49002 19.9048 8.52756 19.7841 8.55147 19.7133C8.76466 19.0393 8.47342 18.1623 7.72783 17.9397C7.0323 17.7333 6.32059 17.8968 6.04469 18.7641C5.7318 19.7493 6.21864 21.5374 8.82667 22.316C11.8823 23.2251 14.4671 21.614 14.8338 19.5127C15.0647 18.1966 14.451 17.2189 13.3267 15.9614L12.4106 14.9804C11.8557 14.4436 11.6652 13.5287 12.2395 12.8255C12.7241 12.2323 13.4143 11.9792 14.5446 12.2768C16.1946 12.7107 16.93 13.8193 18.1573 14.7134C17.6506 16.3228 17.3194 17.9382 17.0196 19.3868L16.837 20.4668C15.9597 24.9224 15.2901 27.369 13.5498 28.7737C13.1993 29.0151 12.6981 29.3765 11.9426 29.4017C11.5466 29.4135 11.4187 29.1498 11.4132 29.0348C11.4038 28.7656 11.638 28.6423 11.7937 28.5211C12.0263 28.3982 12.378 28.1945 12.3541 27.5418C12.3288 26.7706 11.669 26.1018 10.7153 26.1325C10.0009 26.156 8.91203 26.8071 8.95295 27.9987C8.99556 29.2296 10.1803 30.152 11.9665 30.0936C12.9214 30.0618 15.0535 29.6855 17.1549 27.2666C19.6007 24.4939 20.2847 21.3153 20.7992 18.9888L21.3735 15.9173C21.6926 15.9543 22.0338 15.979 22.4049 15.9875C25.4509 16.0498 26.9746 14.5219 26.9972 13.4106C27.0123 12.7381 26.5415 12.0763 25.8824 12.0912C25.4106 12.1042 24.8178 12.4083 24.6755 13.0401C24.5366 13.6599 25.6449 14.2193 24.7786 14.7627C24.1632 15.1483 23.06 15.4201 21.5064 15.1992L21.7889 13.6873C22.3655 10.8202 23.0766 7.2935 25.7744 7.20771C25.971 7.19804 26.6904 7.21629 26.7071 7.67696C26.7121 7.83083 26.6727 7.87005 26.4866 8.22233C26.2972 8.49699 26.2258 8.73079 26.2346 8.99946C26.2607 9.73152 26.8355 10.2126 27.6669 10.1836C28.7801 10.1488 29.1003 9.09927 29.082 8.56031C29.037 7.29391 27.6587 6.4939 25.8337 6.55177Z" fill="white"/>
</g>
<defs>
<clipPath id="clip0_117_2218">
<rect width="36" height="35" fill="white"/>
</clipPath>
</defs>
</svg>
