<svg width="36" height="36" viewBox="0 0 36 36" fill="none" xmlns="http://www.w3.org/2000/svg">
<g clip-path="url(#clip0_117_2222)">
<path d="M2.55876 17.9991C2.55876 24.1112 6.11087 29.3933 11.2617 31.8963L3.89569 11.7148C3.03888 13.6353 2.55876 15.7605 2.55876 17.9991Z" fill="black"/>
<path d="M28.4262 17.2203C28.4262 15.312 27.7407 13.9903 27.1527 12.9617C26.3699 11.6897 25.6362 10.6126 25.6362 9.3406C25.6362 7.92115 26.7128 6.59983 28.2293 6.59983C28.2978 6.59983 28.3627 6.60835 28.4294 6.61217C25.6821 4.09528 22.0218 2.55859 18.0017 2.55859C12.607 2.55859 7.86073 5.3264 5.09961 9.51866C5.4619 9.52953 5.80333 9.53717 6.09334 9.53717C7.70852 9.53717 10.2087 9.34119 10.2087 9.34119C11.0411 9.29212 11.1393 10.5147 10.3077 10.6131C10.3077 10.6131 9.47121 10.7116 8.54035 10.7604L14.1637 27.4862L17.543 17.3514L15.1371 10.7598C14.3056 10.711 13.5178 10.6126 13.5178 10.6126C12.6857 10.5638 12.7833 9.29153 13.6154 9.3406C13.6154 9.3406 16.1655 9.53658 17.6829 9.53658C19.2977 9.53658 21.7982 9.3406 21.7982 9.3406C22.6312 9.29153 22.7291 10.5141 21.8973 10.6126C21.8973 10.6126 21.059 10.711 20.1299 10.7598L25.7103 27.359L27.2505 22.2121C27.9181 20.0763 28.4262 18.5422 28.4262 17.2203Z" fill="black"/>
<path d="M18.2698 19.3516L13.6367 32.8142C15.0201 33.2209 16.483 33.4433 17.9989 33.4433C19.7971 33.4433 21.5216 33.1324 23.1268 32.568C23.0854 32.5019 23.0478 32.4317 23.0169 32.3553L18.2698 19.3516Z" fill="black"/>
<path d="M31.5489 10.5898C31.6153 11.0817 31.6529 11.6097 31.6529 12.1777C31.6529 13.7446 31.3602 15.5061 30.4787 17.7086L25.7619 31.3457C30.3527 28.6687 33.4405 23.6952 33.4405 17.9986C33.4408 15.3139 32.755 12.7894 31.5489 10.5898Z" fill="black"/>
<path d="M18.0006 0C8.07532 0 0 8.07453 0 17.9996C0 27.9258 8.07532 36 18.0006 36C27.9256 36 36.0021 27.9258 36.0021 17.9996C36.0018 8.07453 27.9256 0 18.0006 0ZM18.0006 35.1749C8.53046 35.1749 0.825367 27.47 0.825367 17.9996C0.825367 8.52966 8.53017 0.825347 18.0006 0.825347C27.4704 0.825347 35.1749 8.52966 35.1749 17.9996C35.1749 27.47 27.4704 35.1749 18.0006 35.1749Z" fill="black"/>
</g>
<defs>
<clipPath id="clip0_117_2222">
<rect width="36" height="36" fill="white"/>
</clipPath>
</defs>
</svg>
