<svg width="48" height="49" viewBox="0 0 48 49" fill="none" xmlns="http://www.w3.org/2000/svg">
<g clip-path="url(#clip0_117_2074)">
<path d="M20.0104 3.375C10.7355 3.375 3.2168 10.8937 3.2168 20.1686C3.2168 29.4435 10.7355 36.9623 20.0104 36.9623C29.2853 36.9623 36.8041 29.4435 36.8041 20.1686C36.794 10.8979 29.2811 3.3851 20.0104 3.375ZM20.0104 4.97439C24.9502 4.97829 29.5791 7.38578 32.4185 11.4279L30.4193 13.4272C29.9328 13.1328 29.3758 12.9753 28.8071 12.9714C27.0405 12.9714 25.6083 14.4035 25.6083 16.1701C25.6111 16.7394 25.7677 17.2973 26.0617 17.7847L20.8253 23.0212C19.8338 22.4166 18.5877 22.4166 17.5961 23.0212L13.9591 19.3841C14.2531 18.8967 14.4098 18.3388 14.4126 17.7695C14.4148 16.0064 12.9873 14.5754 11.2242 14.5732C9.76601 14.5714 8.492 15.5577 8.12853 16.9698H5.16166C6.67579 9.9778 12.8563 4.98489 20.0104 4.97439ZM30.4065 16.1701C30.4065 17.0535 29.6905 17.7695 28.8071 17.7695C27.9237 17.7695 27.2077 17.0535 27.2077 16.1701C27.2077 15.2868 27.9237 14.5708 28.8071 14.5708C29.6905 14.5708 30.4065 15.2868 30.4065 16.1701ZM20.8101 25.7665C20.8101 26.6499 20.0941 27.3659 19.2107 27.3659C18.3274 27.3659 17.6113 26.6499 17.6113 25.7665C17.6113 24.8831 18.3274 24.1671 19.2107 24.1671C20.0941 24.1671 20.8101 24.8831 20.8101 25.7665ZM12.8132 17.7695C12.8132 18.6529 12.0971 19.3689 11.2138 19.3689C10.3304 19.3689 9.61437 18.6529 9.61437 17.7695C9.61437 16.8862 10.3304 16.1701 11.2138 16.1701C12.0971 16.1701 12.8132 16.8862 12.8132 17.7695ZM27.393 33.4542C25.1347 34.7081 22.5937 35.3651 20.0104 35.3628C11.6246 35.3685 4.82189 28.5751 4.81619 20.1893C4.81579 19.6481 4.84438 19.1072 4.90176 18.5691H8.12853C8.4921 19.9771 9.75962 20.9627 11.2138 20.9682C11.783 20.9654 12.3409 20.8088 12.8284 20.5148L16.4654 24.1518C16.1714 24.6392 16.0147 25.1971 16.0119 25.7664C16.0119 27.533 17.4441 28.9652 19.2107 28.9652C20.9774 28.9652 22.4095 27.533 22.4095 25.7664C22.4067 25.1971 22.2501 24.6392 21.9561 24.1518L27.1925 18.9154C27.6799 19.2094 28.2378 19.366 28.8071 19.3688C30.5737 19.3688 32.0059 17.9367 32.0059 16.17C32.0031 15.6008 31.8464 15.0429 31.5525 14.5555L33.2958 12.8129C37.3657 20.1429 34.723 29.3843 27.393 33.4542Z" fill="#FF604C"/>
<path d="M40.003 8.17361C41.4572 8.16811 42.7247 7.18258 43.0883 5.77452H48V4.17512H43.0883C42.7247 2.76706 41.4572 1.78153 40.003 1.77603C38.2364 1.77603 36.8042 3.20819 36.8042 4.97482C36.807 5.54411 36.9637 6.10199 37.2577 6.58941L35.8526 7.99448C29.1297 -0.764302 16.5792 -2.41468 7.82043 4.30827C-0.938344 11.0312 -2.58872 23.5818 4.13423 32.3405C10.4802 40.6081 22.1129 42.6137 30.8609 36.9483L33.2744 39.3618L34.4052 40.4926L40.8427 46.9301C42.48 48.5674 45.1344 48.5674 46.7717 46.9301C48.4089 45.2928 48.4089 42.6384 46.7717 41.0012L40.3341 34.5636L39.2033 33.4328L36.7898 31.0193C41.0741 24.4202 41.0741 15.918 36.7898 9.31877L38.3892 7.71938C38.8764 8.01347 39.434 8.17041 40.003 8.17361ZM40.003 3.37543C40.8864 3.37543 41.6024 4.09146 41.6024 4.97482C41.6024 5.85819 40.8864 6.57421 40.003 6.57421C39.1197 6.57421 38.4036 5.85819 38.4036 4.97482C38.4036 4.09146 39.1198 3.37543 40.003 3.37543ZM45.6409 42.1319C46.6651 43.1332 46.6838 44.7751 45.6826 45.7993C44.6814 46.8236 43.0394 46.8422 42.0152 45.841C42.0011 45.8273 41.9873 45.8134 41.9735 45.7993L35.5359 39.3618L39.2033 35.6944L45.6409 42.1319ZM38.0726 34.5636L34.4052 38.231L32.1916 36.0174C32.3043 35.9311 32.4099 35.8359 32.5211 35.7472C32.6322 35.6584 32.761 35.552 32.8801 35.4521C33.0553 35.3049 33.228 35.1562 33.3975 35.0034C33.4847 34.9235 33.5679 34.8435 33.6534 34.7635C33.9813 34.4564 34.2988 34.139 34.6059 33.8111C34.6858 33.7255 34.7658 33.6424 34.8458 33.5552C34.9985 33.3857 35.1473 33.2129 35.2944 33.0378C35.3947 32.9194 35.493 32.7998 35.5895 32.6787C35.6775 32.5684 35.7726 32.4628 35.859 32.35L38.0726 34.5636ZM34.9713 30.849C34.7194 31.2009 34.4595 31.5455 34.1852 31.8774C34.1053 31.9742 34.0197 32.0677 33.9373 32.1629C33.6926 32.4476 33.4399 32.7238 33.1792 32.9914C33.0657 33.1087 32.9502 33.2241 32.833 33.3377C32.5664 33.5984 32.2903 33.8511 32.0045 34.0958C31.9093 34.1757 31.8157 34.2629 31.719 34.3437C31.3871 34.618 31.0424 34.8779 30.6906 35.1298C22.4121 41.044 10.9066 39.1275 4.99231 30.849C-0.92195 22.5706 0.994623 11.065 9.27308 5.15075C17.5515 -0.763503 29.0571 1.15297 34.9713 9.43153C39.5477 15.8373 39.5477 24.4432 34.9713 30.849Z" fill="white"/>
</g>
<defs>
<clipPath id="clip0_117_2074">
<rect width="48" height="48" fill="white" transform="translate(0 0.166016)"/>
</clipPath>
</defs>
</svg>
