<svg width="28" height="28" viewBox="0 0 28 28" fill="none" xmlns="http://www.w3.org/2000/svg">
<path d="M21.9415 7.70842C22.3971 7.25282 22.3971 6.51412 21.9415 6.05851C21.4859 5.60289 20.7472 5.60289 20.2916 6.05851L13.9999 12.3502L7.70818 6.05851C7.25257 5.60289 6.51387 5.60289 6.05827 6.05851C5.60265 6.51412 5.60265 7.25282 6.05827 7.70842L12.35 14.0001L6.05827 20.2919C5.60265 20.7474 5.60265 21.4862 6.05827 21.9418C6.51387 22.3973 7.25257 22.3973 7.70818 21.9418L13.9999 15.65L20.2916 21.9418C20.7472 22.3973 21.4859 22.3973 21.9415 21.9418C22.3971 21.4862 22.3971 20.7474 21.9415 20.2919L15.6498 14.0001L21.9415 7.70842Z" fill="#FCCC51"/>
</svg>
