<svg width="19" height="19" viewBox="0 0 19 19" fill="none" xmlns="http://www.w3.org/2000/svg">
<g clip-path="url(#clip0_237_1144)">
<path d="M12.5946 9.59733L19 13.6467V5.37695L12.5946 9.59733Z" fill="white"/>
<path d="M0 5.37695V13.6467L6.40538 9.59733L0 5.37695Z" fill="white"/>
<path d="M17.812 2.96875H1.18703C0.594469 2.96875 0.124219 3.4105 0.0351562 3.97931L9.49953 10.2149L18.9639 3.97931C18.8748 3.4105 18.4046 2.96875 17.812 2.96875Z" fill="white"/>
<path d="M11.5069 10.3147L9.82656 11.4214C9.72681 11.4867 9.61399 11.5188 9.49999 11.5188C9.38599 11.5188 9.27318 11.4867 9.17343 11.4214L7.49312 10.3135L0.0379944 15.029C0.129432 15.5931 0.597307 16.0313 1.18749 16.0313H17.8125C18.4027 16.0313 18.8706 15.5931 18.962 15.029L11.5069 10.3147Z" fill="white"/>
</g>
<defs>
<clipPath id="clip0_237_1144">
<rect width="19" height="19" fill="white"/>
</clipPath>
</defs>
</svg>
