<svg width="22" height="18" viewBox="0 0 22 18" fill="none" xmlns="http://www.w3.org/2000/svg">
<path fill-rule="evenodd" clip-rule="evenodd" d="M21.5 2.00016C21.5 1.35584 20.9777 0.833496 20.3333 0.833496H1.66667C1.02232 0.833496 0.5 1.35584 0.5 2.00016C0.5 2.64449 1.02232 3.16683 1.66667 3.16683H20.3333C20.9777 3.16683 21.5 2.64449 21.5 2.00016ZM21.5 9.00016C21.5 8.35581 20.9777 7.8335 20.3333 7.8335H8.66667C8.02232 7.8335 7.5 8.35581 7.5 9.00016C7.5 9.64451 8.02232 10.1668 8.66667 10.1668H20.3333C20.9777 10.1668 21.5 9.64451 21.5 9.00016ZM21.5 16.0002C21.5 15.3558 20.9777 14.8335 20.3333 14.8335H14.5C13.8557 14.8335 13.3333 15.3558 13.3333 16.0002C13.3333 16.6445 13.8557 17.1668 14.5 17.1668H20.3333C20.9777 17.1668 21.5 16.6445 21.5 16.0002Z" fill="#FCCC51"/>
</svg>
