<svg width="56" height="57" viewBox="0 0 56 57" fill="none" xmlns="http://www.w3.org/2000/svg">
<path d="M40.6807 45.8113H30.1351L29.0317 44.7079L31.8006 41.9391C32.1047 41.6348 32.2317 41.2021 32.1401 40.7817C32.0484 40.3614 31.753 40.0209 31.3499 39.8709L16.8972 34.4921C16.39 34.3032 15.8366 34.4236 15.4537 34.8068C15.0708 35.1897 14.9502 35.7429 15.1391 36.2503L18.6974 45.8113H4.20722C2.79191 45.8113 1.64062 44.66 1.64062 43.2448V25.5488C1.64062 25.0957 1.27345 24.7285 0.820312 24.7285C0.367172 24.7285 0 25.0957 0 25.5488V43.2448C0 45.5647 1.88738 47.452 4.20722 47.452H19.3081L20.5179 50.7028C20.6678 51.1062 21.0084 51.4016 21.4289 51.4932C21.8492 51.585 22.2821 51.4579 22.586 51.1537L25.3549 48.385L28.1735 51.2036C28.44 51.47 28.79 51.603 29.14 51.603C29.4901 51.603 29.8402 51.4698 30.1068 51.2035L31.8503 49.4601C32.3832 48.927 32.3831 48.0596 31.8502 47.5266C31.8502 47.5266 31.8502 47.5266 31.8501 47.5266L31.7757 47.4523H40.6806C41.1338 47.4523 41.5009 47.0851 41.5009 46.632C41.5009 46.1788 41.1337 45.8113 40.6807 45.8113ZM29.1401 49.8497L25.935 46.6445C25.7748 46.4844 25.5649 46.4043 25.3549 46.4043C25.145 46.4043 24.935 46.4844 24.7747 46.6445L21.8474 49.5718L16.8851 36.2382L30.2187 41.2006L27.2914 44.1279C26.971 44.4484 26.971 44.9677 27.2915 45.2881L30.4966 48.4931L29.1401 49.8497Z" fill="#FCCC51"/>
<path d="M51.7928 4.73047H48.9248C48.4716 4.73047 48.1044 5.09764 48.1044 5.55078C48.1044 6.00392 48.4716 6.37109 48.9248 6.37109H51.7928C53.208 6.37109 54.3594 7.52238 54.3594 8.93769V14.0773H1.64062V8.93769C1.64062 7.52248 2.79191 6.37109 4.20722 6.37109H45.1309C45.584 6.37109 45.9512 6.00392 45.9512 5.55078C45.9512 5.09764 45.584 4.73047 45.1309 4.73047H4.20722C1.88738 4.73047 0 6.61784 0 8.93769V21.8562C0 22.3093 0.367172 22.6765 0.820312 22.6765C1.27345 22.6765 1.64062 22.3093 1.64062 21.8562V15.7181H54.3594V43.2436C54.3594 44.6588 53.2081 45.8102 51.7928 45.8102H44.6113C44.1582 45.8102 43.791 46.1774 43.791 46.6305C43.791 47.0836 44.1582 47.4508 44.6113 47.4508H51.7928C54.1126 47.4508 56 45.5634 56 43.2436V8.93769C56 6.61784 54.1126 4.73047 51.7928 4.73047Z" fill="white"/>
<path d="M5.43555 10.2245C5.43555 11.0638 6.11586 11.7441 6.95498 11.7441C7.79411 11.7441 8.47442 11.0638 8.47442 10.2245C8.47442 9.38528 7.79411 8.70508 6.95498 8.70508C6.11586 8.70508 5.43555 9.38528 5.43555 10.2245Z" fill="#FCCC51"/>
<path d="M10.1094 10.2245C10.1094 11.0638 10.7897 11.7441 11.6288 11.7441C12.4679 11.7441 13.1483 11.0638 13.1483 10.2245C13.1483 9.38528 12.4679 8.70508 11.6288 8.70508C10.7897 8.70508 10.1094 9.38528 10.1094 10.2245Z" fill="#FCCC51"/>
<path d="M14.7832 10.2245C14.7832 11.0638 15.4635 11.7441 16.3026 11.7441C17.1418 11.7441 17.8221 11.0638 17.8221 10.2245C17.8221 9.38528 17.1418 8.70508 16.3026 8.70508C15.4635 8.70508 14.7832 9.38528 14.7832 10.2245Z" fill="#FCCC51"/>
<path d="M10.0424 33.7778H10.0471C10.3938 33.7778 10.7033 33.5598 10.8197 33.2329L12.8517 27.531L14.7933 33.2225C14.9062 33.5534 15.2166 33.7764 15.5662 33.778H15.5696C15.918 33.778 16.2284 33.5579 16.3438 33.2289L19.0983 25.3707C19.2481 24.9433 19.023 24.4752 18.5954 24.3252C18.1682 24.1754 17.6998 24.4005 17.5499 24.8281L15.58 30.4477L13.645 24.775C13.4256 24.0541 12.3246 24.0474 12.0959 24.7645L10.0611 30.4744L8.12557 24.8419C7.97835 24.4134 7.51176 24.1851 7.08323 24.3328C6.65481 24.48 6.42676 24.9467 6.57409 25.3751L9.27128 33.2241C9.38448 33.5537 9.69379 33.7758 10.0424 33.7778Z" fill="#FCCC51"/>
<path d="M25.2181 33.7779H25.2229C25.5696 33.7779 25.8791 33.5598 25.9955 33.233L28.0274 27.531L29.9691 33.2226C30.0819 33.5534 30.3924 33.7765 30.742 33.778H30.7454C31.0938 33.778 31.4042 33.5579 31.5196 33.2289L34.2741 25.3708C34.4239 24.9433 34.1988 24.4752 33.7712 24.3253C33.3439 24.1754 32.8756 24.4005 32.7256 24.8282L30.7558 30.4477L28.8207 24.775C28.6012 24.054 27.5004 24.0474 27.2717 24.7645L25.2369 30.4744L23.3014 24.8421C23.1541 24.4135 22.6873 24.1853 22.259 24.3329C21.8306 24.4801 21.6025 24.9468 21.7499 25.3753L24.4471 33.2242C24.5604 33.5538 24.8697 33.7758 25.2181 33.7779Z" fill="#FCCC51"/>
<path d="M40.15 33.7778H40.1546C40.5013 33.7778 40.8109 33.5598 40.9272 33.2329L42.9592 27.531L44.9008 33.2225C45.0137 33.5534 45.3241 33.7764 45.6738 33.778H45.6772C46.0255 33.778 46.3359 33.5579 46.4513 33.2289L49.2057 25.3707C49.3556 24.9433 49.1305 24.4752 48.7028 24.3252C48.2755 24.1754 47.8072 24.4005 47.6573 24.8281L45.6876 30.4477L43.7525 24.775C43.5332 24.0541 42.432 24.0474 42.2034 24.7645L40.1686 30.4744L38.233 24.842C38.0858 24.4136 37.6197 24.1854 37.1906 24.3329C36.7622 24.4801 36.5342 24.9468 36.6815 25.3752L39.3788 33.2242C39.4921 33.5537 39.8013 33.7758 40.15 33.7778Z" fill="#FCCC51"/>
</svg>
