<svg width="49" height="50" viewBox="0 0 49 50" fill="none" xmlns="http://www.w3.org/2000/svg">
<g clip-path="url(#clip0_117_2059)">
<path d="M22.8674 45.899H26.1341C26.5851 45.899 26.9508 45.5333 26.9508 45.0823C26.9508 44.6313 26.5851 44.2656 26.1341 44.2656H22.8674C22.4164 44.2656 22.0508 44.6313 22.0508 45.0823C22.0508 45.5333 22.4164 45.899 22.8674 45.899Z" fill="white"/>
<path d="M10.6155 12.416C11.0665 12.416 11.4322 12.0504 11.4322 11.5993V6.69935H37.5655V13.2327C37.5655 13.6837 37.9312 14.0493 38.3822 14.0493C38.8332 14.0493 39.1988 13.6837 39.1988 13.2327V3.43268C39.1988 1.96268 37.314 0.166016 35.1155 0.166016H13.8822C11.6282 0.16867 9.80148 1.99535 9.79883 4.24935V11.5993C9.79883 12.0504 10.1645 12.416 10.6155 12.416ZM11.4322 4.24935C11.4322 2.89623 12.529 1.79935 13.8822 1.79935H35.1155C36.5308 1.79935 37.5655 2.94268 37.5655 3.43268V5.06602H11.4322V4.24935Z" fill="white"/>
<path d="M38.3822 36.0996C37.9312 36.0996 37.5655 36.4653 37.5655 36.9163V40.9996H11.4322V37.7329C11.4322 37.2819 11.0665 36.9163 10.6155 36.9163C10.1645 36.9163 9.79883 37.2819 9.79883 37.7329V45.0829C9.80148 47.3369 11.6282 49.1636 13.8822 49.1663H35.1155C37.3695 49.1636 39.1962 47.3369 39.1988 45.0829V36.9163C39.1988 36.4653 38.8332 36.0996 38.3822 36.0996ZM37.5655 45.0829C37.5655 46.4361 36.4686 47.5329 35.1155 47.5329H13.8822C12.529 47.5329 11.4322 46.4361 11.4322 45.0829V42.6329H37.5655V45.0829Z" fill="white"/>
<path d="M22.866 2.61523H21.2327C20.7817 2.61523 20.416 2.9809 20.416 3.4319C20.416 3.88291 20.7817 4.24857 21.2327 4.24857H22.866C23.317 4.24857 23.6827 3.88291 23.6827 3.4319C23.6827 2.9809 23.317 2.61523 22.866 2.61523Z" fill="white"/>
<path d="M27.7664 2.61523H26.1331C25.6821 2.61523 25.3164 2.9809 25.3164 3.4319C25.3164 3.88291 25.6821 4.24857 26.1331 4.24857H27.7664C28.2174 4.24857 28.5831 3.88291 28.5831 3.4319C28.5831 2.9809 28.2174 2.61523 27.7664 2.61523Z" fill="white"/>
<path d="M48.8115 15.978C48.6562 15.7911 48.4257 15.683 48.1827 15.6832H26.7468L26.3303 12.8747C26.1465 11.6764 25.1187 10.7896 23.9064 10.7832H20.416V12.4165H23.9064C24.3116 12.4162 24.6557 12.7131 24.7149 13.114L27.5684 32.3751C27.7522 33.5733 28.78 34.4601 29.9922 34.4665H31.9996C32.4421 35.7367 33.8305 36.4075 35.1005 35.9651C35.8025 35.7205 36.3545 35.1687 36.5991 34.4665H40.1663C40.6173 35.7423 42.0172 36.4108 43.2928 35.9597C44.5684 35.5086 45.2371 34.1088 44.786 32.8332C44.335 31.5575 42.9351 30.8889 41.6595 31.34C40.9617 31.5867 40.4129 32.1356 40.1663 32.8332H36.5991C36.1566 31.5631 34.7682 30.8922 33.4982 31.3346C32.7962 31.5792 32.2442 32.1311 31.9996 32.8332H29.9922C29.588 32.8311 29.2452 32.5354 29.1838 32.1358L28.9241 30.3832H45.7327C46.1252 30.3829 46.4621 30.1034 46.5347 29.7176L48.9847 16.651C49.03 16.4121 48.9665 16.1653 48.8115 15.978ZM42.466 32.8332C42.917 32.8332 43.2827 33.1989 43.2827 33.6499C43.2827 34.1009 42.917 34.4665 42.466 34.4665C42.015 34.4665 41.6494 34.1009 41.6494 33.6499C41.6494 33.1989 42.015 32.8332 42.466 32.8332ZM34.2994 32.8332C34.7504 32.8332 35.116 33.1989 35.116 33.6499C35.116 34.1009 34.7504 34.4665 34.2994 34.4665C33.8483 34.4665 33.4827 34.1009 33.4827 33.6499C33.4827 33.1989 33.8483 32.8332 34.2994 32.8332ZM45.0549 28.7499H28.6823L26.9894 17.3165H47.2027L45.0549 28.7499Z" fill="#00FC8E"/>
<path d="M21.2333 24.6655C21.2333 18.802 16.4801 14.0488 10.6167 14.0488C4.7532 14.0488 0 18.802 0 24.6655C0 30.529 4.7532 35.2822 10.6167 35.2822C16.4773 35.2754 21.2266 30.5261 21.2333 24.6655ZM1.63333 24.6655C1.63333 19.7041 5.65531 15.6822 10.6167 15.6822C15.578 15.6822 19.6 19.7041 19.6 24.6655C19.6 29.6268 15.578 33.6488 10.6167 33.6488C5.65776 33.643 1.63915 29.6244 1.63333 24.6655Z" fill="#00FC8E"/>
<path d="M11.4329 31.1997V30.2671C13.1766 29.8183 14.2264 28.041 13.7776 26.2973C13.4064 24.8553 12.1054 23.8479 10.6163 23.8497C9.71417 23.8497 8.98294 23.1185 8.98294 22.2164C8.98294 21.3143 9.71417 20.5831 10.6163 20.5831C11.5184 20.5831 12.2496 21.3143 12.2496 22.2164C12.2496 22.6674 12.6153 23.0331 13.0663 23.0331C13.5173 23.0331 13.8829 22.6674 13.8829 22.2164C13.8773 20.7314 12.8709 19.437 11.4329 19.0657V18.1331C11.4329 17.6821 11.0673 17.3164 10.6163 17.3164C10.1653 17.3164 9.79961 17.6821 9.79961 18.1331V19.0657C8.05592 19.5145 7.0062 21.2918 7.45496 23.0355C7.82613 24.4776 9.12719 25.4849 10.6163 25.4831C11.5184 25.4831 12.2496 26.2143 12.2496 27.1164C12.2496 28.0185 11.5184 28.7497 10.6163 28.7497C9.71417 28.7497 8.98294 28.0185 8.98294 27.1164C8.98294 26.6654 8.61728 26.2997 8.16628 26.2997C7.71527 26.2997 7.34961 26.6654 7.34961 27.1164C7.35522 28.6014 8.36166 29.8958 9.79961 30.2671V31.1997C9.79961 31.6507 10.1653 32.0164 10.6163 32.0164C11.0673 32.0164 11.4329 31.6507 11.4329 31.1997Z" fill="#00FC8E"/>
<path d="M29.4007 19.7661H40.834C41.285 19.7661 41.6507 19.4005 41.6507 18.9495C41.6507 18.4985 41.285 18.1328 40.834 18.1328H29.4007C28.9496 18.1328 28.584 18.4985 28.584 18.9495C28.584 19.4005 28.9496 19.7661 29.4007 19.7661Z" fill="#00FC8E"/>
<path d="M43.2835 19.7661H44.9168C45.3678 19.7661 45.7335 19.4005 45.7335 18.9495C45.7335 18.4985 45.3678 18.1328 44.9168 18.1328H43.2835C42.8325 18.1328 42.4668 18.4985 42.4668 18.9495C42.4668 19.4005 42.8325 19.7661 43.2835 19.7661Z" fill="#00FC8E"/>
</g>
<defs>
<clipPath id="clip0_117_2059">
<rect width="49" height="49" fill="white" transform="translate(0 0.166016)"/>
</clipPath>
</defs>
</svg>
