<svg width="21" height="21" viewBox="0 0 21 21" fill="none" xmlns="http://www.w3.org/2000/svg">
<g clip-path="url(#clip0_117_2003)">
<path d="M14.3976 10.5002H21C21 4.70082 16.299 0 10.4998 0C13.3992 0 14.3979 5.25025 14.3976 10.5002Z" fill="#F8F8F8"/>
<path d="M0 10.5002H14.8488C14.8492 5.25025 13.3992 0 10.4998 0C4.701 0 0 4.70082 0 10.5002Z" fill="white"/>
<path d="M14.1767 10.5002C14.1767 15.7501 13.3993 21.0001 10.4998 21.0001C16.299 21.0001 21 16.2991 21 10.5002H14.1767Z" fill="#D60303"/>
<path d="M14.8488 10.5002H0C0 16.2991 4.701 21.0001 10.4998 21.0001C13.3992 21.0001 14.8488 15.7502 14.8488 10.5002Z" fill="#EB0000"/>
</g>
<defs>
<clipPath id="clip0_117_2003">
<rect width="21" height="21" fill="white"/>
</clipPath>
</defs>
</svg>
