<svg width="166" height="166" viewBox="0 0 166 166" fill="none" xmlns="http://www.w3.org/2000/svg">
<path d="M73.4375 85.0908C74.8713 87.1916 75.8196 89.4993 76.2832 92.0156L75.792 92.1055C76.0078 93.2766 76.1162 94.497 76.1162 95.7666V98.959H76.6162V105.343H76.1162V111.728H76.6162V118.111H76.1162V124.496H76.6162V130.88H76.1162V134.072C76.1162 135.342 76.0086 136.562 75.793 137.733L76.2832 137.822C75.8199 140.339 74.8722 142.646 73.4395 144.747L73.0273 144.467C72.4392 145.329 71.7656 146.157 71.0068 146.95L70.6768 147.288C69.7815 148.183 68.8408 148.966 67.8555 149.638L68.1367 150.05C66.0361 151.482 63.7286 152.43 61.2129 152.894L61.123 152.403C59.9522 152.619 58.7327 152.727 57.4639 152.727H54.2715V153.227H47.8857V152.727H41.501V153.227H35.1162V152.727H28.7314V153.227H22.3467V152.727H19.1543C17.8853 152.727 16.6653 152.619 15.4941 152.403L15.4033 152.894C12.8874 152.43 10.5792 151.482 8.47852 150.05L8.76074 149.638C7.77529 148.966 6.83467 148.183 5.93945 147.288L5.6084 146.95C4.8497 146.157 4.17689 145.329 3.58887 144.467L3.17578 144.747C1.74317 142.646 0.795089 140.339 0.332031 137.822L0.824219 137.733C0.635582 136.709 0.528535 135.646 0.504883 134.546L0.5 134.072V131.146H0V125.294H0.5V119.441H0V113.589H0.5V107.736H0V101.884H0.5V96.0312H0V90.1797H0.5V84.3271H0V78.4746H0.5V72.6221H0V66.7695H0.5V63.8438C0.5 62.9993 0.520022 62.1589 0.560547 61.3242L0.0615234 61.3008C0.134732 59.7926 0.273319 58.2997 0.477539 56.8223L0.561523 56.2393L1.05566 56.3135C1.3058 54.6494 1.64067 53.0052 2.05957 51.3809L1.5752 51.2559L1.57422 51.2549C1.99569 49.6207 2.50319 48.0067 3.09375 46.4121L3.09668 46.4033L3.56641 46.5762C3.78441 45.9879 4.0136 45.4022 4.25488 44.8193L4.5 44.2373C4.82359 43.4822 5.16166 42.7399 5.5127 42.0098L5.06152 41.793C5.78311 40.2921 6.56335 38.8436 7.40039 37.4463L7.82812 37.7031C8.67222 36.294 9.57579 34.9381 10.5381 33.6357L10.1367 33.3379C10.8834 32.3275 11.6651 31.3485 12.4824 30.4014L13.2617 29.5195L13.6328 29.8545C14.0426 29.4019 14.4609 28.9569 14.8877 28.5195L15.3174 28.085C15.894 27.5084 16.4843 26.9467 17.0879 26.4004L16.7529 26.0293C17.9715 24.9263 19.2447 23.8844 20.5723 22.9033L20.8691 23.3047C22.1716 22.3422 23.5275 21.439 24.9365 20.5947L24.6797 20.167C26.0771 19.3297 27.5255 18.549 29.0264 17.8271L29.2432 18.2773C29.6083 18.1017 29.9772 17.9305 30.3486 17.7617L31.4717 17.2656C32.2466 16.9337 33.0262 16.6226 33.8105 16.332L33.6367 15.8633L33.6357 15.8623C35.2336 15.2703 36.8517 14.7641 38.4893 14.3418L38.6143 14.8262C40.2385 14.4073 41.8829 14.0725 43.5469 13.8223L43.4727 13.3271C45.1401 13.0764 46.8273 12.9101 48.5342 12.8271L48.5586 13.3262C49.3931 13.2856 50.2328 13.2656 51.0771 13.2656H52.6729V12.7656H55.8652V13.2656H57.4609C57.8598 13.2656 58.2429 13.3015 58.6104 13.373L58.7061 12.8828V12.8818C59.5288 13.042 60.2904 13.368 60.9922 13.8564L60.707 14.2666C60.9372 14.4268 61.1614 14.6071 61.3799 14.8076L61.5967 15.0146C61.8822 15.3004 62.1312 15.5966 62.3447 15.9033L62.7539 15.6182C63.2428 16.3204 63.5675 17.0829 63.7275 17.9062H63.7285L63.2373 18.001C63.3088 18.3685 63.3447 18.7517 63.3447 19.1504V22.3438H63.8447V28.7285H63.3447V31.9209C63.3447 32.3198 63.3087 32.7028 63.2373 33.0703L63.7275 33.165C63.5676 33.9883 63.2428 34.7501 62.7539 35.4521L62.3447 35.168C62.1846 35.3979 62.0042 35.6216 61.8037 35.8398L61.5967 36.0566C61.3107 36.3423 61.0138 36.5911 60.707 36.8047L60.9922 37.2139C60.29 37.7027 59.5282 38.0274 58.7051 38.1875L58.6104 37.6973C58.2428 37.7688 57.8598 37.8057 57.4609 37.8057H55.8652V38.3057H52.6729V37.8057H51.0771C50.2118 37.8057 49.3606 37.842 48.5244 37.916L48.5684 38.4141C46.8608 38.5653 45.2183 38.8741 43.6406 39.3398L43.499 38.8604C41.8537 39.346 40.2774 39.9997 38.7705 40.8203L39.0098 41.2588C37.5653 42.0454 36.1857 42.9891 34.8711 44.0898L34.5498 43.707C34.067 44.1113 33.593 44.5361 33.1279 44.9814L32.666 45.4326C32.054 46.0446 31.4785 46.6729 30.9395 47.3164L31.3232 47.6377C30.2223 48.9521 29.278 50.3312 28.4912 51.7754L28.0518 51.5361C27.2309 53.0431 26.5776 54.6202 26.0918 56.2656L26.5713 56.4072C26.1055 57.9848 25.7968 59.6274 25.6455 61.335L25.1475 61.291C25.0734 62.1273 25.0371 62.9783 25.0371 63.8438V64.6416H25.5371V66.2363H25.0371V67.0342C25.0371 67.7117 25.0943 68.3679 25.2109 69.001L25.7031 68.9102L25.7041 68.9092C25.9358 70.1671 26.409 71.321 27.125 72.3711V72.3721L26.7119 72.6543C26.9848 73.0544 27.2903 73.4392 27.6279 73.8086L27.9766 74.1729C28.4554 74.6516 28.9617 75.0737 29.4951 75.4375L29.7764 75.0244V75.0225C30.8269 75.7392 31.9809 76.2126 33.2393 76.4443V76.4463L33.1484 76.9375C33.7814 77.0541 34.4369 77.1123 35.1143 77.1123H37.9082V76.6123H43.4941V77.1123H49.0811V76.6123H54.668V77.1123H57.4609C58.73 77.1123 59.9499 77.2208 61.1211 77.4365L61.2109 76.9453C63.7265 77.4086 66.0347 78.3559 68.1348 79.7881L67.8535 80.2012C68.7159 80.7894 69.5437 81.4629 70.3369 82.2217L70.6748 82.5518C71.5702 83.4472 72.3531 84.3879 73.0254 85.373L73.4375 85.0908Z" stroke="#335769" stroke-dasharray="6 6"/>
<path d="M162.824 85.0918C164.257 87.1924 165.204 89.4994 165.667 92.0156L165.176 92.1064C165.391 93.2774 165.499 94.4972 165.499 95.7666V98.959H165.999V105.343H165.499V111.728H165.999V118.111H165.499V124.496H165.999V130.88H165.499V134.072C165.499 135.342 165.391 136.562 165.176 137.733L165.666 137.822C165.203 140.339 164.257 142.647 162.823 144.748L162.411 144.467C161.823 145.329 161.15 146.157 160.391 146.95L160.061 147.288C159.166 148.183 158.226 148.967 157.24 149.639L157.521 150.051C155.421 151.483 153.113 152.43 150.597 152.894L150.508 152.403C149.337 152.619 148.117 152.727 146.848 152.727H143.655V153.227H137.271V152.727H130.886V153.227H124.502V152.727H118.117V153.227H111.733V152.727H108.54C107.271 152.727 106.051 152.619 104.88 152.403L104.79 152.894C102.274 152.43 99.9666 151.483 97.8664 150.051L98.1477 149.639C97.1624 148.967 96.2224 148.183 95.3274 147.288L94.9963 146.95C94.2378 146.157 93.5648 145.329 92.9768 144.467L92.5637 144.747C91.1311 142.646 90.1833 140.339 89.7199 137.822L90.2112 137.733C90.0224 136.709 89.9155 135.646 89.8918 134.546L89.8869 134.072V131.146H89.3869V125.294H89.8869V119.441H89.3869V113.589H89.8869V107.736H89.3869V101.884H89.8869V96.0312H89.3869V90.1797H89.8869V84.3271H89.3869V78.4746H89.8869V72.6221H89.3869V66.7695H89.8869V63.8438C89.8869 62.9993 89.9069 62.1589 89.9475 61.3242L89.4485 61.3008C89.5314 59.5936 89.6976 57.9061 89.9485 56.2383L89.9494 56.2393L90.4436 56.3135C90.6939 54.6494 91.0284 53.0052 91.4475 51.3809L90.9631 51.2559L90.9621 51.2549C91.3846 49.6174 91.8926 48 92.4846 46.4023L92.4856 46.4033L92.9543 46.5771C93.1724 45.9887 93.4015 45.4024 93.6428 44.8193L93.8879 44.2373C94.2113 43.4823 94.5487 42.7398 94.8996 42.0098L94.4494 41.793C95.171 40.2919 95.951 38.8429 96.7883 37.4453L97.216 37.7021C98.0601 36.2932 98.9636 34.9379 99.926 33.6357L99.5246 33.3379C100.271 32.3274 101.054 31.3486 101.871 30.4014L102.651 29.5195L103.022 29.8545C103.432 29.4019 103.85 28.9569 104.277 28.5195L104.706 28.085C105.283 27.5084 105.873 26.9467 106.477 26.4004L106.141 26.0293C107.359 24.9263 108.633 23.8854 109.96 22.9043L110.257 23.3057C111.559 22.3431 112.916 21.4391 114.324 20.5947L114.067 20.167C115.464 19.3295 116.913 18.5491 118.413 17.8271L118.63 18.2773C118.995 18.1018 119.363 17.9304 119.735 17.7617L120.858 17.2656C121.633 16.9337 122.413 16.6226 123.197 16.332L123.024 15.8633L123.023 15.8623C124.621 15.2704 126.239 14.7632 127.876 14.3408L127.877 14.3418L128.002 14.8252C129.627 14.4063 131.271 14.0715 132.936 13.8213L132.862 13.3271C134.529 13.0765 136.217 12.91 137.924 12.8271L137.948 13.3262C138.783 13.2857 139.623 13.2656 140.467 13.2656H142.063V12.7656H145.254V13.2656H146.85C147.249 13.2656 147.632 13.3016 147.999 13.373L148.095 12.8828V12.8818C148.918 13.0419 149.68 13.3674 150.381 13.8555L150.097 14.2666C150.327 14.4267 150.552 14.6062 150.77 14.8066L150.986 15.0146C151.271 15.3005 151.521 15.5965 151.735 15.9033L152.144 15.6182C152.633 16.3201 152.958 17.0823 153.118 17.9053V17.9062L152.628 18.001C152.7 18.3685 152.736 18.7517 152.736 19.1504V22.3438H153.236V28.7285H152.736V31.9209C152.736 32.3197 152.7 32.7028 152.628 33.0703L153.118 33.166C152.958 33.9888 152.632 34.7504 152.144 35.4521L151.735 35.167C151.574 35.3971 151.393 35.6214 151.193 35.8398L150.986 36.0566C150.7 36.3423 150.404 36.5912 150.097 36.8047L150.381 37.2148C149.679 37.7034 148.917 38.0276 148.094 38.1875L147.999 37.6973C147.632 37.7687 147.249 37.8057 146.85 37.8057H145.254V38.3057H142.063V37.8057H140.467C139.602 37.8057 138.75 37.842 137.914 37.916L137.958 38.4141C136.25 38.5652 134.608 38.8744 133.03 39.3398L132.889 38.8594C131.243 39.345 129.666 39.9988 128.159 40.8193L128.399 41.2588C126.954 42.0454 125.574 42.989 124.26 44.0898L123.939 43.7061C123.456 44.1102 122.983 44.5353 122.518 44.9805L122.055 45.4336C121.443 46.0455 120.868 46.673 120.329 47.3164L120.713 47.6377C119.612 48.9524 118.669 50.3318 117.882 51.7764L117.443 51.5371C116.622 53.0439 115.969 54.6203 115.484 56.2656L115.963 56.4072C115.497 57.9848 115.189 59.6273 115.037 61.335L114.539 61.291C114.465 62.1272 114.428 62.9783 114.428 63.8438V64.6416H114.928V66.2363H114.428V67.0342C114.428 67.7117 114.486 68.3679 114.603 69.001L115.094 68.9102L115.095 68.9092C115.326 70.1676 115.8 71.3216 116.517 72.3721L116.516 72.373L116.103 72.6543C116.466 73.1873 116.889 73.6925 117.367 74.1709V74.1719C117.846 74.6509 118.352 75.0735 118.885 75.4375L119.167 75.0244V75.0234C120.217 75.7396 121.371 76.2126 122.628 76.4443V76.4463L122.538 76.9375C123.171 77.0541 123.827 77.1123 124.504 77.1123H127.297V76.6123H132.883V77.1123H138.47V76.6123H144.057V77.1123H146.85C148.119 77.1123 149.339 77.2208 150.51 77.4365L150.599 76.9453C153.115 77.4085 155.423 78.3559 157.523 79.7881L157.242 80.2012C158.105 80.7894 158.933 81.4628 159.726 82.2217L160.063 82.5518C160.958 83.4473 161.741 84.3877 162.412 85.373L162.824 85.0918Z" stroke="#335769" stroke-dasharray="6 6"/>
</svg>
