<svg width="21" height="21" viewBox="0 0 21 21" fill="none" xmlns="http://www.w3.org/2000/svg">
<path d="M10.5001 21C16.2991 21 21.0001 16.299 21.0001 10.5C21.0001 4.701 16.2991 0 10.5001 0C4.70112 0 0.00012207 4.701 0.00012207 10.5C0.00012207 16.299 4.70112 21 10.5001 21Z" fill="white"/>
<path d="M0.984954 6.05591C0.84138 6.36278 0.712286 6.67767 0.598389 6.9998H2.33343L0.984954 6.05591Z" fill="#0053B5"/>
<path d="M6.99998 0.598145C5.46997 1.139 4.10293 2.02421 2.9917 3.16091L6.99998 5.8331V0.598145Z" fill="#0053B5"/>
<path d="M18.0083 3.16091C16.8971 2.02415 15.53 1.13895 14 0.598145V5.83316L18.0083 3.16091Z" fill="#0053B5"/>
<path d="M20.015 14.9436C20.1586 14.6368 20.2877 14.3219 20.4016 13.9998H18.6666L20.015 14.9436Z" fill="#0053B5"/>
<path d="M20.4016 6.9998C20.2877 6.67762 20.1586 6.36273 20.015 6.05591L18.6666 6.9998H20.4016Z" fill="#0053B5"/>
<path d="M2.9917 17.8385C4.10293 18.9752 5.46997 19.8605 6.99998 20.4013V15.1663L2.9917 17.8385Z" fill="#0053B5"/>
<path d="M0.598389 13.9998C0.712286 14.3219 0.84138 14.6368 0.984954 14.9436L2.33343 13.9998H0.598389Z" fill="#0053B5"/>
<path d="M13.9999 20.4015C15.53 19.8606 16.897 18.9754 18.0082 17.8387L13.9999 15.1665V20.4015Z" fill="#0053B5"/>
<path d="M7.00001 5.83341L2.99173 3.16122C2.76332 3.39488 2.5457 3.63908 2.33973 3.89318L7.00007 7.00007H4.08339L1.44884 5.17617C1.28084 5.46116 1.12599 5.75472 0.984959 6.05618L2.33343 7.00007H0.598394C0.46427 7.37951 0.351036 7.76873 0.260681 8.16673H7.00001V12.8334H0.260681C0.350981 13.2314 0.46427 13.6206 0.598394 14H2.33343L0.984959 14.9439C1.12599 15.2453 1.28084 15.5389 1.44884 15.8239L4.08339 14H7.00007L2.33973 17.1069C2.5457 17.361 2.76332 17.6052 2.99173 17.8389L7.00001 15.1667V20.4017C7.37945 20.5358 7.76867 20.6491 8.16667 20.7394C8.16667 20.0296 8.16667 0.98082 8.16667 0.260742C7.76867 0.351042 7.37945 0.464331 7.00001 0.598455V5.83341Z" fill="white"/>
<path d="M14 8.16654H20.7393C20.649 7.76854 20.5357 7.37932 20.4016 6.99988H18.6665L20.015 6.05599C19.874 5.75459 19.7191 5.46097 19.5511 5.17598L16.9166 6.99988H13.9999L18.6603 3.89299C18.4543 3.63889 18.2367 3.39469 18.0083 3.16103L14 5.83322V0.598211C13.6205 0.464087 13.2313 0.350853 12.8333 0.260498V20.7392C13.2313 20.6489 13.6205 20.5356 14 20.4015V15.1664L18.0083 17.8386C18.2367 17.605 18.4543 17.3608 18.6603 17.1067L13.9999 13.9998H16.9166L19.5511 15.8237C19.7191 15.5387 19.874 15.2451 20.015 14.9437L18.6665 13.9998H20.4016C20.5357 13.6203 20.6489 13.2311 20.7393 12.8331H14V8.16654Z" fill="white"/>
<path d="M0.260658 12.8331H6.99999V8.1665H0.260658C-0.0764469 9.65209 -0.0971705 11.2563 0.260658 12.8331Z" fill="#D80027"/>
<path d="M20.7393 8.1665H14V12.8331H20.7393C21.0764 11.3476 21.0971 9.74332 20.7393 8.1665Z" fill="#D80027"/>
<path d="M8.16663 0.260658V20.7393C9.65221 21.0764 11.2564 21.0972 12.8333 20.7393C12.8333 19.411 12.8333 1.1699 12.8333 0.260658C11.3477 -0.0764469 9.74345 -0.0971705 8.16663 0.260658Z" fill="#D80027"/>
<path d="M19.5512 5.17605C19.2857 4.72577 18.9878 4.29704 18.6603 3.89307L13.9999 6.99996H16.9166L19.5512 5.17605Z" fill="#D80027"/>
<path d="M1.44879 5.17605L4.08335 6.99996H7.00002L2.33969 3.89307C2.0122 4.29704 1.71422 4.72577 1.44879 5.17605Z" fill="#D80027"/>
<path d="M1.44879 15.8239C1.71422 16.2742 2.0122 16.7029 2.33969 17.1069L7.00002 14H4.08335L1.44879 15.8239Z" fill="#D80027"/>
<path d="M13.9999 14L18.6603 17.1069C18.9877 16.7029 19.2857 16.2742 19.5512 15.8239L16.9166 14H13.9999Z" fill="#D80027"/>
</svg>
