<svg width="341" height="680" viewBox="0 0 341 680" fill="none" xmlns="http://www.w3.org/2000/svg">
<path d="M318.26 472.547L320.533 477.027V477.028L320.087 477.254L322.36 481.735L322.807 481.509V481.508L325.079 485.988V485.989L324.633 486.216L326.906 490.696L327.352 490.47V490.469L329.625 494.949V494.95L329.179 495.177L331.452 499.657L331.897 499.432V499.431L334.171 503.911V503.912L333.725 504.138L335.998 508.619L336.443 508.393V508.392L338.717 512.872V512.873L338.271 513.1L339.407 515.34L339.409 515.345C339.68 515.865 339.88 516.408 340.012 516.962L340.497 516.847C340.783 518.055 340.767 519.313 340.478 520.521L339.991 520.404C339.858 520.96 339.664 521.506 339.41 522.03L338.229 524.277L338.671 524.509L336.309 529.003L335.866 528.771L333.503 533.264L333.945 533.497L331.582 537.99L331.14 537.758L328.776 542.251L329.219 542.483L326.855 546.978L326.413 546.745L324.05 551.238L324.492 551.471L322.129 555.964L321.687 555.731L319.324 560.226L319.766 560.457L317.403 564.951L316.961 564.719L314.598 569.212L315.039 569.444L312.677 573.938L312.234 573.706L309.871 578.199L310.313 578.432L307.95 582.926L307.508 582.693L305.145 587.187L305.587 587.418L303.224 591.912L302.782 591.68L300.419 596.174L300.86 596.405L298.498 600.899L298.056 600.667L295.692 605.16L296.134 605.393L293.771 609.887L293.329 609.654L290.966 614.147L291.408 614.38L289.045 618.873L288.603 618.641L286.24 623.135L286.682 623.366L284.318 627.86L283.877 627.628L281.514 632.122L281.955 632.354L279.593 636.848L279.15 636.615L276.787 641.108L277.229 641.341L274.866 645.834L274.424 645.603L272.062 650.096L272.503 650.327L270.14 654.821L269.698 654.589L267.335 659.083L267.776 659.314L265.413 663.809L264.972 663.576L262.608 668.07L263.05 668.302L260.688 672.796L260.245 672.563L259.063 674.811C258.735 675.437 258.341 675.987 257.897 676.462L258.261 676.802C257.236 677.898 255.959 678.625 254.598 678.984L254.472 678.502C253.245 678.826 251.945 678.831 250.714 678.52L250.469 678.453L250.33 678.933C248.98 678.541 247.719 677.786 246.715 676.669L247.086 676.336C246.651 675.853 246.267 675.295 245.949 674.663L245.948 674.662L244.832 672.451L244.385 672.677L242.152 668.254H242.153L242.6 668.029L240.367 663.607L239.921 663.832H239.92L237.687 659.41L238.135 659.185L235.901 654.763L235.454 654.988L233.222 650.566L233.669 650.341L231.437 645.919L230.99 646.145H230.989L228.756 641.722L229.203 641.497L226.971 637.074L226.523 637.3L224.291 632.878H224.292L224.738 632.652L222.506 628.23L222.06 628.456H222.059L219.826 624.033L220.272 623.809L218.04 619.387L217.594 619.611H217.593L215.36 615.189H215.361L215.808 614.964L213.574 610.542L213.127 610.768L210.895 606.346L211.342 606.12L209.109 601.698L208.662 601.924L206.43 597.501H206.431L206.877 597.276L204.644 592.854L204.196 593.079L201.964 588.657L202.411 588.432L200.179 584.01L199.732 584.235H199.731L197.499 579.813H197.5L197.946 579.588L195.713 575.166L195.267 575.391L193.033 570.969H193.034L193.48 570.744L191.248 566.321L190.802 566.547H190.801L188.568 562.124L189.015 561.899L186.782 557.478L186.335 557.703L184.103 553.281L184.55 553.056L182.317 548.634L181.871 548.858H181.87L179.637 544.437L180.084 544.211L177.852 539.789L177.404 540.015L175.172 535.593L175.619 535.367L173.387 530.945L172.94 531.171H172.939L170.707 526.748L171.153 526.523L168.921 522.102L168.474 522.326L166.241 517.904H166.242L166.688 517.679L164.455 513.257L164.009 513.481L161.776 509.06L162.223 508.835L159.99 504.413L159.543 504.639L157.311 500.216H157.312L157.758 499.991L155.524 495.568L155.077 495.794L152.845 491.372L153.292 491.146L151.06 486.725L150.612 486.95L148.38 482.527L148.827 482.303L146.594 477.881L146.146 478.105L143.914 473.684L144.361 473.458L142.129 469.036L141.683 469.262H141.682L139.449 464.839L139.896 464.614L137.663 460.192L137.217 460.417L134.983 455.995H134.984L135.431 455.771L133.198 451.349L132.752 451.573H132.751L130.519 447.15L130.965 446.926L128.732 442.504L128.285 442.729L126.053 438.308L126.5 438.082L124.268 433.66L123.82 433.885L121.587 429.463L122.034 429.238L119.802 424.815L119.354 425.041L117.122 420.619L117.569 420.394L115.336 415.972L114.89 416.196L112.657 411.774L113.104 411.55L110.871 407.128L110.424 407.353L108.191 402.931H108.192L108.639 402.706L106.405 398.283L105.959 398.508L103.727 394.086L104.173 393.861L101.94 389.439L101.493 389.665L99.2607 385.242L99.708 385.018L97.4746 380.596L97.0273 380.82L94.7949 376.398L95.2422 376.173L93.0098 371.751L92.5625 371.977L90.3301 367.554L90.7764 367.329L88.5439 362.907L88.0977 363.132L85.8643 358.71L86.3115 358.485L84.0791 354.062L83.6328 354.288H83.6318L81.3994 349.865L81.8457 349.641L79.6133 345.219L79.167 345.443L76.9336 341.022L77.3809 340.797L75.1475 336.375L74.7012 336.599L72.4688 332.177L72.915 331.953L70.6826 327.53L70.2354 327.756L68.0029 323.334L68.4502 323.108L66.2168 318.687L65.7705 318.911L63.5381 314.489L63.9844 314.265L61.752 309.843L61.3047 310.067L59.0723 305.646L59.5195 305.42L57.2861 300.998L56.8398 301.223L54.6074 296.801L55.0537 296.576L52.8213 292.154L52.375 292.379L50.1416 287.956L50.5879 287.732L48.3555 283.31L47.9092 283.534L45.6768 279.112L46.123 278.888L43.8906 274.466L43.4434 274.691L41.2109 270.269L41.6572 270.044L39.4248 265.622L38.9775 265.847L36.7451 261.425L37.1924 261.2L34.96 256.777L34.5127 257.003L32.2803 252.58L32.7266 252.355L30.4941 247.934L30.0479 248.158L27.8154 243.736L28.2617 243.512L26.0283 239.09L25.582 239.313L23.3496 234.892L23.7959 234.667L21.5635 230.245L21.1172 230.47L18.8838 226.049L19.3311 225.823L17.0977 221.401L16.6514 221.626L14.4189 217.203L14.8652 216.979L13.749 214.769V214.768L13.1992 213.666C13.018 213.298 12.8382 212.93 12.6611 212.561L12.2129 212.774C11.4995 211.286 10.8193 209.787 10.1729 208.277L10.6299 208.081C9.98307 206.57 9.36955 205.05 8.79004 203.52L8.32422 203.695C7.7399 202.152 7.18905 200.601 6.67285 199.04L7.14746 198.884C6.63162 197.324 6.14967 195.757 5.70215 194.182L5.2207 194.317C4.77008 192.732 4.3543 191.138 3.97266 189.539L4.45898 189.424C4.07793 187.827 3.73094 186.224 3.41895 184.616L2.92969 184.71C2.61576 183.092 2.33708 181.469 2.09277 179.842L2.58496 179.769C2.34135 178.146 2.13308 176.52 1.95898 174.891L1.46387 174.942C1.28882 173.304 1.149 171.663 1.04395 170.021L1.54004 169.989C1.43537 168.353 1.36595 166.714 1.33105 165.075L0.833008 165.085C0.797977 163.439 0.797963 161.792 0.833008 160.146L1.33105 160.157C1.36595 158.518 1.43537 156.88 1.54004 155.243L1.04395 155.211C1.14901 153.568 1.28881 151.927 1.46387 150.289L1.95898 150.342C2.13308 148.713 2.34135 147.086 2.58496 145.464L2.09277 145.39C2.3371 143.763 2.61574 142.139 2.92969 140.521L3.41895 140.616C3.73094 139.008 4.07793 137.405 4.45898 135.809L3.97266 135.692C4.3515 134.105 4.76413 132.523 5.21094 130.949L5.2207 130.914L5.70215 131.051C6.14968 129.476 6.63161 127.908 7.14746 126.349L6.67285 126.191C7.18906 124.631 7.73989 123.079 8.32422 121.536L8.79004 121.713C9.36955 120.183 9.98307 118.662 10.6299 117.151L10.1729 116.954C10.8193 115.444 11.4995 113.945 12.2129 112.457L12.6611 112.672C12.8382 112.303 13.018 111.934 13.1992 111.566L13.749 110.465V110.464L14.8604 108.257L14.4141 108.032L16.6367 103.618L16.6377 103.619L17.084 103.844L19.3066 99.4307L18.8604 99.2061L21.083 94.791L21.084 94.792L21.5303 95.0176L23.7529 90.6035L23.3066 90.3789L25.5293 85.9648L25.5303 85.9658L25.9766 86.1904L28.2002 81.7773L27.7529 81.5527L29.9756 77.1377L29.9766 77.1387L30.4229 77.3643L32.6465 72.9502L32.1992 72.7256L34.4219 68.3115L34.4229 68.3125L34.8691 68.5371L37.0928 64.124L36.6455 63.8984L38.8682 59.4844L38.8691 59.4854L39.3154 59.7109L41.5391 55.2969L41.0918 55.0723L43.3145 50.6582L43.3154 50.6592L43.7617 50.8838L45.9854 46.4707L45.5381 46.2451L47.7607 41.8311L47.7617 41.832L48.208 42.0576L50.4316 37.6436L49.9844 37.4189L52.207 33.0049L52.208 33.0059L52.6543 33.2305L54.8779 28.8174L54.4307 28.5918L56.6533 24.1777L56.6543 24.1787L57.1006 24.4033L59.3242 19.9902L58.877 19.7656L61.0996 15.3516L61.1006 15.3525L61.5469 15.5771L63.7705 11.1641L63.3242 10.9385L63.3232 10.9375L65.5459 6.52441L65.5469 6.52539L65.9932 6.75L67.1055 4.54395C67.4253 3.90865 67.814 3.34931 68.2549 2.86621L67.8857 2.53027C68.9012 1.41745 70.1806 0.672717 71.5498 0.295898L71.6826 0.777344C72.9973 0.415654 74.4011 0.415726 75.7158 0.777344L75.8477 0.294922C77.217 0.67142 78.496 1.41674 79.5117 2.5293L79.1445 2.86621C79.5302 3.28883 79.8763 3.76961 80.1709 4.30859L80.2939 4.54395L80.2949 4.54492L81.4316 6.78613L81.877 6.55957L84.1494 11.04H84.1504L83.7041 11.2666L85.9775 15.7471L86.4229 15.5215V15.5205L88.6953 20.002H88.6963L88.25 20.2275L90.5234 24.709L90.9688 24.4824V24.4814L93.2412 28.9629H93.2422L92.7959 29.1895L95.0693 33.6699L95.5137 33.4434L97.7871 37.9238L97.3418 38.1504L99.6152 42.6309L100.061 42.4053V42.4043L102.333 46.8857H102.334L101.888 47.1113L104.161 51.5928L104.605 51.3662L106.879 55.8467L106.434 56.0732L108.706 60.5537L109.151 60.3271L111.425 64.8086H111.426L110.979 65.0342L113.252 69.5146L113.697 69.2891L115.971 73.7686V73.7695L115.525 73.9961L117.798 78.4766L118.243 78.25L120.517 82.7295V82.7305L120.071 82.957L122.344 87.4375L122.789 87.2109L125.062 91.6914V91.6924L124.617 91.918L126.89 96.3984L127.335 96.1729L129.608 100.652V100.653L129.163 100.88L131.436 105.36L131.881 105.134L134.153 109.614H134.154L133.709 109.841L135.981 114.321L136.427 114.096L138.7 118.575V118.576L138.254 118.802L140.527 123.283L140.973 123.057V123.056L143.245 127.537H143.246L142.8 127.764L145.073 132.244L145.519 132.018V132.017L147.791 136.498H147.792L147.346 136.725L149.619 141.205L150.064 140.979V140.979L152.337 145.46H152.338L151.892 145.686L154.165 150.167L154.61 149.94V149.939L156.883 154.421H156.884L156.438 154.647L158.711 159.128L159.156 158.901V158.9L161.429 163.383H161.43L160.983 163.608L163.256 168.089L163.702 167.863V167.862L165.975 172.344H165.976L165.529 172.57L167.802 177.051L168.248 176.824V176.823L170.521 181.304V181.305L170.075 181.531L172.348 186.012L172.793 185.785L175.066 190.266V190.267L174.621 190.492L176.894 194.973L177.34 194.747V194.746L179.612 199.227V199.228L179.167 199.454L181.439 203.935L181.885 203.708L184.158 208.188V208.188L183.713 208.415L185.985 212.896L186.432 212.67V212.669L188.704 217.149V217.15L188.259 217.376L190.531 221.857L190.977 221.631L193.25 226.11V226.111L192.804 226.338L195.077 230.818L195.522 230.592L197.795 235.072H197.796L197.35 235.299L199.623 239.779L200.068 239.554V239.553L202.342 244.033V244.034L201.896 244.26L204.169 248.741L204.614 248.515V248.514L206.887 252.995H206.888L206.441 253.222L208.715 257.702L209.16 257.476V257.475L211.433 261.956H211.434L210.987 262.183L213.261 266.663L213.706 266.438V266.437L215.979 270.918H215.979L215.533 271.144L217.806 275.625L218.252 275.398V275.397L220.524 279.879H220.525L220.079 280.105L222.352 284.586L222.798 284.359V284.358L225.07 288.84V288.841L224.625 289.066L226.897 293.547L227.344 293.321V293.32L229.616 297.801V297.802L229.171 298.028L231.443 302.509L231.89 302.282V302.281L234.162 306.762V306.763L233.717 306.989L235.989 311.47L236.436 311.244V311.243L238.708 315.724V315.725L238.263 315.95L240.535 320.432L240.981 320.205V320.204L243.254 324.685V324.686L242.809 324.912L245.081 329.393L245.526 329.166L247.8 333.646V333.646L247.354 333.873L249.627 338.354L250.073 338.128V338.127L252.346 342.607V342.608L251.899 342.835L254.173 347.315L254.618 347.089L256.892 351.568V351.569L256.445 351.796L258.719 356.276L259.164 356.05V356.049L261.438 360.53V360.531L260.991 360.757L263.265 365.237L263.71 365.012V365.011L265.983 369.491V369.492L265.537 369.719L267.811 374.199L268.256 373.973V373.972L270.528 378.453H270.529L270.083 378.68L272.356 383.16L272.802 382.935V382.934L275.075 387.414V387.415L274.629 387.641L276.902 392.122L277.348 391.896V391.895L279.621 396.375V396.376L279.175 396.603L281.448 401.083L281.894 400.856V400.855L284.167 405.337V405.338L283.721 405.563L285.993 410.044L286.439 409.818V409.817L288.713 414.298V414.299L288.267 414.525L290.539 419.006L290.985 418.779V418.778L293.258 423.259V423.26L292.812 423.486L295.085 427.967L295.531 427.741V427.74L297.804 432.221V432.222L297.358 432.447L299.631 436.929L300.077 436.702V436.701L302.35 441.182V441.183L301.904 441.409L304.177 445.89L304.623 445.663V445.662L306.896 450.144V450.145L306.45 450.37L308.723 454.851L309.169 454.625V454.624L311.441 459.104V459.105L310.996 459.332L313.269 463.812L313.715 463.586V463.585L315.987 468.065V468.066L315.542 468.293L317.814 472.773L318.26 472.547Z" stroke="#C5E6F4" stroke-dasharray="5 5"/>
</svg>
