<svg width="871" height="680" viewBox="0 0 871 680" fill="none" xmlns="http://www.w3.org/2000/svg">
<path d="M861.289 175.926L863.515 180.314H863.516L863.069 180.541L864.182 182.732V182.733C864.375 183.118 864.727 183.789 865.163 184.631L865.605 184.4C866.151 185.453 866.835 186.788 867.531 188.216L867.084 188.435C867.698 189.694 868.32 191.024 868.863 192.292L869.321 192.095C869.957 193.581 870.488 194.987 870.772 196.106H870.773L870.289 196.23C870.405 196.687 870.474 197.075 870.494 197.388C870.514 197.704 870.478 197.891 870.436 197.987L869.227 200.117L869.661 200.363L867.211 204.679L866.776 204.433L864.326 208.747L864.76 208.993L862.31 213.31L861.875 213.062L859.425 217.378L859.858 217.624L857.408 221.939L856.974 221.693L854.523 226.009L854.957 226.255L852.507 230.569L852.073 230.323L849.622 234.639L850.057 234.885L847.605 239.2L847.172 238.954L844.722 243.27L845.155 243.516L842.704 247.831L842.271 247.585L839.82 251.9L840.254 252.146L837.804 256.461L837.369 256.215L834.919 260.53L835.353 260.776L832.902 265.092L832.469 264.846L830.018 269.161L830.451 269.407L828.002 273.723L827.567 273.477L825.116 277.791L825.551 278.037L823.101 282.354L822.666 282.106L820.216 286.422L820.649 286.668L818.199 290.984L817.765 290.737L815.314 295.053L815.748 295.299L813.298 299.613L812.863 299.368L810.413 303.683L810.848 303.93L808.396 308.244L807.963 307.998L805.512 312.313L805.946 312.561L803.495 316.875L803.062 316.629L800.61 320.944L801.045 321.189L798.595 325.506L798.16 325.259L795.71 329.574L796.144 329.82L793.693 334.137L793.259 333.89L790.809 338.205L791.242 338.451L788.793 342.767L788.357 342.521L787.133 344.678L787.126 344.689L787.119 344.702C786.8 345.344 786.398 345.92 785.932 346.427L786.298 346.765C785.273 347.877 783.959 348.672 782.544 349.127L782.392 348.652C781.116 349.062 779.755 349.179 778.463 348.984L778.205 348.941L778.114 349.432C776.643 349.16 775.264 348.501 774.179 347.426L774.53 347.072C774.055 346.602 773.639 346.044 773.304 345.395L772.151 343.113L771.705 343.337L769.397 338.766L769.844 338.541L767.536 333.969L767.089 334.194L764.781 329.621L765.228 329.396L762.92 324.825L762.474 325.049L760.166 320.478L760.612 320.253L758.305 315.681L757.857 315.906L755.55 311.333L755.996 311.108L753.688 306.537L753.241 306.762L750.934 302.19L751.381 301.965L749.072 297.393L748.626 297.617L746.317 293.046L746.765 292.821L744.457 288.249L744.011 288.474L741.702 283.901L742.148 283.677L739.841 279.104L739.395 279.329L737.086 274.758L737.533 274.533L735.226 269.961L734.778 270.186L732.471 265.613L732.917 265.389L730.609 260.816L730.162 261.042L727.854 256.47H727.855L728.302 256.245L725.993 251.673L725.547 251.897L723.239 247.325L723.686 247.101L721.378 242.529L720.931 242.754L718.623 238.182L719.069 237.957L717.916 235.671L717.372 234.582C717.193 234.219 717.016 233.854 716.841 233.489L716.392 233.703C715.687 232.234 715.014 230.752 714.371 229.258L714.828 229.062C714.187 227.572 713.577 226.069 712.999 224.556L712.534 224.733C711.953 223.211 711.402 221.679 710.884 220.137L711.357 219.979C710.841 218.441 710.356 216.894 709.903 215.338L709.423 215.478C708.968 213.913 708.546 212.34 708.155 210.761L708.64 210.642C708.25 209.067 707.893 207.485 707.568 205.897L707.079 205.997C706.752 204.401 706.46 202.799 706.198 201.193L706.689 201.114C706.429 199.513 706.201 197.907 706.006 196.299L705.512 196.358C705.316 194.741 705.153 193.121 705.023 191.499L705.52 191.46C705.39 189.843 705.294 188.224 705.231 186.605L704.734 186.624C704.671 184.997 704.641 183.369 704.646 181.742L705.143 181.743C705.147 180.121 705.184 178.5 705.256 176.882L704.758 176.86C704.83 175.233 704.935 173.608 705.075 171.986L705.572 172.029C705.712 170.414 705.885 168.802 706.093 167.195L705.598 167.131C705.805 165.527 706.045 163.929 706.32 162.336L706.326 162.303L706.818 162.388C707.095 160.791 707.406 159.2 707.751 157.616L707.263 157.51C707.61 155.919 707.993 154.336 708.409 152.762L708.891 152.89C709.305 151.323 709.755 149.766 710.239 148.219L709.764 148.069C710.249 146.517 710.77 144.974 711.326 143.443L711.794 143.614C712.347 142.092 712.934 140.582 713.557 139.084L713.099 138.893C713.723 137.391 714.382 135.902 715.076 134.428L715.525 134.641C715.859 133.932 716.202 133.226 716.552 132.523L716.586 132.532L717.717 130.287L717.271 130.062L719.533 125.57L719.979 125.796L722.241 121.305L721.795 121.08L724.058 116.589L724.504 116.813L726.767 112.322L726.319 112.098L728.582 107.606L729.028 107.831L731.291 103.341L730.844 103.115L733.106 98.624L733.553 98.8496L735.815 94.3584L735.369 94.1338L735.368 94.1328L737.631 89.6426L738.077 89.8672L740.34 85.376L739.894 85.1514L742.155 80.6602L742.603 80.8848L744.864 76.3945L744.418 76.1689L746.681 71.6777L747.127 71.9033L749.389 67.4121L748.942 67.1875L751.205 62.6963L751.651 62.9209L753.913 58.4297L753.467 58.2051L755.729 53.7139L756.176 53.9385L758.438 49.4482L757.991 49.2227L760.254 44.7314L760.7 44.957L762.963 40.4658L762.517 40.2412L762.516 40.2402L764.778 35.75L765.225 35.9746L767.487 31.4834L767.041 31.2588L769.303 26.7676L769.749 26.9922L770.881 24.7471L770.882 24.7441C771.196 24.1114 771.583 23.5547 772.025 23.0732L771.657 22.7354C772.668 21.6347 773.951 20.8953 775.327 20.5225L775.458 21.0059C776.771 20.6502 778.174 20.6491 779.489 21.0059L779.619 20.5234C780.99 20.8953 782.272 21.6321 783.288 22.7383L782.921 23.0762C783.307 23.4966 783.653 23.9751 783.947 24.5127L784.069 24.7471L784.07 24.748L785.183 26.9424L785.629 26.7168V26.7158L787.854 31.1045H787.854L787.408 31.3311L789.634 35.7197L790.079 35.4932V35.4922L792.305 39.8809V39.8818L791.859 40.1084L794.084 44.4961L794.53 44.2705V44.2695L796.755 48.6592H796.756L796.31 48.8848L798.535 53.2734L798.98 53.0479V53.0469L801.206 57.4346V57.4355L800.761 57.6621L802.985 62.0508L803.431 61.8242L805.656 66.2129H805.657L805.211 66.4395L807.437 70.8281L807.882 70.6016V70.6006L810.107 74.9893V74.9902L809.662 75.2158L811.887 79.6045L812.333 79.3789V79.3779L814.558 83.7666L814.112 83.9932L816.338 88.3818L816.783 88.1553V88.1543L819.008 92.5439H819.009L818.562 92.7705L820.788 97.1592L821.233 96.9326L823.459 101.321H823.46L823.014 101.547L825.239 105.936L825.685 105.71V105.709L827.91 110.098V110.099L827.464 110.324L829.689 114.713L830.135 114.486L832.36 118.875L831.915 119.102L834.141 123.49L834.586 123.264V123.263L836.811 127.652H836.812L836.365 127.878L838.591 132.267L839.036 132.041L841.262 136.43H841.263L840.816 136.655L843.042 141.044L843.486 140.817L845.712 145.206H845.713L845.267 145.433L847.492 149.821L847.938 149.595L850.163 153.983L849.718 154.209L851.943 158.598L852.389 158.372V158.371L854.613 162.761H854.614L854.168 162.986L856.394 167.375L856.839 167.148L859.063 171.537H859.064L858.619 171.764L860.845 176.152L861.289 175.926Z" stroke="#C5E6F4" stroke-dasharray="5 5"/>
<path d="M335.638 508.387L337.911 512.867L337.466 513.094L338.603 515.334L338.604 515.339C338.876 515.859 339.076 516.402 339.207 516.956L339.692 516.841C339.979 518.049 339.963 519.307 339.673 520.516L339.187 520.398C339.053 520.954 338.859 521.5 338.605 522.024L337.424 524.271L337.866 524.503L335.503 528.996L335.061 528.765L332.698 533.258L333.14 533.49L330.776 537.983L330.335 537.752L327.972 542.245L328.413 542.477L326.05 546.971L325.608 546.739L323.245 551.232L323.687 551.464L321.324 555.958L320.882 555.726L318.52 560.22L318.961 560.451L316.598 564.944L316.156 564.713L313.793 569.206L314.234 569.438L311.871 573.932L311.43 573.7L309.066 578.193L309.508 578.425L307.145 582.919L306.703 582.688L304.34 587.181L304.782 587.412L302.419 591.906L301.978 591.674L299.614 596.168L300.056 596.399L297.692 600.893L297.251 600.661L294.888 605.154L295.329 605.387L292.966 609.88L292.524 609.648L290.161 614.142L290.604 614.374L288.24 618.867L287.798 618.635L285.436 623.129L285.877 623.36L283.514 627.854L283.072 627.622L280.709 632.116L281.15 632.348L278.787 636.841L278.346 636.609L275.982 641.103L276.424 641.335L274.062 645.829L273.619 645.597L271.256 650.09L271.698 650.321L269.335 654.815L268.894 654.583L266.53 659.077L266.972 659.309L264.608 663.803L264.167 663.57L261.804 668.064L262.245 668.296L259.883 672.79L259.44 672.558L258.259 674.805C257.93 675.431 257.536 675.982 257.093 676.456L257.456 676.796C256.431 677.892 255.155 678.619 253.793 678.979L253.667 678.496C252.359 678.841 250.967 678.825 249.664 678.447L249.524 678.926C248.174 678.534 246.914 677.78 245.91 676.662L246.281 676.33C245.847 675.847 245.463 675.289 245.145 674.657L245.144 674.656L244.027 672.445L243.58 672.671L241.348 668.248H241.349L241.795 668.023L239.562 663.602L239.116 663.826H239.115L236.882 659.404L237.329 659.179L235.097 654.757L234.649 654.982L232.417 650.561L232.864 650.335L230.632 645.913L230.186 646.139H230.185L227.951 641.716L228.398 641.491L226.166 637.068L225.719 637.294L223.486 632.872H223.487L223.934 632.646L221.701 628.225L221.254 628.449L219.021 624.027L219.468 623.803L217.235 619.381L216.789 619.605H216.788L214.556 615.184H214.557L215.003 614.958L212.77 610.536L212.322 610.762L210.09 606.34L210.537 606.114L208.305 601.692L207.857 601.918L205.625 597.495H205.626L206.072 597.271L203.839 592.849L203.392 593.073L201.159 588.651L201.606 588.426L199.374 584.004L198.928 584.229H198.927L196.694 579.807L197.142 579.582L194.908 575.16L194.462 575.385L192.229 570.963H192.229L192.676 570.738L190.443 566.315L189.997 566.541H189.996L187.764 562.118L188.21 561.894L185.978 557.472L185.53 557.697L183.298 553.275L183.745 553.05L181.513 548.628L181.066 548.853H181.065L178.832 544.431L179.279 544.205L177.047 539.783L176.6 540.009L174.367 535.587L174.814 535.361L172.582 530.939L172.135 531.164L169.902 526.742L170.349 526.518L168.116 522.096L167.669 522.32L165.437 517.898H165.438L165.884 517.673L163.65 513.251L163.204 513.476L160.972 509.054L161.418 508.829L159.186 504.407L158.738 504.633L156.506 500.21H156.507L156.953 499.985L154.72 495.562L154.272 495.788L152.04 491.366L152.487 491.141L150.255 486.719L149.808 486.944L147.575 482.521L148.021 482.297L145.789 477.875L145.342 478.1L143.109 473.678L143.557 473.452L141.324 469.03L140.878 469.256H140.877L138.645 464.833L139.091 464.608L136.858 460.187L136.412 460.411L134.179 455.989H134.18L134.626 455.765L132.394 451.343L131.947 451.567H131.946L129.714 447.145L130.16 446.92L127.928 442.498L127.48 442.724L125.248 438.302L125.695 438.076L123.462 433.654L123.016 433.879L120.782 429.457L121.229 429.232L118.997 424.81L118.55 425.035L116.317 420.613L116.765 420.388L114.531 415.966L114.085 416.19L111.853 411.769L112.299 411.544L110.066 407.122L109.619 407.347L107.387 402.925H107.388L107.834 402.7L105.601 398.277L105.154 398.502L102.922 394.08L103.368 393.855L101.136 389.434L100.688 389.659L98.4561 385.236L98.9023 385.012L96.6699 380.59L96.2227 380.814L93.9902 376.393L94.4375 376.167L92.2051 371.745L91.7578 371.971L89.5254 367.548L89.9717 367.323L87.7393 362.901L87.293 363.126L85.0596 358.704L85.5068 358.479L83.2744 354.057L82.8281 354.282H82.8271L80.5947 349.859L81.041 349.635L78.8086 345.213L78.3623 345.438L76.1289 341.017L76.5762 340.791L74.3428 336.369L73.8965 336.593L71.6641 332.171L72.1104 331.947L69.8779 327.524L69.4307 327.75L67.1982 323.328L67.6455 323.103L65.4121 318.681L64.9658 318.905L62.7334 314.483L63.1797 314.259L60.9473 309.837L60.5 310.062L58.2676 305.64L58.7148 305.414L56.4814 300.992L56.0352 301.217L53.8027 296.795L54.249 296.57L52.0166 292.148L51.5703 292.373L49.3369 287.95L49.7832 287.727L47.5508 283.304L47.1045 283.528L44.8721 279.106L45.3184 278.882L43.0859 274.46L42.6387 274.686L40.4062 270.263L40.8525 270.038L38.6201 265.616L38.1729 265.841L35.9404 261.419L36.3877 261.194L34.1553 256.771L33.708 256.996L31.4756 252.574L31.9219 252.35L29.6895 247.928L29.2432 248.152L27.0107 243.73L27.457 243.506L25.2236 239.084L24.7773 239.308L22.5449 234.886L22.9912 234.661L20.7588 230.239L20.3125 230.464L18.0791 226.043L18.5264 225.817L16.293 221.396L15.8467 221.62L13.6143 217.197L14.0605 216.974L12.9443 214.763V214.762L12.3945 213.66C12.2133 213.292 12.0335 212.924 11.8564 212.555L11.4082 212.769C10.6948 211.28 10.0146 209.781 9.36816 208.271L9.8252 208.075C9.17838 206.565 8.56487 205.044 7.98535 203.514L7.51953 203.689C6.93522 202.147 6.38436 200.595 5.86816 199.034L6.34277 198.878C5.82693 197.319 5.34498 195.751 4.89746 194.176L4.41602 194.312C3.9654 192.726 3.54961 191.132 3.16797 189.533L3.6543 189.418C3.27324 187.821 2.92625 186.218 2.61426 184.61L2.125 184.704C1.81107 183.086 1.53239 181.463 1.28809 179.836L1.78027 179.763C1.53666 178.14 1.32839 176.514 1.1543 174.885L0.65918 174.937C0.484136 173.298 0.344309 171.657 0.239258 170.015L0.735352 169.983C0.630687 168.347 0.561262 166.708 0.526367 165.069L0.0283203 165.079C-0.00671027 163.433 -0.00672458 161.787 0.0283203 160.141L0.526367 160.151C0.561262 158.512 0.630686 156.874 0.735352 155.237L0.239258 155.205C0.344323 153.562 0.484122 151.921 0.65918 150.283L1.1543 150.336C1.32839 148.707 1.53666 147.08 1.78027 145.458L1.28809 145.384C1.53241 143.757 1.81106 142.134 2.125 140.516L2.61426 140.61C2.92625 139.002 3.27325 137.399 3.6543 135.803L3.16797 135.687C3.54681 134.099 3.95945 132.518 4.40625 130.943L4.41602 130.908L4.89746 131.045C5.34499 129.47 5.82692 127.902 6.34277 126.343L5.86816 126.186C6.38437 124.625 6.93521 123.073 7.51953 121.53L7.98535 121.707C8.56487 120.177 9.17838 118.656 9.8252 117.146L9.36816 116.948C10.0146 115.439 10.6948 113.939 11.4082 112.451L11.8564 112.666C12.0335 112.297 12.2133 111.928 12.3945 111.561L12.9443 110.459L13.3115 109.733H13.2314L13.9795 108.252L13.5332 108.026L15.7588 103.612L15.7598 103.613L16.2061 103.838L18.4326 99.4248L17.9854 99.2002L20.2119 94.7861L20.6582 95.0117L22.8848 90.5986L22.4385 90.373L24.665 85.96L25.1113 86.1846L27.3379 81.7715L26.8916 81.5469L26.8906 81.5459L29.1172 77.1318L29.1182 77.1328L29.5645 77.3584L31.791 72.9453L31.3447 72.7197L31.3438 72.7188L33.5703 68.3066L34.0176 68.5312L36.2432 64.1182L35.7969 63.8926L38.0234 59.4795L38.4697 59.7051L40.6963 55.292L40.25 55.0664L40.249 55.0654L42.4756 50.6523L42.4766 50.6533L42.9229 50.8779L45.1494 46.4648L44.7031 46.2393L44.7021 46.2383L46.9287 41.8252L46.9297 41.8262L47.376 42.0518L49.6025 37.6387L49.1553 37.4131L51.3809 32.999L51.3818 33L51.8281 33.2246L54.0547 28.8115L53.6084 28.5859L53.6074 28.585L55.834 24.1719L55.835 24.1729L56.2812 24.3984L58.5078 19.9844L58.0615 19.7598L58.0605 19.7588L60.2871 15.3457L60.2881 15.3467L60.7344 15.5713L62.9609 11.1582L62.5146 10.9326L62.5137 10.9316L64.7393 6.51855L64.7402 6.51953L65.1865 6.74512L66.2998 4.53809H66.3008C66.6206 3.90279 67.0093 3.34345 67.4502 2.86035L67.0811 2.52441C68.0966 1.41159 69.3759 0.666857 70.7451 0.290039L70.8779 0.771484C72.1926 0.409792 73.5964 0.409861 74.9111 0.771484L75.043 0.289062C76.4123 0.665563 77.6913 1.41088 78.707 2.52344L78.3398 2.86035C78.7255 3.28298 79.0716 3.76374 79.3662 4.30273L79.4893 4.53809L79.4902 4.53906L80.627 6.78027L81.0723 6.55371L83.3447 11.0342H83.3457L82.8994 11.2607L85.1729 15.7412L85.6182 15.5156V15.5146L87.8906 19.9961H87.8916L87.4453 20.2217L89.7188 24.7031L90.1641 24.4766V24.4756L92.4365 28.957H92.4375L91.9912 29.1836L94.2646 33.6641L94.709 33.4375L96.9824 37.918L96.5371 38.1445L98.8105 42.625L99.2559 42.3994V42.3984L101.528 46.8799H101.529L101.083 47.1055L103.355 51.5869L103.801 51.3604L106.074 55.8408L105.629 56.0674L107.901 60.5479L108.347 60.3213L110.62 64.8027L110.175 65.0283L112.447 69.5088L112.893 69.2832L115.166 73.7627V73.7637L114.721 73.9902L116.993 78.4707L117.438 78.2441L119.711 82.7246H119.712L119.267 82.9512L121.539 87.4316L121.984 87.2051L124.258 91.6855V91.6865L123.812 91.9121L126.085 96.3926L126.53 96.167L128.803 100.647H128.804L128.358 100.874L130.631 105.354L131.076 105.128L133.349 109.608H133.35L132.903 109.835L135.177 114.315L135.622 114.09L137.895 118.57H137.896L137.449 118.796L139.723 123.277L140.168 123.051V123.05L142.44 127.531H142.441L141.995 127.758L144.269 132.238L144.714 132.012V132.011L146.986 136.492L146.541 136.719L148.814 141.199L149.26 140.974V140.973L151.532 145.454H151.533L151.087 145.68L153.36 150.161L153.805 149.935L156.078 154.415L155.633 154.642L157.906 159.122L158.351 158.896L160.624 163.377H160.625L160.179 163.603L162.451 168.083L162.896 167.857L165.17 172.338L164.725 172.564L166.997 177.045L167.442 176.818L169.716 181.298V181.299L169.271 181.525L171.543 186.006L171.988 185.779L174.262 190.26V190.261L173.816 190.486L176.089 194.967L176.534 194.741L178.808 199.221V199.222L178.362 199.448L180.635 203.929L181.08 203.702L183.353 208.183H183.354L182.908 208.409L185.181 212.89L185.626 212.664L187.899 217.144V217.145L187.453 217.37L189.727 221.852L190.172 221.625L192.444 226.105H192.445L191.999 226.332L194.272 230.812L194.718 230.586V230.585L196.99 235.066L196.545 235.293L198.818 239.773L199.264 239.548V239.547L201.536 244.028H201.537L201.091 244.254L203.364 248.735L203.81 248.509V248.508L206.082 252.989L205.637 253.216L207.91 257.696L208.354 257.47L210.628 261.95L210.183 262.177L212.456 266.657L212.901 266.432V266.431L215.174 270.912L214.729 271.138L217.001 275.619L217.446 275.393L219.72 279.873L219.274 280.1L221.547 284.58L221.992 284.354L224.266 288.834V288.835L223.82 289.061L226.093 293.541L226.538 293.315L228.812 297.795V297.796L228.366 298.022L230.639 302.503L231.084 302.276L233.356 306.757H233.357L232.912 306.983L235.185 311.464L235.63 311.238L237.903 315.718V315.719L237.458 315.944L239.73 320.426L240.176 320.199L242.448 324.68H242.449L242.004 324.906L244.276 329.387L244.722 329.16L246.994 333.641H246.995L246.549 333.867L248.822 338.348L249.268 338.122L251.54 342.603H251.541L251.095 342.829L253.368 347.31L253.813 347.083V347.082L256.086 351.563H256.087L255.641 351.79L257.914 356.271L258.358 356.044L260.632 360.525H260.633L260.187 360.751L262.46 365.231L262.905 365.006V365.005L265.178 369.486H265.179L264.732 369.713L267.006 374.193L267.45 373.967L269.724 378.447L269.278 378.674L271.552 383.154L271.997 382.929V382.928L274.27 387.409H274.271L273.824 387.635L276.098 392.116L276.542 391.89L278.815 396.37L278.37 396.597L280.643 401.077L281.088 400.851L283.361 405.332L282.916 405.558L285.188 410.038L285.634 409.812L287.907 414.292V414.293L287.462 414.52L289.734 419L290.18 418.773L292.452 423.254H292.453L292.008 423.48L294.28 427.961L294.726 427.735L296.999 432.215V432.216L296.554 432.441L298.826 436.923L299.271 436.696L301.544 441.177H301.545L301.1 441.403L303.372 445.884L303.817 445.657L306.091 450.138V450.139L305.646 450.364L307.918 454.845L308.363 454.619L310.636 459.1H310.637L310.191 459.326L312.464 463.807L312.909 463.58L315.182 468.061H315.183L314.736 468.287L317.01 472.768L317.455 472.541L319.728 477.022H319.729L319.282 477.248L321.556 481.729L322.001 481.503V481.502L324.273 485.983H324.274L323.828 486.21L326.102 490.69L326.546 490.464L328.819 494.944L328.374 495.171L330.647 499.651L331.093 499.426V499.425L333.365 503.906H333.366L332.92 504.132L335.193 508.613L335.638 508.387Z" stroke="#C5E6F4" stroke-dasharray="5 5"/>
<path d="M668.26 472.547L670.533 477.027V477.028L670.087 477.254L672.36 481.735L672.807 481.509V481.508L675.079 485.988V485.989L674.633 486.216L676.906 490.696L677.352 490.47V490.469L679.625 494.949V494.95L679.179 495.177L681.452 499.657L681.897 499.432V499.431L684.171 503.911V503.912L683.725 504.138L685.998 508.619L686.443 508.393V508.392L688.717 512.872V512.873L688.271 513.1L689.407 515.34L689.409 515.345C689.68 515.865 689.88 516.408 690.012 516.962L690.497 516.847C690.783 518.055 690.767 519.313 690.478 520.521L689.991 520.404C689.858 520.96 689.664 521.506 689.41 522.03L688.229 524.277L688.671 524.509L686.309 529.003L685.866 528.771L683.503 533.264L683.945 533.497L681.582 537.99L681.14 537.758L678.776 542.251L679.219 542.483L676.855 546.978L676.413 546.745L674.05 551.238L674.492 551.471L672.129 555.964L671.687 555.731L669.324 560.226L669.766 560.457L667.403 564.951L666.961 564.719L664.598 569.212L665.039 569.444L662.677 573.938L662.234 573.706L659.871 578.199L660.313 578.432L657.95 582.926L657.508 582.693L655.145 587.187L655.587 587.418L653.224 591.912L652.782 591.68L650.419 596.174L650.86 596.405L648.498 600.899L648.056 600.667L645.692 605.16L646.134 605.393L643.771 609.887L643.329 609.654L640.966 614.147L641.408 614.38L639.045 618.873L638.603 618.641L636.24 623.135L636.682 623.366L634.318 627.86L633.877 627.628L631.514 632.122L631.955 632.354L629.593 636.848L629.15 636.615L626.787 641.108L627.229 641.341L624.866 645.834L624.424 645.603L622.062 650.096L622.503 650.327L620.14 654.821L619.698 654.589L617.335 659.083L617.776 659.314L615.413 663.809L614.972 663.576L612.608 668.07L613.05 668.302L610.688 672.796L610.245 672.563L609.063 674.811C608.735 675.437 608.341 675.987 607.897 676.462L608.261 676.802C607.236 677.898 605.959 678.625 604.598 678.984L604.472 678.502C603.245 678.826 601.945 678.831 600.714 678.52L600.469 678.453L600.33 678.933C598.98 678.541 597.719 677.786 596.715 676.669L597.086 676.336C596.651 675.853 596.267 675.295 595.949 674.663L595.948 674.662L594.832 672.451L594.385 672.677L592.152 668.254H592.153L592.6 668.029L590.367 663.607L589.921 663.832H589.92L587.687 659.41L588.135 659.185L585.901 654.763L585.454 654.988L583.222 650.566L583.669 650.341L581.437 645.919L580.99 646.145H580.989L578.756 641.722L579.203 641.497L576.971 637.074L576.523 637.3L574.291 632.878H574.292L574.738 632.652L572.506 628.23L572.06 628.456H572.059L569.826 624.033L570.272 623.809L568.04 619.387L567.594 619.611H567.593L565.36 615.189H565.361L565.808 614.964L563.574 610.542L563.127 610.768L560.895 606.346L561.342 606.12L559.109 601.698L558.662 601.924L556.43 597.501H556.431L556.877 597.276L554.644 592.854L554.196 593.079L551.964 588.657L552.411 588.432L550.179 584.01L549.732 584.235H549.731L547.499 579.813H547.5L547.946 579.588L545.713 575.166L545.267 575.391L543.033 570.969H543.034L543.48 570.744L541.248 566.321L540.802 566.547H540.801L538.568 562.124L539.015 561.899L536.782 557.478L536.335 557.703L534.103 553.281L534.55 553.056L532.317 548.634L531.871 548.858H531.87L529.637 544.437L530.084 544.211L527.852 539.789L527.404 540.015L525.172 535.593L525.619 535.367L523.387 530.945L522.94 531.171H522.939L520.707 526.748L521.153 526.523L518.921 522.102L518.474 522.326L516.241 517.904H516.242L516.688 517.679L514.455 513.257L514.009 513.481L511.776 509.06L512.223 508.835L509.99 504.413L509.543 504.639L507.311 500.216H507.312L507.758 499.991L505.524 495.568L505.077 495.794L502.845 491.372L503.292 491.146L501.06 486.725L500.612 486.95L498.38 482.527L498.827 482.303L496.594 477.881L496.146 478.105L493.914 473.684L494.361 473.458L492.129 469.036L491.683 469.262H491.682L489.449 464.839L489.896 464.614L487.663 460.192L487.217 460.417L484.983 455.995H484.984L485.431 455.771L483.198 451.349L482.752 451.573H482.751L480.519 447.15L480.965 446.926L478.732 442.504L478.285 442.729L476.053 438.308L476.5 438.082L474.268 433.66L473.82 433.885L471.587 429.463L472.034 429.238L469.802 424.815L469.354 425.041L467.122 420.619L467.569 420.394L465.336 415.972L464.89 416.196L462.657 411.774L463.104 411.55L460.871 407.128L460.424 407.353L458.191 402.931H458.192L458.639 402.706L456.405 398.283L455.959 398.508L453.727 394.086L454.173 393.861L451.94 389.439L451.493 389.665L449.261 385.242L449.708 385.018L447.475 380.596L447.027 380.82L444.795 376.398L445.242 376.173L443.01 371.751L442.562 371.977L440.33 367.554L440.776 367.329L438.544 362.907L438.098 363.132L435.864 358.71L436.312 358.485L434.079 354.062L433.633 354.288H433.632L431.399 349.865L431.846 349.641L429.613 345.219L429.167 345.443L426.934 341.022L427.381 340.797L425.147 336.375L424.701 336.599L422.469 332.177L422.915 331.953L420.683 327.53L420.235 327.756L418.003 323.334L418.45 323.108L416.217 318.687L415.771 318.911L413.538 314.489L413.984 314.265L411.752 309.843L411.305 310.067L409.072 305.646L409.52 305.42L407.286 300.998L406.84 301.223L404.607 296.801L405.054 296.576L402.821 292.154L402.375 292.379L400.142 287.956L400.588 287.732L398.355 283.31L397.909 283.534L395.677 279.112L396.123 278.888L393.891 274.466L393.443 274.691L391.211 270.269L391.657 270.044L389.425 265.622L388.978 265.847L386.745 261.425L387.192 261.2L384.96 256.777L384.513 257.003L382.28 252.58L382.727 252.355L380.494 247.934L380.048 248.158L377.815 243.736L378.262 243.512L376.028 239.09L375.582 239.313L373.35 234.892L373.796 234.667L371.563 230.245L371.117 230.47L368.884 226.049L369.331 225.823L367.098 221.401L366.651 221.626L364.419 217.203L364.865 216.979L363.749 214.769V214.768L363.199 213.666C363.018 213.298 362.838 212.93 362.661 212.561L362.213 212.774C361.5 211.286 360.819 209.787 360.173 208.277L360.63 208.081C359.983 206.57 359.37 205.05 358.79 203.52L358.324 203.695C357.74 202.152 357.189 200.601 356.673 199.04L357.147 198.884C356.632 197.324 356.15 195.757 355.702 194.182L355.221 194.317C354.77 192.732 354.354 191.138 353.973 189.539L354.459 189.424C354.078 187.827 353.731 186.224 353.419 184.616L352.93 184.71C352.616 183.092 352.337 181.469 352.093 179.842L352.585 179.769C352.341 178.146 352.133 176.52 351.959 174.891L351.464 174.942C351.289 173.304 351.149 171.663 351.044 170.021L351.54 169.989C351.435 168.353 351.366 166.714 351.331 165.075L350.833 165.085C350.798 163.439 350.798 161.792 350.833 160.146L351.331 160.157C351.366 158.518 351.435 156.88 351.54 155.243L351.044 155.211C351.149 153.568 351.289 151.927 351.464 150.289L351.959 150.342C352.133 148.713 352.341 147.086 352.585 145.464L352.093 145.39C352.337 143.763 352.616 142.139 352.93 140.521L353.419 140.616C353.731 139.008 354.078 137.405 354.459 135.809L353.973 135.692C354.351 134.105 354.764 132.523 355.211 130.949L355.221 130.914L355.702 131.051C356.15 129.476 356.632 127.908 357.147 126.349L356.673 126.191C357.189 124.631 357.74 123.079 358.324 121.536L358.79 121.713C359.37 120.183 359.983 118.662 360.63 117.151L360.173 116.954C360.819 115.444 361.499 113.945 362.213 112.457L362.661 112.672C362.838 112.303 363.018 111.934 363.199 111.566L363.749 110.465V110.464L364.86 108.257L364.414 108.032L366.637 103.618L366.638 103.619L367.084 103.844L369.307 99.4307L368.86 99.2061L371.083 94.791L371.084 94.792L371.53 95.0176L373.753 90.6035L373.307 90.3789L375.529 85.9648L375.53 85.9658L375.977 86.1904L378.2 81.7773L377.753 81.5527L379.976 77.1377L379.977 77.1387L380.423 77.3643L382.646 72.9502L382.199 72.7256L384.422 68.3115L384.423 68.3125L384.869 68.5371L387.093 64.124L386.646 63.8984L388.868 59.4844L388.869 59.4854L389.315 59.7109L391.539 55.2969L391.092 55.0723L393.314 50.6582L393.315 50.6592L393.762 50.8838L395.985 46.4707L395.538 46.2451L397.761 41.8311L397.762 41.832L398.208 42.0576L400.432 37.6436L399.984 37.4189L402.207 33.0049L402.208 33.0059L402.654 33.2305L404.878 28.8174L404.431 28.5918L406.653 24.1777L406.654 24.1787L407.101 24.4033L409.324 19.9902L408.877 19.7656L411.1 15.3516L411.101 15.3525L411.547 15.5771L413.771 11.1641L413.324 10.9385L413.323 10.9375L415.546 6.52441L415.547 6.52539L415.993 6.75L417.105 4.54395C417.425 3.90865 417.814 3.34931 418.255 2.86621L417.886 2.53027C418.901 1.41745 420.181 0.672717 421.55 0.295898L421.683 0.777344C422.997 0.415654 424.401 0.415726 425.716 0.777344L425.848 0.294922C427.217 0.67142 428.496 1.41674 429.512 2.5293L429.145 2.86621C429.53 3.28883 429.876 3.76961 430.171 4.30859L430.294 4.54395L430.295 4.54492L431.432 6.78613L431.877 6.55957L434.149 11.04H434.15L433.704 11.2666L435.978 15.7471L436.423 15.5215V15.5205L438.695 20.002H438.696L438.25 20.2275L440.523 24.709L440.969 24.4824V24.4814L443.241 28.9629H443.242L442.796 29.1895L445.069 33.6699L445.514 33.4434L447.787 37.9238L447.342 38.1504L449.615 42.6309L450.061 42.4053V42.4043L452.333 46.8857H452.334L451.888 47.1113L454.161 51.5928L454.605 51.3662L456.879 55.8467L456.434 56.0732L458.706 60.5537L459.151 60.3271L461.425 64.8086H461.426L460.979 65.0342L463.252 69.5146L463.697 69.2891L465.971 73.7686V73.7695L465.525 73.9961L467.798 78.4766L468.243 78.25L470.517 82.7295V82.7305L470.071 82.957L472.344 87.4375L472.789 87.2109L475.062 91.6914V91.6924L474.617 91.918L476.89 96.3984L477.335 96.1729L479.608 100.652V100.653L479.163 100.88L481.436 105.36L481.881 105.134L484.153 109.614H484.154L483.709 109.841L485.981 114.321L486.427 114.096L488.7 118.575V118.576L488.254 118.802L490.527 123.283L490.973 123.057V123.056L493.245 127.537H493.246L492.8 127.764L495.073 132.244L495.519 132.018V132.017L497.791 136.498H497.792L497.346 136.725L499.619 141.205L500.064 140.979V140.979L502.337 145.46H502.338L501.892 145.686L504.165 150.167L504.61 149.94V149.939L506.883 154.421H506.884L506.438 154.647L508.711 159.128L509.156 158.901V158.9L511.429 163.383H511.43L510.983 163.608L513.256 168.089L513.702 167.863V167.862L515.975 172.344H515.976L515.529 172.57L517.802 177.051L518.248 176.824V176.823L520.521 181.304V181.305L520.075 181.531L522.348 186.012L522.793 185.785L525.066 190.266V190.267L524.621 190.492L526.894 194.973L527.34 194.747V194.746L529.612 199.227V199.228L529.167 199.454L531.439 203.935L531.885 203.708L534.158 208.188V208.188L533.713 208.415L535.985 212.896L536.432 212.67V212.669L538.704 217.149V217.15L538.259 217.376L540.531 221.857L540.977 221.631L543.25 226.11V226.111L542.804 226.338L545.077 230.818L545.522 230.592L547.795 235.072H547.796L547.35 235.299L549.623 239.779L550.068 239.554V239.553L552.342 244.033V244.034L551.896 244.26L554.169 248.741L554.614 248.515V248.514L556.887 252.995H556.888L556.441 253.222L558.715 257.702L559.16 257.476V257.475L561.433 261.956H561.434L560.987 262.183L563.261 266.663L563.706 266.438V266.437L565.979 270.918H565.979L565.533 271.144L567.806 275.625L568.252 275.398V275.397L570.524 279.879H570.525L570.079 280.105L572.352 284.586L572.798 284.359V284.358L575.07 288.84V288.841L574.625 289.066L576.897 293.547L577.344 293.321V293.32L579.616 297.801V297.802L579.171 298.028L581.443 302.509L581.89 302.282V302.281L584.162 306.762V306.763L583.717 306.989L585.989 311.47L586.436 311.244V311.243L588.708 315.724V315.725L588.263 315.95L590.535 320.432L590.981 320.205V320.204L593.254 324.685V324.686L592.809 324.912L595.081 329.393L595.526 329.166L597.8 333.646V333.646L597.354 333.873L599.627 338.354L600.073 338.128V338.127L602.346 342.607V342.608L601.899 342.835L604.173 347.315L604.618 347.089L606.892 351.568V351.569L606.445 351.796L608.719 356.276L609.164 356.05V356.049L611.438 360.53V360.531L610.991 360.757L613.265 365.237L613.71 365.012V365.011L615.983 369.491V369.492L615.537 369.719L617.811 374.199L618.256 373.973V373.972L620.528 378.453H620.529L620.083 378.68L622.356 383.16L622.802 382.935V382.934L625.075 387.414V387.415L624.629 387.641L626.902 392.122L627.348 391.896V391.895L629.621 396.375V396.376L629.175 396.603L631.448 401.083L631.894 400.856V400.855L634.167 405.337V405.338L633.721 405.563L635.993 410.044L636.439 409.818V409.817L638.713 414.298V414.299L638.267 414.525L640.539 419.006L640.985 418.779V418.778L643.258 423.259V423.26L642.812 423.486L645.085 427.967L645.531 427.741V427.74L647.804 432.221V432.222L647.358 432.447L649.631 436.929L650.077 436.702V436.701L652.35 441.182V441.183L651.904 441.409L654.177 445.89L654.623 445.663V445.662L656.896 450.144V450.145L656.45 450.37L658.723 454.851L659.169 454.625V454.624L661.441 459.104V459.105L660.996 459.332L663.269 463.812L663.715 463.586V463.585L665.987 468.065V468.066L665.542 468.293L667.814 472.773L668.26 472.547Z" stroke="#C5E6F4" stroke-dasharray="5 5"/>
</svg>
