<svg width="152" height="32" viewBox="0 0 152 32" fill="none" xmlns="http://www.w3.org/2000/svg">
<g clip-path="url(#clip0_117_1959)">
<path d="M56.3812 19.7294L53.9229 13.6413L51.0555 19.755L46.8945 9.07617H49.2828L51.3209 15.0251L52.8946 11.1007L52.0801 9.07617H54.1035L56.4217 14.7872L58.1797 9.07617H60.3726L56.3812 19.7294Z" fill="#172E3A"/>
<path d="M69.2104 9.00586V10.9608H64.1944V13.1537H68.6355V15.1086H64.1944V17.3271H69.4094V19.282H62.1562V9.00586H69.2104Z" fill="#172E3A"/>
<path d="M78.1147 14.8487C78.4206 15.255 78.5717 15.72 78.5717 16.2508C78.5717 17.2942 78.229 18.0593 77.5398 18.5462C76.8506 19.0331 75.9919 19.2784 74.9599 19.2784H71.5176V9.00586H74.5545C75.6491 9.00586 76.5115 9.22551 77.1417 9.66848C77.7683 10.1115 78.0816 10.7521 78.0816 11.5868C78.0816 12.0993 77.9747 12.5496 77.7572 12.934C77.5398 13.3221 77.2376 13.6296 76.8432 13.8639C77.385 14.1165 77.8088 14.4423 78.1147 14.8487ZM73.5557 13.2086H74.794C75.17 13.2086 75.4574 13.0951 75.6638 12.8681C75.8702 12.6411 75.9734 12.3593 75.9734 12.0224C75.9734 11.6856 75.8555 11.4147 75.6233 11.2354C75.3874 11.0523 75.0668 10.9644 74.654 10.9644H73.5594V13.2122L73.5557 13.2086ZM76.0213 17.1111C76.3162 16.9207 76.4636 16.6352 76.4636 16.2508C76.4636 15.5259 75.8813 15.1635 74.7203 15.1635H73.552V17.3967H74.8604C75.3395 17.3967 75.7265 17.3015 76.0213 17.1111Z" fill="#172E3A"/>
<path d="M87.3223 19.0738C86.751 19.2861 86.1282 19.396 85.4537 19.396C84.3775 19.396 83.4377 19.1653 82.6416 18.6967C81.8456 18.2318 81.2374 17.6058 80.8136 16.8187C80.3935 16.0316 80.1797 15.1676 80.1797 14.2304C80.1797 13.1981 80.3898 12.2755 80.8136 11.4664C81.2338 10.6574 81.8271 10.0277 82.5827 9.57375C83.3419 9.12346 84.2191 8.89648 85.2105 8.89648C85.837 8.89648 86.4193 8.98069 86.9537 9.14909C87.4882 9.31749 87.9562 9.52616 88.358 9.77876L87.5582 11.6898C86.8174 11.1296 86.0582 10.8514 85.2805 10.8514C84.7572 10.8514 84.2633 10.9942 83.8063 11.2834C83.3456 11.5726 82.9807 11.9643 82.7117 12.4622C82.4389 12.9601 82.3026 13.5129 82.3026 14.1169C82.3026 14.7796 82.4279 15.358 82.6822 15.8559C82.9365 16.3538 83.294 16.7418 83.7657 17.02C84.2338 17.2983 84.783 17.4374 85.4095 17.4374C85.9144 17.4374 86.3714 17.3568 86.7732 17.1921C87.1749 17.031 87.4955 16.837 87.7277 16.6137L88.5717 18.4295C88.31 18.6418 87.8936 18.8578 87.3223 19.0701V19.0738Z" fill="#172E3A"/>
<path d="M96.1893 19.282L94.0111 16.0165H92.6475V19.282H90.6094V9.00586H93.7421C95.0247 9.00586 96.0198 9.31704 96.7274 9.93573C97.435 10.5544 97.7888 11.4001 97.7888 12.4691C97.7888 13.1024 97.6562 13.6955 97.3871 14.2483C97.1218 14.8011 96.709 15.2367 96.1561 15.5552L98.5591 19.282H96.1856H96.1893ZM92.6475 14.0616H94.0959C94.6487 14.0616 95.0505 13.9005 95.3048 13.5783C95.5591 13.2562 95.6844 12.912 95.6844 12.5386C95.6844 12.1652 95.5775 11.8101 95.3601 11.4697C95.1463 11.1292 94.7261 10.9608 94.1107 10.9608H92.6475V14.0616Z" fill="#172E3A"/>
<path d="M105.366 17.2725H101.938L101.094 19.2824H99.0858L103.752 8.60352H103.862L108.528 19.2824H106.166L105.366 17.2725ZM104.692 15.5702L103.693 13.0698L102.653 15.5702H104.692Z" fill="#172E3A"/>
<path d="M116.496 9.00586V10.9608H112.069V13.2928H115.906V15.2477H112.069V19.282H110.031V9.00586H116.496Z" fill="#172E3A"/>
<path d="M124.733 9.00586V10.9608H122.216V19.282H120.177V10.9608H117.76V9.00586H124.729H124.733Z" fill="#172E3A"/>
<path d="M133.755 9.00586V10.9608H128.739V13.1537H133.18V15.1086H128.739V17.3271H133.954V19.282H126.701V9.00586H133.755Z" fill="#172E3A"/>
<path d="M141.639 19.282L139.46 16.0165H138.097V19.282H136.059V9.00586H139.191C140.474 9.00586 141.469 9.31704 142.177 9.93573C142.884 10.5544 143.238 11.4001 143.238 12.4691C143.238 13.1024 143.105 13.6955 142.836 14.2483C142.571 14.8011 142.158 15.2367 141.605 15.5552L144.008 19.282H141.631H141.639ZM138.097 14.0616H139.545C140.098 14.0616 140.5 13.9005 140.754 13.5783C141.008 13.2562 141.134 12.912 141.134 12.5386C141.134 12.1652 141.027 11.8101 140.809 11.4697C140.596 11.1292 140.175 10.9608 139.56 10.9608H138.097V14.0616Z" fill="#172E3A"/>
<path d="M148.878 10.7526C148.428 10.7526 148.078 10.8404 147.831 11.0162C147.584 11.1919 147.459 11.4591 147.459 11.8106C147.459 12.1364 147.639 12.422 148.001 12.6709C148.362 12.9162 148.841 13.1541 149.442 13.3775C149.928 13.5532 150.345 13.7582 150.691 13.9852C151.038 14.2121 151.325 14.527 151.557 14.926C151.786 15.3251 151.9 15.8339 151.9 16.449C151.9 16.9798 151.76 17.4704 151.487 17.9206C151.211 18.3709 150.805 18.7297 150.271 18.9969C149.737 19.2605 149.099 19.396 148.358 19.396C147.739 19.396 147.127 19.3045 146.515 19.1251C145.904 18.9457 145.34 18.6675 144.816 18.2941L145.716 16.7162C146.073 16.9761 146.478 17.1921 146.939 17.3569C147.4 17.5253 147.809 17.6095 148.178 17.6095C148.609 17.6095 148.985 17.5179 149.302 17.3386C149.619 17.1555 149.781 16.8626 149.781 16.4526C149.781 15.9218 149.28 15.4605 148.277 15.0688C147.687 14.8382 147.193 14.6112 146.803 14.3988C146.408 14.1865 146.069 13.879 145.786 13.4763C145.498 13.0773 145.358 12.5721 145.358 11.968C145.358 11.0821 145.649 10.3719 146.235 9.8337C146.821 9.29554 147.603 9.00267 148.576 8.95508C149.342 8.95508 149.987 9.04294 150.499 9.215C151.015 9.38707 151.517 9.63235 152.003 9.94718L151.229 11.4957C150.33 11.0015 149.549 10.7562 148.881 10.7562L148.878 10.7526Z" fill="#172E3A"/>
<path d="M49.7103 26.8601C49.4707 26.7905 49.2459 26.7539 49.0358 26.7539C48.7152 26.7539 48.4609 26.8271 48.2766 26.9663C48.0887 27.109 47.9965 27.3031 47.9965 27.552C47.9965 27.8009 48.1071 27.9913 48.3245 28.1451C48.542 28.2988 48.8589 28.4526 49.2643 28.6027C49.5666 28.7088 49.8246 28.826 50.0346 28.9541C50.2447 29.0823 50.4179 29.2543 50.5543 29.4776C50.6943 29.701 50.7607 29.9865 50.7607 30.3306C50.7607 30.6418 50.6833 30.9274 50.5248 31.18C50.3663 31.4326 50.1452 31.6339 49.854 31.7767C49.5629 31.9231 49.2238 31.9963 48.8331 31.9963C48.4683 31.9963 48.1181 31.9378 47.7828 31.8243C47.4474 31.7071 47.1525 31.5607 46.8945 31.385L47.2447 30.7626C47.4437 30.9127 47.6869 31.0408 47.967 31.147C48.2471 31.2532 48.5125 31.3044 48.7557 31.3044C49.069 31.3044 49.3454 31.2239 49.5813 31.0628C49.8172 30.9017 49.9351 30.6601 49.9351 30.3416C49.9351 30.0707 49.8356 29.8584 49.6366 29.701C49.4376 29.5435 49.1612 29.3934 48.8037 29.2507C48.472 29.1262 48.1992 29.0054 47.9781 28.8882C47.757 28.7711 47.569 28.6063 47.4142 28.3977C47.2557 28.189 47.1783 27.9291 47.1783 27.6179C47.1783 27.1603 47.3405 26.7905 47.6611 26.505C47.9855 26.2231 48.4019 26.073 48.9179 26.0547C49.5518 26.0547 50.1415 26.2121 50.6833 26.5233L50.3811 27.131C50.171 27.0175 49.9462 26.926 49.7066 26.8564L49.7103 26.8601Z" fill="#172E3A"/>
<path d="M58.7663 26.0918V26.8423H57.1889V31.9346H56.4002V26.8423H54.8633V26.0918H58.77H58.7663Z" fill="#172E3A"/>
<path d="M64.1841 30.5654C64.3095 30.7741 64.479 30.9388 64.6928 31.0596C64.9065 31.1805 65.1461 31.2427 65.4041 31.2427C65.6621 31.2427 65.92 31.1841 66.1412 31.0633C66.3623 30.9425 66.5318 30.7814 66.6572 30.5691C66.7825 30.3568 66.8451 30.1261 66.8451 29.8662V26.0918H67.6191V29.8918C67.6191 30.3055 67.5233 30.6753 67.3279 30.9938C67.1326 31.3159 66.8672 31.5612 66.5319 31.7369C66.1965 31.9126 65.8205 32.0005 65.4078 32.0005C64.995 32.0005 64.6301 31.9126 64.2947 31.7369C63.9593 31.5612 63.694 31.3123 63.5023 30.9938C63.3107 30.6716 63.2148 30.3055 63.2148 29.8918V26.0918H64.0036V29.8662C64.0036 30.1261 64.0662 30.3568 64.1915 30.5654H64.1841Z" fill="#172E3A"/>
<path d="M72.4922 26.0918H74.1028C74.8362 26.0918 75.4406 26.2346 75.9198 26.5238C76.3989 26.813 76.749 27.1827 76.9701 27.6404C77.1913 28.0943 77.2982 28.5776 77.2982 29.0828C77.2982 29.6502 77.1655 30.1481 76.9001 30.5837C76.6348 31.0194 76.2773 31.3525 75.835 31.5868C75.389 31.8211 74.9062 31.9383 74.3866 31.9383H72.4922V26.0955V26.0918ZM74.2318 31.1768C74.6667 31.1768 75.0537 31.0926 75.3964 30.9205C75.7392 30.7521 76.0045 30.5032 76.1999 30.181C76.3915 29.8589 76.4873 29.4708 76.4873 29.0242C76.4873 28.5776 76.3878 28.1712 76.1851 27.8454C75.9861 27.5159 75.7171 27.2669 75.3854 27.0985C75.05 26.9301 74.6925 26.8423 74.3055 26.8423H73.2809V31.1731H74.2318V31.1768Z" fill="#172E3A"/>
<path d="M82.6715 26.0918V31.9346H81.8828V26.0918H82.6715Z" fill="#172E3A"/>
<path d="M87.6575 27.53C87.9302 27.0724 88.2951 26.7063 88.7521 26.4354C89.2091 26.1645 89.7103 26.0291 90.2521 26.0291C90.7939 26.0291 91.2877 26.1645 91.7484 26.4354C92.2091 26.7063 92.5777 27.0724 92.8504 27.53C93.1232 27.9876 93.2632 28.4855 93.2632 29.0164C93.2632 29.5472 93.1268 30.0524 92.8578 30.51C92.5851 30.9676 92.2202 31.33 91.7558 31.5973C91.2914 31.8645 90.7902 31.9963 90.2558 31.9963C89.7214 31.9963 89.2128 31.8645 88.7521 31.601C88.2914 31.3374 87.9265 30.9786 87.6575 30.521C87.3884 30.067 87.2557 29.5618 87.2557 29.0127C87.2557 28.4636 87.3921 27.984 87.6612 27.5264L87.6575 27.53ZM88.3577 30.1329C88.5531 30.4734 88.8184 30.7406 89.1575 30.942C89.4966 31.1397 89.8651 31.2422 90.2668 31.2422C90.6686 31.2422 91.0371 31.1433 91.3688 30.9457C91.7005 30.748 91.9659 30.4807 92.1575 30.1366C92.3492 29.7925 92.445 29.4227 92.445 29.0164C92.445 28.61 92.3492 28.2366 92.1502 27.8925C91.9548 27.5483 91.6895 27.2738 91.3541 27.0761C91.0187 26.8784 90.6501 26.7759 90.2484 26.7759C89.8467 26.7759 89.4781 26.8784 89.1427 27.0797C88.8074 27.2811 88.542 27.5557 88.3504 27.8998C88.1587 28.2439 88.0629 28.621 88.0629 29.0237C88.0629 29.4264 88.1587 29.7925 88.354 30.1329H88.3577Z" fill="#172E3A"/>
<path d="M33.7369 6.23457L36.2947 1.15689C36.4274 0.889642 36.8217 0.885981 36.9581 1.15689L40.7321 8.59951C40.7837 8.70202 41.0749 9.23651 41.027 9.33902L37.1018 16.2508C36.9692 16.5181 36.549 16.5547 36.409 16.2838L33.7996 11.1146C33.0293 9.59162 32.9814 7.74286 33.7369 6.23091V6.23457Z" fill="#FCCC51"/>
<path d="M0.585083 5.19495L3.10232 0.205134C3.23869 -0.0657737 3.62936 -0.0657737 3.76572 0.205134L15.9723 24.2683C16.0276 24.3745 16.0239 24.4989 15.9723 24.6051L12.1872 31.8024C12.0472 32.0697 11.6639 32.066 11.5275 31.7951L0.588769 10.1299C-0.196256 8.57763 -0.196256 6.74718 0.588769 5.19495H0.585083Z" fill="#FCCC51"/>
<path d="M17.1142 5.19495L19.6277 0.205134C19.7641 -0.0657737 20.1547 -0.0657737 20.2911 0.205134L32.4977 24.2683C32.553 24.3745 32.5493 24.4989 32.4977 24.6051L28.7126 31.8024C28.5726 32.0697 28.1893 32.066 28.0529 31.7951L17.1142 10.1299C16.3291 8.57763 16.3291 6.74718 17.1142 5.19495Z" fill="#FCCC51"/>
<path d="M33.7369 6.23457L36.2947 1.15689C36.4274 0.889642 36.8217 0.885981 36.9581 1.15689L40.7321 8.59951C40.7837 8.70202 41.0749 9.23651 41.027 9.33902L37.1018 16.2508C36.9692 16.5181 36.549 16.5547 36.409 16.2838L33.7996 11.1146C33.0293 9.59162 32.9814 7.74286 33.7369 6.23091V6.23457Z" fill="#FCCC51"/>
<path d="M0.585083 5.19495L3.10232 0.205134C3.23869 -0.0657737 3.62936 -0.0657737 3.76572 0.205134L15.9723 24.2683C16.0276 24.3745 16.0239 24.4989 15.9723 24.6051L12.1872 31.8024C12.0472 32.0697 11.6639 32.066 11.5275 31.7951L0.588769 10.1299C-0.196256 8.57763 -0.196256 6.74718 0.588769 5.19495H0.585083Z" fill="#FCCC51"/>
<path d="M17.1142 5.19495L19.6277 0.205134C19.7641 -0.0657737 20.1547 -0.0657737 20.2911 0.205134L32.4977 24.2683C32.553 24.3745 32.5493 24.4989 32.4977 24.6051L28.7126 31.8024C28.5726 32.0697 28.1893 32.066 28.0529 31.7951L17.1142 10.1299C16.3291 8.57763 16.3291 6.74718 17.1142 5.19495Z" fill="#FCCC51"/>
</g>
<defs>
<clipPath id="clip0_117_1959">
<rect width="152" height="32" fill="white"/>
</clipPath>
</defs>
</svg>
