<svg width="210" height="177" viewBox="0 0 210 177" fill="none" xmlns="http://www.w3.org/2000/svg">
<g clip-path="url(#clip0_151_9471)">
<path d="M230.518 35.3724L232.726 39.725V39.726L232.28 39.9515L234.487 44.3051L234.933 44.0785L237.14 48.432H237.141L236.694 48.6586L237.799 50.8353C237.96 51.1553 238.448 52.0611 238.871 52.9808C239.082 53.4404 239.269 53.8851 239.385 54.2435C239.443 54.4235 239.477 54.5665 239.492 54.6703C239.497 54.7079 239.498 54.7338 239.498 54.7494L238.387 56.7084L238.82 56.9545L236.524 60.9974L236.091 60.7513L233.795 64.7943L234.228 65.0404L231.934 69.0834L231.499 68.8373L229.203 72.8793L229.638 73.1263L227.341 77.1683L226.907 76.9222L224.611 80.9652L225.045 81.2113L222.749 85.2543L222.315 85.0082L220.02 89.0511L220.454 89.2972L218.158 93.3402L217.724 93.0931L216.576 95.1146L216.569 95.1273L216.562 95.139C216.267 95.7351 215.635 96.0973 214.97 96.139C214.351 96.1777 213.778 95.9382 213.462 95.4301L213.402 95.3246H213.401L212.133 92.8099L211.686 93.0345L209.142 87.9955L209.589 87.7699L207.045 82.7308L206.598 82.9564L204.055 77.9164L204.501 77.6918L201.957 72.6527L201.511 72.8773L198.967 67.8392H198.968L199.414 67.6136L198.142 65.0941L197.872 64.5482C197.608 64.0009 197.361 63.4464 197.129 62.8861L196.669 63.0756C196.039 61.552 195.523 59.9859 195.129 58.3929L195.614 58.2738C195.224 56.698 194.953 55.0963 194.802 53.4867L194.307 53.5326C194.153 51.8919 194.122 50.2432 194.218 48.6039L194.715 48.6332C194.809 47.0149 195.026 45.4065 195.371 43.8265L194.883 43.7201C195.233 42.1147 195.715 40.5385 196.324 39.0072L196.786 39.1908C197.082 38.4482 197.407 37.7165 197.766 36.9984L197.775 37.0013L199.022 34.5258L198.576 34.3011L198.575 34.3002L201.069 29.351L201.516 29.5756L204.009 24.6263L203.562 24.4008L206.056 19.4515L206.503 19.6761L208.996 14.726L208.55 14.5013L211.043 9.55115L211.489 9.77576L212.736 7.30115L212.737 7.29822C213.312 6.14069 215.002 6.08768 215.663 7.1908L215.724 7.30115V7.30212L216.828 9.47888L217.273 9.2533V9.25232L219.48 13.6058L219.035 13.8324L221.242 18.1859L221.687 17.9594L223.895 22.3129L223.45 22.5385L225.657 26.892L226.103 26.6654L228.311 31.0179V31.0189L227.865 31.2455L230.072 35.598L230.518 35.3724Z" stroke="#C5E6F4" stroke-opacity="0.61" stroke-dasharray="5 5"/>
<path d="M90.0752 135.657L92.3066 140.055H92.3076L91.8613 140.282L92.9775 142.481L92.9795 142.485C93.2217 142.95 93.2126 143.509 92.9746 144.002L91.874 146.096L92.3154 146.329L90.1016 150.538L89.6602 150.306L87.4463 154.516L87.8877 154.748L85.6738 158.958L85.2324 158.726L83.0176 162.936L83.46 163.168L81.2461 167.378L80.8037 167.145L78.5898 171.355L79.0322 171.588L76.8184 175.797L76.376 175.565L74.1621 179.775L74.6045 180.007L72.3906 184.217L71.9482 183.985L70.8418 186.089L70.8408 186.09C70.2316 187.252 68.5944 187.278 67.9326 186.166L67.8721 186.054L66.7295 183.792L66.2822 184.016L63.9971 179.491L64.4443 179.265L62.1592 174.74L61.7129 174.964L59.4268 170.439L59.874 170.214L57.5889 165.688L57.1426 165.913L54.8564 161.387L55.3037 161.163L53.0186 156.636L52.5723 156.861L50.2871 152.336L50.7334 152.111L48.4482 147.585L48.002 147.809L45.7168 143.284L46.1641 143.059L43.8789 138.534L43.4326 138.758H43.4316L41.1465 134.233L41.5938 134.007L39.3086 129.482L38.8613 129.708L36.5762 125.181L37.0234 124.956L34.7383 120.43L34.291 120.656L32.0059 116.13L32.4531 115.905L30.168 111.379L29.7207 111.604L27.4365 107.078L27.8828 106.853L25.5977 102.328L25.1504 102.552L22.8662 98.027H22.8672L23.3135 97.8014L21.0283 93.276L20.582 93.5016H20.5811L18.2959 88.9752H18.2969L18.7432 88.7496L16.458 84.2242L16.0107 84.4498L13.7256 79.9235H13.7266L14.1729 79.6989L11.8877 75.1725L11.4404 75.3981L9.15527 70.8727L9.60254 70.6471L7.31738 66.1207L6.87012 66.3463L4.58496 61.8209L5.03223 61.5953L3.88965 59.3326L3.61719 58.7799C3.35003 58.2251 3.09999 57.664 2.86719 57.0983L2.40723 57.2867C1.76995 55.738 1.25796 54.1525 0.874023 52.5436L1.35938 52.4283C0.977905 50.8298 0.723113 49.2085 0.595703 47.5797L0.0996094 47.6178C-0.0301543 45.9585 -0.0301937 44.2918 0.0996094 42.6324L0.595703 42.6715C0.72311 41.0427 0.977897 39.4214 1.35938 37.8229L0.873047 37.7067C1.25702 36.0977 1.76989 34.5123 2.40723 32.9635L2.86719 33.152C3.09994 32.5864 3.3501 32.026 3.61719 31.4713L3.88965 30.9186L4.25684 30.193H4.23438L5.0957 28.486L4.64941 28.2614L4.64844 28.2604L7.10254 23.3961L7.10352 23.3971L7.5498 23.6217L10.0029 18.7574L9.55664 18.5328L9.55566 18.5319L12.0098 13.6676L12.0107 13.6686L12.457 13.8932L14.9111 9.02893L14.4648 8.80432L14.4639 8.80334L16.918 3.93811L16.9189 3.93909L17.3652 4.16467L18.5918 1.73303L18.5928 1.73206C19.1867 0.552746 20.8575 0.515899 21.5186 1.6217L21.5791 1.73206L21.5801 1.73401L22.6953 3.93323L23.1416 3.70667V3.70569L25.373 8.10413V8.1051L24.9268 8.33069L27.1582 12.7291L27.6035 12.5035V12.5026L29.835 16.901V16.902L29.3887 17.1276L31.6201 21.526L32.0654 21.2994L34.2969 25.6979H34.2979L33.8516 25.9244L36.083 30.3229L36.5283 30.0963V30.0953L38.7598 34.4938V34.4948L38.3135 34.7213L40.5449 39.1198L40.9902 38.8932L43.2217 43.2906V43.2916L42.7764 43.5182L45.0068 47.9166L45.4531 47.6901V47.6891L47.6836 52.0885H47.6846L47.2383 52.3141L49.4697 56.7125L49.915 56.4869V56.486L52.1465 60.8844V60.8854L51.7012 61.111L53.9316 65.5094L54.3779 65.2838V65.2828L56.6084 69.6813L56.1631 69.9078L58.3945 74.3063L58.8398 74.0797V74.0787L61.0703 78.4781H61.0713L60.625 78.7047L62.8564 83.1031L63.3018 82.8766L65.5332 87.274V87.275L65.0879 87.5016L67.3193 91.9L67.7646 91.6735V91.6725L69.9951 96.0719H69.9961L69.5498 96.2985L71.7812 100.696L72.2266 100.47L74.458 104.868V104.869L74.0127 105.094L76.2432 109.493L76.6885 109.267L78.9199 113.666H78.9209L78.4746 113.891L80.7061 118.29L81.1504 118.063L83.3818 122.462H83.3828L82.9375 122.688L85.168 127.087L85.6133 126.86L87.8447 131.258L87.3994 131.485L89.6309 135.883L90.0752 135.657Z" stroke="#C5E6F4" stroke-opacity="0.61" stroke-dasharray="5 5"/>
<path d="M186.738 135.658L188.969 140.057H188.97L188.524 140.283L189.64 142.483L189.642 142.487C189.884 142.952 189.875 143.511 189.637 144.003L188.537 146.098L188.978 146.33L186.764 150.539L186.323 150.308L184.109 154.518L184.55 154.749L182.336 158.959L181.895 158.728L179.68 162.938L180.123 163.169L177.909 167.379L177.466 167.147L175.253 171.357L175.695 171.589L173.481 175.799L173.039 175.567L170.825 179.777L171.267 180.009L169.053 184.219L168.611 183.987L167.504 186.091L167.503 186.092C166.894 187.254 165.257 187.28 164.595 186.167L164.535 186.056L163.392 183.793L162.945 184.018L160.66 179.492L161.107 179.267L158.822 174.741L158.376 174.966L156.089 170.441L156.537 170.215L154.252 165.69L153.805 165.914L151.519 161.389L151.966 161.164L149.681 156.638L149.235 156.863L146.95 152.337L147.396 152.113L145.111 147.586L144.665 147.811L142.379 143.285L142.827 143.061L140.542 138.535L140.095 138.76H140.094L137.809 134.235L138.256 134.009L135.971 129.484L135.524 129.709L133.239 125.183L133.686 124.957L131.401 120.432L130.954 120.657L128.669 116.131L129.116 115.906L126.831 111.38L126.383 111.606L124.099 107.079L124.545 106.855L122.26 102.329L121.813 102.554L119.529 98.0286H119.53L119.976 97.803L117.691 93.2776L117.245 93.5032H117.244L114.959 88.9768H114.96L115.406 88.7512L113.121 84.2258L112.673 84.4514L110.388 79.925H110.389L110.836 79.7004L108.55 75.1741L108.103 75.3997L105.818 70.8743L106.265 70.6487L103.98 66.1223L103.533 66.3479L101.248 61.8225L101.695 61.5969L100.552 59.3342L100.28 58.7815C100.013 58.2267 99.7627 57.6656 99.5298 57.0999L99.0699 57.2883C98.4326 55.7396 97.9206 54.1541 97.5367 52.5452L98.022 52.4299C97.6406 50.8314 97.3858 49.2101 97.2584 47.5813L96.7623 47.6194C96.6325 45.9601 96.6325 44.2934 96.7623 42.634L97.2584 42.6731C97.3858 41.0443 97.6406 39.423 98.022 37.8245L97.5357 37.7083C97.9197 36.0993 98.4325 34.5139 99.0699 32.9651L99.5298 33.1536C99.7626 32.588 100.013 32.0276 100.28 31.4729L100.552 30.9202H100.553L101.778 28.4875L101.332 28.2629L101.331 28.262L103.781 23.3977L103.782 23.3987L104.228 23.6233L106.678 18.759L106.232 18.5344L106.231 18.5334L108.681 13.6692L108.682 13.6702L109.129 13.8948L111.58 9.03052L111.133 8.80591L111.132 8.80493L113.583 3.9397L113.584 3.94067L114.03 4.16626L115.254 1.73364H115.255C115.849 0.554334 117.52 0.517488 118.181 1.62329L118.242 1.73364L118.243 1.7356L119.358 3.93481L119.804 3.70825V3.70728L122.036 8.10571V8.10669L121.589 8.33228L123.821 12.7307L124.266 12.5051V12.5042L126.498 16.9026V16.9036L126.051 17.1292L128.283 21.5276L128.728 21.301L130.96 25.6995H130.961L130.514 25.926L132.746 30.3245L133.191 30.0979V30.0969L135.422 34.4954V34.4963L134.976 34.7229L137.208 39.1213L137.653 38.8948L139.884 43.2922V43.2932L139.439 43.5198L141.669 47.9182L142.116 47.6917V47.6907L144.346 52.0901H144.347L143.901 52.3157L146.132 56.7141L146.578 56.4885V56.4875L148.809 60.886V60.887L148.364 61.1125L150.594 65.511L151.041 65.2854V65.2844L153.271 69.6829L152.826 69.9094L155.057 74.3079L155.503 74.0813V74.0803L157.733 78.4797H157.734L157.288 78.7063L159.519 83.1047L159.964 82.8782L162.196 87.2756V87.2766L161.751 87.5032L163.982 91.9016L164.427 91.675V91.6741L166.658 96.0735H166.659L166.212 96.3L168.444 100.698L168.889 100.472L171.121 104.869V104.87L170.675 105.096L172.906 109.494L173.351 109.269L175.583 113.667H175.584L175.137 113.893L177.369 118.291L177.813 118.065L180.044 122.463H180.045L179.6 122.69L181.831 127.088L182.276 126.862L184.507 131.26L184.062 131.487L186.294 135.885L186.738 135.658Z" stroke="#C5E6F4" stroke-opacity="0.61" stroke-dasharray="5 5"/>
</g>
<defs>
<clipPath id="clip0_151_9471">
<rect width="210" height="177" fill="white"/>
</clipPath>
</defs>
</svg>
